<?xml version="1.0" encoding="utf-8"?>
<!-- Generator: Adobe Illustrator 19.0.0, SVG Export Plug-In . SVG Version: 6.00 Build 0)  -->
<svg version="1.1" xmlns="http://www.w3.org/2000/svg" xmlns:xlink="http://www.w3.org/1999/xlink" x="0px" y="0px"
	 viewBox="0 0 945.3 800" style="enable-background:new 0 0 945.3 800;" xml:space="preserve">
<style type="text/css">
	.st0{fill:url(#SVGID_1_);}
	.st1{fill:#504F61;}
	.st2{fill:#ED7774;}
	.st3{fill:#32B196;}
	.st4{fill:#2D2D87;}
	.st5{fill:#98AAA9;}
	.st6{clip-path:url(#SVGID_3_);fill:#32B196;}
	.st7{fill:#0DB14B;}
	.st8{font-family:'Arial-BoldMT';}
	.st9{font-size:29.0156px;}
	.st10{font-size:21px;}
	.st11{fill:#231F20;}
	.st12{font-family:'ArialMT';}
	.st13{font-size:18px;}
</style>
<g id="Background">
	<radialGradient id="SVGID_1_" cx="545.3347" cy="400" r="400" gradientUnits="userSpaceOnUse">
		<stop  offset="0" style="stop-color:#FFFFFF"/>
		<stop  offset="1" style="stop-color:#F5F5F5"/>
	</radialGradient>
	<rect x="145.3" class="st0" width="800" height="800"/>
</g>
<g id="Elements">
	<path class="st1" d="M646,277.8l0.9,0.9l34.5-34.5h105.5v-2.5H680.1v0.4l0,0l-33.7,33.7c-24.4-19.8-53.8-31.8-85-34.8v1.9
		C593.3,245.9,622.4,258.6,646,277.8L646,277.8z"/>
	<path class="st1" d="M445.2,523.1l-0.9-0.9l-34.5,34.5H304.3v2.5h106.8v-0.4l0,0.1l33.7-33.7c24.4,19.8,53.8,31.8,85,34.8v-1.9
		C498,555,468.8,542.3,445.2,523.1L445.2,523.1z"/>
	<path class="st2" d="M752.7,386v-2.5h-47.6c-3.3-31.2-15.5-60.5-35.5-84.8l-1.4,1.4c19.3,23.5,32,52.7,35.1,84.6h0v1.2H752.7z"/>
	<path class="st3" d="M528.7,241c-31.2,3.3-60.5,15.5-84.8,35.5l1.4,1.4c23.5-19.3,52.7-32,84.6-35.1v0h1.2v-49.3h-2.5V241z"/>
	<path class="st4" d="M420.9,299.7c-19.8,24.4-31.8,53.8-34.8,85h1.9c3.2-31.9,15.8-61.1,35.1-84.6L423,300l0.9-0.9L389,264.3
		l-0.5,0.5v-0.8H281.7v2.5h105.9L420.9,299.7z"/>
	<path class="st2" d="M338.6,414.9v2.5h47.6c3.3,31.2,15.5,60.5,35.5,84.8l1.4-1.4c-19.3-23.5-32-52.7-35.1-84.6h0v-1.2H338.6z"/>
	<path class="st5" d="M703.6,534.5l-33.3-33.3c19.8-24.4,31.8-53.8,34.8-85h-1.9c-3.2,31.9-15.8,61.1-35.1,84.6l0.1,0.1l-0.9,0.9
		l34.9,34.9l0.1-0.1v0.4h106.8v-2.5H703.6z"/>
	<g>
		<path class="st3" d="M565.2,618.3c0,2.7-2.2,5-5,5c-2.7,0-5-2.2-5-5c0-2.7,2.2-5,5-5C563,613.4,565.2,615.6,565.2,618.3
			L565.2,618.3z M565.2,618.3"/>
		<path class="st3" d="M577.6,632l-4.6-1c-1.6-0.3-3.1,0.4-3.9,1.7c-0.8-0.4-1.7-0.8-2.6-1.1v-2.7c0-2.1-1.7-3.8-3.8-3.8h-4.7
			c-2.1,0-3.8,1.7-3.8,3.8v2.8c-0.9,0.3-1.8,0.6-2.6,1c-0.8-1.3-2.4-2-3.9-1.7l-4.6,1c-2,0.4-3.3,2.4-2.9,4.5l1.2,5.5
			c0.4,2,2.4,3.3,4.5,2.9l1.5-0.3c0.7,1.1,1.8,2.1,3,2.9c2.7,1.8,6.3,2.7,10.1,2.7c5.8,0,10.8-2.3,13.1-5.7l1.5,0.3
			c2,0.4,4-0.9,4.5-2.9l1.2-5.5C580.9,634.4,579.6,632.4,577.6,632L577.6,632z M560.3,648.4c-3.4,0-6.6-0.9-9-2.4
			c-0.8-0.5-1.5-1.1-2-1.8l1.1-0.2c2-0.4,3.4-2.4,2.9-4.5l-1-5c0.6-0.3,1.2-0.6,1.9-0.9v0.9c0,2.1,1.7,3.8,3.8,3.8h4.7
			c2.1,0,3.8-1.7,3.8-3.8v-1c0.7,0.3,1.3,0.5,1.9,0.8l-1.1,5c-0.4,2,0.9,4,2.9,4.5l1.1,0.2C569.3,646.7,565.1,648.4,560.3,648.4
			L560.3,648.4z M560.3,648.4"/>
		<g>
			<defs>
				<rect id="SVGID_2_" x="539.1" y="613.4" width="43.2" height="38.7"/>
			</defs>
			<clipPath id="SVGID_3_">
				<use xlink:href="#SVGID_2_"  style="overflow:visible;"/>
			</clipPath>
			<path class="st6" d="M581.5,624.9c0,2.7-2.2,5-5,5c-2.7,0-5-2.2-5-5c0-2.7,2.2-5,5-5C579.3,619.9,581.5,622.1,581.5,624.9
				L581.5,624.9z M581.5,624.9"/>
			<path class="st6" d="M545.1,629.7c2.7-0.6,4.4-3.2,3.8-5.9c-0.6-2.7-3.2-4.4-5.9-3.8c-2.7,0.6-4.4,3.2-3.8,5.9
				C539.8,628.6,542.4,630.3,545.1,629.7L545.1,629.7z M545.1,629.7"/>
		</g>
	</g>
	<path class="st7" d="M561.5,559.1c31.2-3.3,60.5-15.5,84.8-35.5l-1.4-1.4c-23.5,19.3-52.7,32-84.6,35.1v0H559v49.3h2.5V559.1z"/>
	<g>
		<path class="st1" d="M806,255.4h-16.9c0.2-0.3,0.3-0.7,0.3-1.1c0-1.4-1.1-2.5-2.5-2.5c-1.4,0-2.5,1.1-2.5,2.5
			c0,0.4,0.1,0.8,0.3,1.1h-16.9c-1.3,0-2.3,1-2.3,2.3v25.1c0,1.3,1,2.3,2.3,2.3h13.8l-2.7,9.5c-0.2,0.7,0.2,1.3,0.9,1.4l1.1,0.2
			c0.7,0.1,1.4-0.3,1.6-1l2.9-10.1h3.1l2.9,10.1c0.2,0.7,0.9,1.1,1.6,1l1.1-0.2c0.7-0.1,1.1-0.8,0.9-1.4l-2.7-9.5H806
			c1.2,0,2.3-1,2.3-2.3v-25.1C808.3,256.5,807.3,255.4,806,255.4L806,255.4z M803.9,280.7h-34v-21.3h34V280.7z M803.9,280.7"/>
		<path class="st1" d="M773.9,277.1c1,0,1.8-0.8,1.8-1.8c0-0.2-0.1-0.3-0.1-0.5c2.3-1.8,6.2-5,8.1-6.4c0.3,0.2,0.6,0.3,1,0.3
			c0.3,0,0.6-0.1,0.8-0.2c1.2,1,3.2,2.7,4.6,3.9c0,0.1-0.1,0.2-0.1,0.3c0,1,0.8,1.8,1.8,1.8c1,0,1.8-0.8,1.8-1.8
			c0-0.2-0.1-0.3-0.1-0.5l4.6-4.1c0.2,0.1,0.5,0.2,0.8,0.2c1,0,1.8-0.8,1.8-1.8c0-1-0.8-1.8-1.8-1.8c-1,0-1.8,0.8-1.8,1.8
			c0,0.2,0,0.5,0.1,0.7c-1.3,1.1-3.3,2.9-4.5,4c-0.3-0.2-0.6-0.3-0.9-0.3c-0.4,0-0.8,0.2-1.1,0.4c-1.2-1-3.1-2.6-4.4-3.7
			c0.1-0.2,0.1-0.4,0.1-0.6c0-1-0.8-1.8-1.8-1.8c-1,0-1.8,0.8-1.8,1.8c0,0.2,0,0.4,0.1,0.6l-8.1,6.3c-0.3-0.2-0.6-0.3-1-0.3
			c-1,0-1.8,0.8-1.8,1.8C772.2,276.3,773,277.1,773.9,277.1L773.9,277.1z M773.9,277.1"/>
	</g>
	<g>
		<path class="st3" d="M546,160.7c0,0-0.2-2.5-1.8-3.8c-0.9-0.8-1.8-0.9-2.4-0.8v4.7h-1.1v-5.1c-0.3-0.7-1-1.8-2.1-2.2
			c-1-0.4-2.1-0.3-2.8-0.2v5.3h-1.1v-5.9c-0.5-0.6-1.3-1.2-2.8-1.3c-0.8-0.1-1.5,0.3-2.1,0.6l-0.1,5h-1.1l0-9.2
			c3.6-1.1,6.2-4.4,6.2-8.4c0-4.9-4-8.9-8.9-8.9c-4.9,0-8.8,4-8.8,8.9c0,3.8,2.4,7.1,5.8,8.3v15.5c0,0-2.9-6.2-5.3-7
			c-2.4-0.8-3.9,0.6-3.9,0.6s2.8,5.1,4.8,10.8c1.3,3.6,1.7,7.9,2.8,10c2.9,5.3,6.6,5.9,11.1,5.9c4.5,0,10.6,0.4,12.2-3.3
			C546.4,176.4,546,160.7,546,160.7L546,160.7z M521,139.3c0-2.8,2.3-5,5-5c2.8,0,5,2.3,5,5c0,1.8-1,3.4-2.4,4.3l0-3.3
			c0,0-0.7-3.4-2.8-3.4c-2.1,0-2.9,2.9-2.9,2.9v3.5C521.8,142.4,521,140.9,521,139.3L521,139.3z M521,139.3"/>
	</g>
	<path class="st4" d="M440.3,312.8l-16.4-13.6c-34.4,33.2-35.9,85.6-35.9,85.6l21.5,2.1C412.1,358.8,423.3,333.3,440.3,312.8z"/>
	<path class="st2" d="M409.5,414l-21.6,2.2c3.3,52.2,35.1,84.6,35.1,84.6l16.9-13.9C423.3,466.6,412.3,441.5,409.5,414z"/>
	<path class="st1" d="M458.4,505.2l-14,17c43.4,36.9,85.6,35.9,85.6,35.9l2.2-22.3C504.2,533.2,478.8,522.1,458.4,505.2z"/>
	<path class="st7" d="M557.2,536l1.9,21.3c0,0,53.8-2.3,85.9-35.2l-13.3-16.4C610.9,522.7,585.3,533.6,557.2,536z"/>
	<path class="st5" d="M681.2,413.9c-2.8,27.8-14,53.2-31,73.5l17.2,14.3c0,0,34.9-36.4,35.9-85.6L681.2,413.9z"/>
	<path class="st2" d="M681.3,387.9l22-2c0,0-0.3-47.8-35.2-85.9l-16.9,13.8C668,334.4,678.9,360,681.3,387.9z"/>
	<path class="st1" d="M633,295.3l13.9-16.6c0,0-28.2-31.2-85.6-35.9l-2.2,21.4C587.1,267,612.6,278.2,633,295.3z"/>
	<path class="st3" d="M533.1,264l-1.9-21.3c0,0-47.6-0.1-85.9,35.2l13.5,16.5C479.4,277.5,505,266.5,533.1,264z"/>
	<text transform="matrix(1 0 0 1 454.2277 408.9505)" class="st1 st8 st9">METASTORM</text>
	<path class="st4" d="M304.1,315.5h-18.6c0,0,0,0-0.1,0c-0.3-1.6-1.4-2.8-2.9-3.1v-4.9h17.9c0.4,0,0.7-0.4,0.7-0.8v-8
		c0-0.4-0.3-0.8-0.7-0.8h-17.9v-3.2h17.9c0.4,0,0.7-0.4,0.7-0.8v-8c0-0.4-0.3-0.8-0.7-0.8h-17.9v-3.2h17.9c0.4,0,0.7-0.4,0.7-0.8v-8
		c0-0.4-0.3-0.8-0.7-0.8h-37.3c-0.4,0-0.7,0.4-0.7,0.8v8c0,0.4,0.3,0.8,0.7,0.8H281v3.2h-17.9c-0.4,0-0.7,0.4-0.7,0.8v8
		c0,0.4,0.3,0.8,0.7,0.8H281v3.2h-17.9c-0.4,0-0.7,0.4-0.7,0.8v8c0,0.4,0.3,0.8,0.7,0.8H281v4.9c-1.5,0.3-2.6,1.6-2.9,3.1
		c0,0,0,0-0.1,0h-18.6c-0.4,0-0.7,0.4-0.7,0.8c0,0.4,0.3,0.8,0.7,0.8H278c0,0,0,0,0.1,0c0.3,1.8,1.8,3.2,3.7,3.2
		c1.8,0,3.3-1.4,3.7-3.2c0,0,0,0,0.1,0h18.6c0.4,0,0.7-0.4,0.7-0.8C304.8,315.9,304.5,315.5,304.1,315.5z M269,277.8h-3v-1.6h3
		V277.8z M273.5,277.8h-3v-1.6h3V277.8z M276.5,277.8v-1.6h6v1.6H276.5z M269,290.6h-3V289h3V290.6z M273.5,290.6h-3V289h3V290.6z
		 M276.5,290.6V289h6v1.6H276.5z M269,303.5h-3v-1.6h3V303.5z M273.5,303.5h-3v-1.6h3V303.5z M276.5,301.9h6v1.6h-6V301.9z
		 M281.7,317.9c-0.8,0-1.5-0.7-1.5-1.6s0.7-1.6,1.5-1.6s1.5,0.7,1.5,1.6S282.5,317.9,281.7,317.9z"/>
	<text transform="matrix(1 0 0 1 188.6358 177.433)" class="st4 st8 st10">Web Platform</text>
	<text transform="matrix(1 0 0 1 444.3536 24.4565)" class="st1 st8 st10">One Click Process</text>
	<text transform="matrix(1 0 0 1 697.8141 130.4348)" class="st1 st8 st10">Data Visualization</text>
	<text transform="matrix(1 0 0 1 425.0833 672.8405)" class="st7 st8 st10">Sharing and customization</text>
	<text transform="matrix(1 0 0 1 98.4388 447.7221)" class="st1 st8 st10">Database Customization</text>
	<text transform="matrix(1 0 0 1 765.5959 413.8976)" class="st2 st8 st10">Assembly</text>
	<text transform="matrix(1 0 0 1 738.2673 564.4393)" class="st5 st8 st10">Direct Annotation</text>
	<text transform="matrix(1 0 0 1 124.1465 585.6276)" class="st1 st8 st10">Permanent storage</text>
	<text transform="matrix(1 0 0 1 188.6357 199.0224)"><tspan x="0" y="0" class="st11 st12 st13">Centralized web server </tspan><tspan x="0" y="21.6" class="st11 st12 st13">to process raw NGS reads </tspan><tspan x="0" y="43.2" class="st11 st12 st13">from metagenomics samples.</tspan></text>
	<text transform="matrix(1 0 0 1 98.4388 469.3496)"><tspan x="0" y="0" class="st11 st12 st13">Users can upload their own </tspan><tspan x="0" y="21.6" class="st11 st12 st13">databases.</tspan></text>
</g>
</svg>
