<?xml version="1.0" encoding="utf-8"?>
<!-- Generator: Adobe Illustrator 19.0.0, SVG Export Plug-In . SVG Version: 6.00 Build 0)  -->
<svg version="1.1" id="Layer_1" xmlns="http://www.w3.org/2000/svg" xmlns:xlink="http://www.w3.org/1999/xlink" x="0px" y="0px"
	 viewBox="0 0 1397.8 760.5" style="enable-background:new 0 0 1397.8 760.5;" xml:space="preserve">
<style type="text/css">
	.st0{opacity:0.8;fill:#FFFFFF;}
	.st1{fill:#EF3931;}
	.st2{font-family:'Arial-BoldMT';}
	.st3{font-size:16px;}
	.st4{fill:none;}
	.st5{fill:#606161;}
	.st6{fill:#504F62;}
	.st7{fill:#C7203A;}
	.st8{fill:#ED7774;}
	.st9{fill:#39C6F4;}
	.st10{fill:#303086;}
	.st11{fill:#CBB62E;}
	.st12{fill:#98AAA9;}
	.st13{fill:#12B24B;}
	.st14{enable-background:new    ;}
	.st15{fill:#45A948;}
	.st16{font-size:29.0156px;}
	.st17{font-size:21px;}
	.st18{font-family:'ArialMT';}
	.st19{font-size:18px;}
	.st20{fill:#142916;stroke:#000000;stroke-miterlimit:10;}
	.st21{fill:#9FDCF5;}
	.st22{fill:none;stroke:#000000;stroke-miterlimit:10;}
	.st23{fill:#C7203A;stroke:#000000;stroke-width:2;stroke-miterlimit:10;}
	.st24{fill:#1B3018;stroke:#000000;stroke-miterlimit:10;}
	.st25{fill:#16B257;stroke:#000000;stroke-miterlimit:10;}
	.st26{fill:#FFFFFF;}
	.st27{fill:#BFD744;}
	.st28{fill:#78CED7;}
	.st29{fill:#85459A;}
</style>
<g id="XMLID_68_">
	<path id="XMLID_73_" class="st0" d="M1327.7,527.2c0,22.1-17.9,40-40,40h-113.2c-22.1,0-40-17.9-40-40v-12.8c0-22.1,17.9-40,40-40
		h113.2c22.1,0,40,17.9,40,40V527.2z"/>
	<g id="XMLID_69_">
		<text id="XMLID_72_" transform="matrix(1 0 0 1 1187.0679 507.2755)" class="st1 st2 st3">STEP 04</text>
		<rect id="XMLID_71_" x="1186.1" y="511.8" class="st4" width="128" height="35.9"/>
		<text id="XMLID_70_" transform="matrix(1 0 0 1 1186.0679 523.2062)"><tspan x="0" y="0" class="st5 st2 st3">Verify and run </tspan><tspan x="0" y="19.2" class="st5 st2 st3">the analysis</tspan></text>
	</g>
</g>
<g id="XMLID_229_">
	<path id="XMLID_295_" class="st0" d="M1327.7,425.2c0,22.1-17.9,40-40,40h-113.2c-22.1,0-40-17.9-40-40v-12.8c0-22.1,17.9-40,40-40
		h113.2c22.1,0,40,17.9,40,40V425.2z"/>
	<g id="XMLID_243_">
		<text id="XMLID_293_" transform="matrix(1 0 0 1 1187.0679 405.2684)" class="st1 st2 st3">STEP 03</text>
		<rect id="XMLID_245_" x="1186.1" y="409.7" class="st4" width="128" height="35.9"/>
		<text id="XMLID_244_" transform="matrix(1 0 0 1 1186.0679 421.1992)"><tspan x="0" y="0" class="st5 st2 st3">Assign samples </tspan><tspan x="0" y="19.2" class="st5 st2 st3">and databases</tspan></text>
	</g>
</g>
<g id="XMLID_146_">
	<path id="XMLID_224_" class="st0" d="M1327.7,311.6c0,22.1-17.9,40-40,40h-113.2c-22.1,0-40-17.9-40-40v-12.8c0-22.1,17.9-40,40-40
		h113.2c22.1,0,40,17.9,40,40V311.6z"/>
	<g id="XMLID_150_">
		<text id="XMLID_220_" transform="matrix(1 0 0 1 1187.0679 291.699)" class="st1 st2 st3">STEP 02</text>
		<rect id="XMLID_206_" x="1186.1" y="296.2" class="st4" width="128" height="35.9"/>
		<text id="XMLID_166_" transform="matrix(1 0 0 1 1186.0679 307.6297)" class="st5 st2 st3">Setup Metadata</text>
	</g>
</g>
<g id="XMLID_66_">
	
		<image style="overflow:visible;opacity:0.75;" width="1065" height="283" id="XMLID_227_" xlink:href="C3D1E0606070BF4C.png"  transform="matrix(0.24 0 0 0.24 558.334 220.712)">
	</image>
	<g id="XMLID_216_">
		<path id="XMLID_226_" class="st6" d="M650.9,265.5l0.9,0.9l34.5-34.5h105.5v-2.5H685v0.4l0,0l-33.7,33.7
			c-24.4-19.8-53.8-31.8-85-34.8v1.9C598.2,233.6,627.3,246.3,650.9,265.5L650.9,265.5z"/>
	</g>
</g>
<g id="XMLID_65_">
	
		<image style="overflow:visible;opacity:0.75;" width="1065" height="283" id="XMLID_286_" xlink:href="C3D1E0606070BF4B.png"  transform="matrix(0.24 0 0 0.24 301.234 501.9119)">
	</image>
	<g id="XMLID_205_">
		<path id="XMLID_285_" class="st7" d="M450.1,510.8l-0.9-0.9l-34.5,34.5H309.2v2.5H416v-0.4v0.1l33.7-33.7
			c24.4,19.8,53.8,31.8,85,34.8v-1.9C502.9,542.7,473.7,530,450.1,510.8L450.1,510.8z"/>
	</g>
</g>
<g id="XMLID_64_">
	
		<image style="overflow:visible;opacity:0.75;" width="478" height="489" id="XMLID_219_" xlink:href="C3D1E0606070BF58.png"  transform="matrix(0.24 0 0 0.24 665.134 278.412)">
	</image>
	<g id="XMLID_208_">
		<path id="XMLID_218_" class="st8" d="M757.6,373.7v-2.5H710c-3.3-31.2-15.5-60.5-35.5-84.8l-1.4,1.4c19.3,23.5,32,52.7,35.1,84.6
			l0,0v1.2L757.6,373.7L757.6,373.7z"/>
	</g>
</g>
<g id="XMLID_63_">
	
		<image style="overflow:visible;opacity:0.75;" width="489" height="477" id="XMLID_290_" xlink:href="C3D1E0606070BF5F.png"  transform="matrix(0.24 0 0 0.24 440.834 173.212)">
	</image>
	<g id="XMLID_207_">
		<path id="XMLID_289_" class="st9" d="M533.6,228.7c-31.2,3.3-60.5,15.5-84.8,35.5l1.4,1.4c23.5-19.3,52.7-32,84.6-35.1l0,0h1.2
			v-49.3h-2.5L533.6,228.7L533.6,228.7z"/>
	</g>
</g>
<g id="XMLID_62_">
	
		<image style="overflow:visible;opacity:0.75;" width="718" height="628" id="XMLID_211_" xlink:href="C3D1E0606070BF42.png"  transform="matrix(0.24 0 0 0.24 278.634 243.712)">
	</image>
	<g id="XMLID_200_">
		<path id="XMLID_210_" class="st10" d="M425.8,287.4c-19.8,24.4-31.8,53.8-34.8,85h1.9c3.2-31.9,15.8-61.1,35.1-84.6l-0.1-0.1
			l0.9-0.9L393.9,252l-0.5,0.5v-0.8H286.6v2.5h105.9L425.8,287.4z"/>
	</g>
</g>
<g id="XMLID_61_">
	
		<image style="overflow:visible;opacity:0.75;" width="478" height="489" id="XMLID_292_" xlink:href="C3D1E0606070BF43.png"  transform="matrix(0.24 0 0 0.24 335.534 394.612)">
	</image>
	<g id="XMLID_283_">
		<path id="XMLID_291_" class="st11" d="M343.5,402.6v2.5h47.6c3.3,31.2,15.5,60.5,35.5,84.8l1.4-1.4c-19.3-23.5-32-52.7-35.1-84.6
			l0,0v-1.2h-49.4V402.6z"/>
	</g>
</g>
<g id="XMLID_60_">
	
		<image style="overflow:visible;opacity:0.75;" width="716" height="629" id="XMLID_203_" xlink:href="C3D1E0606070BF44.png"  transform="matrix(0.24 0 0 0.24 664.2339 395.912)">
	</image>
	<g id="XMLID_192_">
		<path id="XMLID_202_" class="st12" d="M708.5,522.2l-33.3-33.3c19.8-24.4,31.8-53.8,34.8-85h-1.9c-3.2,31.9-15.8,61.1-35.1,84.6
			l0.1,0.1l-0.9,0.9l34.9,34.9l0.1-0.1v0.4H814v-2.5L708.5,522.2L708.5,522.2z"/>
	</g>
</g>
<g id="XMLID_47_">
	
		<image style="overflow:visible;opacity:0.75;" width="489" height="477" id="XMLID_199_" xlink:href="C3D1E0606070BF45.png"  transform="matrix(0.24 0 0 0.24 555.934 501.9119)">
	</image>
	<g id="XMLID_188_">
		<path id="XMLID_198_" class="st13" d="M566.4,546.8c31.2-3.3,60.5-15.5,84.8-35.5l-1.4-1.4c-23.5,19.3-52.7,32-84.6,35.1l0,0h-1.3
			v49.3h2.5V546.8z"/>
	</g>
</g>
<g id="XMLID_37_">
	
		<image style="overflow:visible;opacity:0.75;" width="343" height="491" id="XMLID_195_" xlink:href="C3D1E0606070BF46.png"  transform="matrix(0.24 0 0 0.24 384.934 278.912)">
	</image>
	<g id="XMLID_184_">
		<path id="XMLID_194_" class="st10" d="M445.2,300.5l-16.4-13.6c-34.4,33.2-35.9,85.6-35.9,85.6l21.5,2.1
			C417,346.5,428.2,321,445.2,300.5z"/>
	</g>
</g>
<g id="XMLID_36_">
	
		<image style="overflow:visible;opacity:0.75;" width="342" height="487" id="XMLID_288_" xlink:href="4D556DEDF04B9D70.png"  transform="matrix(0.24 0 0 0.24 384.834 393.712)">
	</image>
	<g id="XMLID_281_">
		<path id="XMLID_287_" class="st11" d="M414.4,401.7l-21.6,2.2c3.3,52.2,35.1,84.6,35.1,84.6l16.9-13.9
			C428.2,454.3,417.2,429.2,414.4,401.7z"/>
	</g>
</g>
<g id="XMLID_35_">
	
		<image style="overflow:visible;opacity:0.75;" width="491" height="346" id="XMLID_222_" xlink:href="4D556DEDF04B9D67.png"  transform="matrix(0.24 0 0 0.24 441.334 484.912)">
	</image>
	<g id="XMLID_190_">
		<path id="XMLID_215_" class="st7" d="M463.3,492.9l-14,17c43.4,36.9,85.6,35.9,85.6,35.9l2.2-22.3
			C509.1,520.9,483.7,509.8,463.3,492.9z"/>
	</g>
</g>
<g id="XMLID_34_">
	
		<image style="overflow:visible;opacity:0.75;" width="491" height="341" id="XMLID_183_" xlink:href="4D556DEDF04B9D68.png"  transform="matrix(0.24 0 0 0.24 554.134 485.412)">
	</image>
	<g id="XMLID_172_">
		<path id="XMLID_182_" class="st13" d="M562.1,523.7L564,545c0,0,53.8-2.3,85.9-35.2l-13.3-16.4
			C615.8,510.4,590.2,521.3,562.1,523.7z"/>
	</g>
</g>
<g id="XMLID_33_">
	
		<image style="overflow:visible;opacity:0.75;" width="347" height="491" id="XMLID_179_" xlink:href="4D556DEDF04B9D69.png"  transform="matrix(0.24 0 0 0.24 647.134 393.612)">
	</image>
	<g id="XMLID_168_">
		<path id="XMLID_178_" class="st12" d="M686.1,401.6c-2.8,27.8-14,53.2-31,73.5l17.2,14.3c0,0,34.9-36.4,35.9-85.6L686.1,401.6z"/>
	</g>
</g>
<g id="XMLID_32_">
	
		<image style="overflow:visible;opacity:0.75;" width="343" height="492" id="XMLID_175_" xlink:href="4D556DEDF04B9D6A.png"  transform="matrix(0.24 0 0 0.24 648.134 279.712)">
	</image>
	<g id="XMLID_159_">
		<path id="XMLID_174_" class="st8" d="M686.2,375.6l22-2c0,0-0.3-47.8-35.2-85.9l-16.9,13.8C672.9,322.1,683.8,347.7,686.2,375.6z"
			/>
	</g>
</g>
<g id="XMLID_31_">
	
		<image style="overflow:visible;opacity:0.75;" width="491" height="344" id="XMLID_171_" xlink:href="4D556DEDF04B9D6B.png"  transform="matrix(0.24 0 0 0.24 556.0341 222.512)">
	</image>
	<g id="XMLID_151_">
		<path id="XMLID_170_" class="st6" d="M637.9,283l13.9-16.6c0,0-28.2-31.2-85.6-35.9l-2.2,21.4C592,254.7,617.5,265.9,637.9,283z"
			/>
	</g>
</g>
<g id="XMLID_30_">
	
		<image style="overflow:visible;opacity:0.75;" width="491" height="341" id="XMLID_284_" xlink:href="4D556DEDF04B9D6C.png"  transform="matrix(0.24 0 0 0.24 442.234 222.412)">
	</image>
	<g id="XMLID_204_">
		<path id="XMLID_282_" class="st9" d="M538,251.7l-1.9-21.3c0,0-47.6-0.1-85.9,35.2l13.5,16.5C484.3,265.2,509.9,254.2,538,251.7z"
			/>
	</g>
</g>
<g id="XMLID_29_" class="st14">
	<text id="XMLID_92_" transform="matrix(1 0 0 1 459.1615 401.6116)" class="st15 st2 st16">METASTORM</text>
</g>
<g id="XMLID_16_" class="st14">
	<text id="XMLID_91_" transform="matrix(1 0 0 1 213.1382 126.5228)" class="st2 st17">Web Platform</text>
</g>
<g id="XMLID_14_" class="st14">
	<text id="XMLID_90_" transform="matrix(1 0 0 1 700.1324 126.5227)" class="st2 st17">Data Visualization</text>
</g>
<g id="XMLID_13_" class="st14">
	<text id="XMLID_87_" transform="matrix(1 0 0 1 429.8566 657.0811)" class="st2 st17">Sharing and customization</text>
</g>
<g id="XMLID_12_" class="st14">
	<text id="XMLID_83_" transform="matrix(1 0 0 1 54.6836 338.4381)" class="st2 st17">Database Customization</text>
</g>
<g id="XMLID_11_" class="st14">
	<text id="XMLID_79_" transform="matrix(1 0 0 1 814.5646 330.1362)" class="st2 st17">Assembly</text>
</g>
<g id="XMLID_10_" class="st14">
	<text id="XMLID_77_" transform="matrix(1 0 0 1 813.1925 560.5272)" class="st2 st17">Direct Annotation</text>
</g>
<g id="XMLID_9_" class="st14">
	<text id="XMLID_75_" transform="matrix(1 0 0 1 140.1704 579.4595)" class="st2 st17">Permanent storage</text>
</g>
<g id="XMLID_121_">
	<text id="XMLID_124_" transform="matrix(1 0 0 1 186.2694 146.1632)" class="st18 st19">Centralized web server </text>
	<text id="XMLID_123_" transform="matrix(1 0 0 1 172.7694 167.7632)" class="st18 st19">to process raw NGS reads </text>
	<text id="XMLID_122_" transform="matrix(1 0 0 1 163.2684 189.3632)" class="st14"><tspan x="0" y="0" class="st18 st19">from metagenomics samples.</tspan><tspan x="2" y="21.6" class="st18 st19">MetaStorm allows taxonomy </tspan><tspan x="14.5" y="43.2" class="st18 st19">and functional annotation.</tspan></text>
</g>
<g id="XMLID_115_">
	<text id="XMLID_118_" transform="matrix(1 0 0 1 45.5604 364.8118)" class="st14"><tspan x="0" y="0" class="st18 st19">MetaStorm allow users to upload</tspan><tspan x="14.5" y="21.6" class="st18 st19">their own databases. Default </tspan><tspan x="9.5" y="43.2" class="st18 st19">MetaStorm databases include:</tspan><tspan x="20.5" y="64.8" class="st18 st19">deepARG, CARD, BacMet, </tspan><tspan x="-14" y="86.4" class="st18 st19">ACLAME, ARDB, CAZy, UNIPROT, </tspan><tspan x="6.5" y="108" class="st18 st19">COG, SILVA, GREENGENES, </tspan><tspan x="79.5" y="129.6" class="st18 st19">MetaPhlAn2.</tspan></text>
</g>
<g id="XMLID_98_">
	<text id="XMLID_100_" transform="matrix(1 0 0 1 432.032 119.4233)" class="st14"><tspan x="0" y="0" class="st18 st19">All you need is raw NGS </tspan><tspan x="-10" y="21.6" class="st18 st19">sequences, MetaStorm will </tspan><tspan x="-12.5" y="43.2" class="st18 st19">take care of everything else!</tspan></text>
</g>
<g id="XMLID_103_">
	<text id="XMLID_116_" transform="matrix(1 0 0 1 432.7841 681.143)" class="st14"><tspan x="0" y="0" class="st18 st19">MetaStorm allows users to share </tspan><tspan x="-7" y="21.6" class="st18 st19">their projects (raw data, processed </tspan><tspan x="68" y="43.2" class="st18 st19">files and results)</tspan></text>
</g>
<g id="XMLID_127_">
	<text id="XMLID_128_" transform="matrix(1 0 0 1 689.9461 146.1633)" class="st14"><tspan x="0" y="0" class="st18 st19">MetaStorm uses a set of </tspan><tspan x="-7.5" y="21.6" class="st18 st19">visualization techniques to </tspan><tspan x="-11.5" y="43.2" class="st18 st19">represent the functional and</tspan><tspan x="-26.5" y="64.8" class="st18 st19">taxonomy abundance, diversity.</tspan></text>
</g>
<g id="XMLID_130_">
	<text id="XMLID_131_" transform="matrix(1 0 0 1 757.1139 358.2725)" class="st14"><tspan x="0" y="0" class="st18 st19">Reads are assembled into </tspan><tspan x="9.5" y="21.6" class="st18 st19">longer sequences using </tspan><tspan x="-0.5" y="43.2" class="st18 st19">IDBA-UD. Then, genes are</tspan><tspan x="-3" y="64.8" class="st18 st19">predicted with prodigal and </tspan><tspan x="9.5" y="86.4" class="st18 st19">annotated using BLAST.</tspan></text>
</g>
<g id="XMLID_133_">
	<text id="XMLID_134_" transform="matrix(1 0 0 1 796.9072 584.0582)" class="st14"><tspan x="0" y="0" class="st18 st19">Short sequence reads are</tspan><tspan x="-1.5" y="21.6" class="st18 st19">directly compared against </tspan><tspan x="-7" y="43.2" class="st18 st19">a reference database. Each</tspan><tspan x="-15" y="64.8" class="st18 st19">aligned read is assigned to its</tspan><tspan x="-5.5" y="86.4" class="st18 st19">best hit (best hit approach).</tspan></text>
</g>
<g id="XMLID_141_">
	<text id="XMLID_143_" transform="matrix(1 0 0 1 125.7302 602.6878)" class="st14"><tspan x="0" y="0" class="st18 st19">Raw data is stored into our </tspan><tspan x="-15.5" y="21.6" class="st18 st19">MetaStorm allocation under the</tspan><tspan x="-17.5" y="43.2" class="st18 st19">Advanced Research Computing</tspan><tspan x="11.5" y="64.8" class="st18 st19">center at VT. MetaStorm</tspan><tspan x="-2.5" y="86.4" class="st18 st19">uses the clusters at ARC for</tspan><tspan x="2" y="108" class="st18 st19">making the metagenomics </tspan><tspan x="74.5" y="129.6" class="st18 st19">analysis.</tspan></text>
</g>
<g id="XMLID_15_" class="st14">
	<text id="XMLID_48_" transform="matrix(1 0 0 1 439.86 100.0288)" class="st2 st17">One Click Process</text>
</g>
<g id="XMLID_39_">
	
		<image style="overflow:visible;opacity:0.75;" width="326" height="334" id="XMLID_311_" xlink:href="4D556DEDF04B9D6D.png"  transform="matrix(0.24 0 0 0.24 823.0909 254.6951)">
	</image>
	<g id="XMLID_225_">
		<g id="XMLID_303_">
			<ellipse id="XMLID_305_" class="st20" cx="833.9" cy="287.7" rx="2.3" ry="2.1"/>
			<path id="XMLID_304_" class="st20" d="M841.3,289.8c0.1,0,0.1,0,0.2,0c1.5,0.1,2.7,1.2,2.7,2.6c0,3.7,3.3,6.6,7.4,6.6h6.1
				c1.6,0,2.9,1.2,2.9,2.6c0,3.7,3.3,6.6,7.4,6.6h2.6l-0.6,0.5c-0.9,0.8-1,2-0.2,2.9c0.8,0.8,2.3,0.9,3.2,0.1l4.9-4
				c0.5-0.4,0.7-0.9,0.7-1.5c0-0.6-0.3-1.1-0.7-1.5l-4.9-4c-0.4-0.4-1-0.5-1.5-0.5c-0.6,0-1.2,0.2-1.7,0.7c-0.8,0.8-0.8,2.1,0.2,2.9
				l0.6,0.5h-2.6c-1.6,0-2.9-1.2-2.9-2.6c0-1.8-0.8-3.4-2.1-4.6c1.3-1.2,2.1-2.8,2.1-4.6c0-1.4,1.3-2.6,2.9-2.6h2.6l-0.6,0.5
				c-0.9,0.8-1,2-0.2,2.9c0.8,0.8,2.3,0.9,3.2,0.1l4.9-4c0.5-0.4,0.7-0.9,0.7-1.5c0-0.6-0.3-1.1-0.7-1.5l-4.9-4
				c-0.4-0.4-1-0.5-1.5-0.5c-0.6,0-1.2,0.2-1.7,0.7c-0.8,0.8-0.8,2.1,0.2,2.9l0.6,0.5h-2.6c-4.1,0-7.4,3-7.4,6.7
				c0,1.4-1.3,2.6-2.9,2.6h-6.1c-1.6,0-2.9-1.2-2.9-2.6c0-1.8-0.8-3.4-2.1-4.6c1.3-1.2,2.1-2.8,2.1-4.6c0-1.4,1.3-2.6,2.9-2.6h6.1
				c4.1,0,7.4-3,7.4-6.6c0-1.4,1.3-2.6,2.9-2.6h2.6l-0.6,0.5c-0.9,0.8-1,2-0.2,2.9c0.8,0.8,2.3,0.9,3.2,0.1l4.9-4
				c0.5-0.4,0.7-0.9,0.7-1.5c0-0.6-0.3-1.1-0.7-1.5l-4.9-4c-0.4-0.4-1-0.5-1.5-0.5c-0.6,0-1.2,0.2-1.7,0.7c-0.8,0.8-0.8,2.1,0.2,2.9
				l0.6,0.5h-2.6c-4.1,0-7.4,3-7.4,6.7c0,1.4-1.3,2.6-2.9,2.6h-6.1c-4.1,0-7.4,3-7.4,6.7c0,1.4-1.2,2.5-2.7,2.6c0,0-0.1,0-0.1,0
				c-1.3,0-2.3,0.9-2.3,2.1C839,288.8,840,289.8,841.3,289.8z"/>
		</g>
	</g>
</g>
<g id="XMLID_49_">
	
		<image style="overflow:visible;opacity:0.75;" width="388" height="380" id="XMLID_467_" xlink:href="4D556DEDF04B9D6E.png"  transform="matrix(0.24 0 0 0.24 238.734 41.7008)">
	</image>
	<g id="XMLID_408_">
		<path id="XMLID_455_" class="st21" d="M308.2,104.2h-25c0,0-0.1,0-0.1,0c-0.4-2-1.9-3.5-3.9-3.9v-6.1h24c0.6,0,1-0.4,1-1v-10
			c0-0.6-0.4-1-1-1h-24v-4h24c0.6,0,1-0.4,1-1v-10c0-0.6-0.4-1-1-1h-24v-4h24c0.6,0,1-0.4,1-1v-10c0-0.6-0.4-1-1-1h-50
			c-0.6,0-1,0.4-1,1v10c0,0.6,0.4,1,1,1h24v4h-24c-0.6,0-1,0.4-1,1v10c0,0.6,0.4,1,1,1h24v4h-24c-0.6,0-1,0.4-1,1v10
			c0,0.6,0.4,1,1,1h24v6.1c-2,0.4-3.5,2-3.9,3.9c0,0-0.1,0-0.1,0h-25c-0.6,0-1,0.4-1,1s0.4,1,1,1h25c0,0,0.1,0,0.1,0
			c0.5,2.3,2.5,4,4.9,4s4.4-1.7,4.9-4c0,0,0.1,0,0.1,0h25c0.6,0,1-0.4,1-1S308.8,104.2,308.2,104.2z M261.2,57.2h-4v-2h4V57.2z
			 M267.2,57.2h-4v-2h4V57.2z M271.2,57.2v-2h8v2H271.2z M261.2,73.2h-4v-2h4V73.2z M267.2,73.2h-4v-2h4V73.2z M271.2,73.2v-2h8v2
			H271.2z M261.2,89.2h-4v-2h4V89.2z M267.2,89.2h-4v-2h4V89.2z M271.2,87.2h8v2h-8V87.2z M278.2,107.2c-1.1,0-2-0.9-2-2s0.9-2,2-2
			c1.1,0,2,0.9,2,2S279.3,107.2,278.2,107.2z"/>
		<path id="XMLID_443_" class="st22" d="M308.2,104.2h-25c0,0-0.1,0-0.1,0c-0.4-2-1.9-3.5-3.9-3.9v-6.1h24c0.6,0,1-0.4,1-1v-10
			c0-0.6-0.4-1-1-1h-24v-4h24c0.6,0,1-0.4,1-1v-10c0-0.6-0.4-1-1-1h-24v-4h24c0.6,0,1-0.4,1-1v-10c0-0.6-0.4-1-1-1h-50
			c-0.6,0-1,0.4-1,1v10c0,0.6,0.4,1,1,1h24v4h-24c-0.6,0-1,0.4-1,1v10c0,0.6,0.4,1,1,1h24v4h-24c-0.6,0-1,0.4-1,1v10
			c0,0.6,0.4,1,1,1h24v6.1c-2,0.4-3.5,2-3.9,3.9c0,0-0.1,0-0.1,0h-25c-0.6,0-1,0.4-1,1s0.4,1,1,1h25c0,0,0.1,0,0.1,0
			c0.5,2.3,2.5,4,4.9,4s4.4-1.7,4.9-4c0,0,0.1,0,0.1,0h25c0.6,0,1-0.4,1-1S308.8,104.2,308.2,104.2z M261.2,57.2h-4v-2h4V57.2z
			 M267.2,57.2h-4v-2h4V57.2z M271.2,57.2v-2h8v2H271.2z M261.2,73.2h-4v-2h4V73.2z M267.2,73.2h-4v-2h4V73.2z M271.2,73.2v-2h8v2
			H271.2z M261.2,89.2h-4v-2h4V89.2z M267.2,89.2h-4v-2h4V89.2z M271.2,87.2h8v2h-8V87.2z M278.2,107.2c-1.1,0-2-0.9-2-2s0.9-2,2-2
			c1.1,0,2,0.9,2,2S279.3,107.2,278.2,107.2z"/>
	</g>
</g>
<g id="XMLID_41_">
	
		<image style="overflow:visible;opacity:0.75;" width="356" height="365" id="XMLID_388_" xlink:href="4D556DEDF04B9D6F.png"  transform="matrix(0.24 0 0 0.24 849.256 477.9861)">
	</image>
	<g id="XMLID_338_">
		<path id="XMLID_381_" class="st12" d="M912.1,501.1l-0.5-7.7c-0.2-3.2-3-6-6-6.3l-7.5-0.6l-10.9,0c-1.7,0-4.1,1-5.4,2.3
			l-22.6,23.5c-2,2-2,5.3,0,7.4l21,21.8c2,2,5.1,2,7.1,0l22.6-23.5c1.2-1.3,2.2-3.8,2.2-5.6L912.1,501.1z M869.7,520.8
			c-0.4,0-0.8-0.2-1.1-0.5c-0.6-0.6-0.6-1.6,0-2.2l12.6-13.1c0.6-0.6,1.5-0.6,2.1,0c0.6,0.6,0.6,1.6,0,2.2l-12.6,13.1
			C870.5,520.6,870.1,520.8,869.7,520.8z M875.1,526.5c-0.4,0-0.8-0.2-1.1-0.5c-0.6-0.6-0.6-1.6,0-2.2l9.8-10.2
			c0.6-0.6,1.5-0.6,2.1,0c0.6,0.6,0.6,1.6,0,2.2l-9.8,10.2C875.9,526.3,875.5,526.5,875.1,526.5z M894.3,518.6l-12.6,13.1
			c-0.3,0.3-0.7,0.5-1.1,0.5c-0.4,0-0.8-0.2-1.1-0.5c-0.6-0.6-0.6-1.6,0-2.2l12.6-13.1c0.6-0.6,1.5-0.6,2.1,0S894.8,518,894.3,518.6
			z M904.1,502c-1.9,2-5,2-6.8,0c-1.9-2-1.9-5.1,0-7.1c1.9-2,4.9-2,6.8,0C906,496.8,906,500,904.1,502z"/>
		<path id="XMLID_359_" class="st22" d="M912.1,501.1l-0.5-7.7c-0.2-3.2-3-6-6-6.3l-7.5-0.6l-10.9,0c-1.7,0-4.1,1-5.4,2.3
			l-22.6,23.5c-2,2-2,5.3,0,7.4l21,21.8c2,2,5.1,2,7.1,0l22.6-23.5c1.2-1.3,2.2-3.8,2.2-5.6L912.1,501.1z M869.7,520.8
			c-0.4,0-0.8-0.2-1.1-0.5c-0.6-0.6-0.6-1.6,0-2.2l12.6-13.1c0.6-0.6,1.5-0.6,2.1,0c0.6,0.6,0.6,1.6,0,2.2l-12.6,13.1
			C870.5,520.6,870.1,520.8,869.7,520.8z M875.1,526.5c-0.4,0-0.8-0.2-1.1-0.5c-0.6-0.6-0.6-1.6,0-2.2l9.8-10.2
			c0.6-0.6,1.5-0.6,2.1,0c0.6,0.6,0.6,1.6,0,2.2l-9.8,10.2C875.9,526.3,875.5,526.5,875.1,526.5z M894.3,518.6l-12.6,13.1
			c-0.3,0.3-0.7,0.5-1.1,0.5c-0.4,0-0.8-0.2-1.1-0.5c-0.6-0.6-0.6-1.6,0-2.2l12.6-13.1c0.6-0.6,1.5-0.6,2.1,0S894.8,518,894.3,518.6
			z M904.1,502c-1.9,2-5,2-6.8,0c-1.9-2-1.9-5.1,0-7.1c1.9-2,4.9-2,6.8,0C906,496.8,906,500,904.1,502z"/>
	</g>
</g>
<g id="XMLID_117_">
	
		<image style="overflow:visible;opacity:0.75;" width="348" height="334" id="XMLID_567_" xlink:href="4D556DEDF04B9D4C.png"  transform="matrix(0.24 0 0 0.24 187.4024 507.7482)">
	</image>
	<g id="XMLID_471_">
		<g id="XMLID_535_">
			<path id="XMLID_550_" class="st23" d="M244.3,530.6c0.4,0,0.7-0.3,0.7-0.8v-3.1c0-0.5-0.3-0.8-0.7-0.8s-0.7,0.3-0.7,0.8v3.1
				C243.6,530.2,243.9,530.6,244.3,530.6z"/>
			<path id="XMLID_549_" class="st23" d="M244.3,543.6c0.4,0,0.7-0.3,0.7-0.8v-3.1c0-0.5-0.3-0.8-0.7-0.8s-0.7,0.3-0.7,0.8v3.1
				C243.6,543.2,243.9,543.6,244.3,543.6z"/>
			<path id="XMLID_548_" class="st23" d="M241.9,544.3c0.4,0,0.7-0.3,0.7-0.8v-3.1c0-0.5-0.3-0.8-0.7-0.8s-0.7,0.3-0.7,0.8v3.1
				C241.2,543.9,241.5,544.3,241.9,544.3z"/>
			<path id="XMLID_547_" class="st23" d="M244.3,551.9c-0.4,0-0.7,0.3-0.7,0.8v3.1c0,0.5,0.3,0.8,0.7,0.8s0.7-0.3,0.7-0.8v-3.1
				C245,552.2,244.6,551.9,244.3,551.9z"/>
			<path id="XMLID_546_" class="st23" d="M241.9,552.6c-0.4,0-0.7,0.3-0.7,0.8v3.1c0,0.5,0.3,0.8,0.7,0.8s0.7-0.3,0.7-0.8v-3.1
				C242.7,552.9,242.3,552.6,241.9,552.6z"/>
			<path id="XMLID_545_" class="st23" d="M239.5,553.1c-0.4,0-0.7,0.3-0.7,0.8v3.1c0,0.5,0.3,0.8,0.7,0.8c0.4,0,0.7-0.3,0.7-0.8
				v-3.1C240.2,553.4,239.9,553.1,239.5,553.1z"/>
			<path id="XMLID_536_" class="st23" d="M202.9,564.7h15.6c2.1,0,3.9-1.5,4.9-3.5c1.3,0.1,2.6,0.1,3.9,0.1c7,0,20.3-1.1,20.3-5
				v-8.6c0-0.8-0.6-1.5-1.7-2.2c1.1-0.6,1.7-1.3,1.7-2.2v-8.6c0-0.8-0.6-1.5-1.7-2.2c1.1-0.6,1.7-1.3,1.7-2.2v-8.5
				c0-4-13.3-5-20.3-5c-7,0-20.3,1.1-20.3,5v8.6c0,0.8,0.6,1.6,1.7,2.2c-1.1,0.6-1.7,1.4-1.7,2.2v8.6c0,0.5,0.2,0.9,0.6,1.3
				c-2.1,1.2-3.6,3.4-3.6,5.7c0,0.2,0,0.4,0,0.6c-0.6-0.2-1.2-0.3-1.8-0.3c-3.4,0-5.8,2.9-5.8,7
				C196.4,561.6,199.4,564.7,202.9,564.7z M227.4,559.8c-1.1,0-2.3,0-3.4-0.1c0.1-0.6,0.2-1.2,0.2-1.8c0-2.1-1-4-2.3-5.3
				c1.7,0.1,3.6,0.2,5.5,0.2c5.6,0,15.3-0.7,18.9-3v6.5C246.3,557.4,239.6,559.8,227.4,559.8z M246.3,547.7c0,1.2-6.7,3.5-18.9,3.5
				c-2.7,0-5.1-0.1-7.5-0.3c0-0.2,0-0.4,0-0.5c0-0.8-0.2-1.7-0.5-2.4c2.5,0.2,5.2,0.4,7.9,0.4c4.8,0,12.4-0.5,16.8-2.1
				C245.9,546.9,246.3,547.6,246.3,547.7z M227.4,518.3c12.2,0,18.9,2.3,18.9,3.5c0,1.2-6.7,3.5-18.9,3.5c-12.2,0-18.9-2.3-18.9-3.5
				C208.5,520.6,215.2,518.3,227.4,518.3z M208.5,523.9c3.6,2.3,13.3,3,18.9,3s15.3-0.7,18.9-3v6.5c0,1.2-6.7,3.5-18.9,3.5
				c-12.2,0-18.9-2.3-18.9-3.5V523.9z M210.5,533.3c4.4,1.5,12.1,2.1,16.8,2.1c4.8,0,12.4-0.5,16.8-2.1c1.7,0.7,2.1,1.2,2.1,1.4
				c0,1.2-6.7,3.5-18.9,3.5s-18.9-2.3-18.9-3.5C208.5,534.6,208.8,534,210.5,533.3z M208.5,543.3v-6.5c3.6,2.3,13.3,3,18.9,3
				s15.3-0.7,18.9-3v6.5c0,1.2-6.7,3.5-18.9,3.5c-3.1,0-6.2-0.2-9-0.5c-1.4-1.8-3.8-2.8-6.5-2.8c-1,0-2,0.2-2.9,0.5
				C208.6,543.7,208.5,543.4,208.5,543.3z M202.2,552.2c0.9,0,1.8,0.2,2.6,0.7c0.4,0.2,0.8,0.1,1-0.3c0.1-0.3,0.1-0.7-0.1-0.9
				c-0.1-0.5-0.2-0.9-0.2-1.4c0-3,2.9-5.4,6.5-5.4s6.5,2.4,6.5,5.4c0,0.3-0.1,0.8-0.1,1.1c-0.1,0.4,0.1,0.8,0.5,0.9
				c1.9,0.6,3.9,2.9,3.9,5.5c0,3-1.8,5.4-4.2,5.4h-15.6c-2.8,0-5.1-2.4-5.1-5.5C197.8,555,199.2,552.2,202.2,552.2z"/>
		</g>
	</g>
</g>
<g id="XMLID_258_">
	
		<image style="overflow:visible;opacity:0.75;" width="301" height="291" id="XMLID_340_" xlink:href="4D556DEDF04B9D64.png"  transform="matrix(0.24 0 0 0.24 537.2622 594.1878)">
	</image>
	<g id="XMLID_309_">
		<path id="XMLID_328_" class="st13" d="M578.4,602.7c-0.4,0-0.9,0.2-1.2,0.5c-0.7,0.7-0.7,1.9,0,2.6l3.7,4h-9.3
			c-0.6,0-1.2,0.3-1.5,0.9l-11.2,19.9h-11.4c-1,0-1.7,0.8-1.7,1.9c0,1,0.8,1.9,1.7,1.9h12.4c0.6,0,1.2-0.3,1.5-0.9l11.2-19.9h8.4
			l-3.8,4.1c-0.7,0.7-0.7,1.9,0,2.6c0.3,0.4,0.8,0.5,1.2,0.5c0.4,0,0.9-0.2,1.2-0.5l6.7-7.2c0.7-0.7,0.7-1.9,0-2.6l-6.7-7.2
			C579.3,602.9,578.9,602.7,578.4,602.7z M547.5,609.8c-1,0-1.7,0.8-1.7,1.9s0.8,1.9,1.7,1.9h11.4l2.7,4.8c0.3,0.6,0.9,0.9,1.5,0.9
			c0.3,0,0.6-0.1,0.9-0.3c0.8-0.5,1.1-1.7,0.6-2.5l-3.3-5.7c-0.3-0.6-0.9-0.9-1.5-0.9H547.5L547.5,609.8z M578.4,623.4
			c-0.4,0-0.9,0.2-1.2,0.5c-0.7,0.7-0.7,1.9,0,2.6l3.8,4.1h-8.4l-2.9-4.7c-0.5-0.9-1.6-1.1-2.4-0.5c-0.8,0.6-1,1.7-0.5,2.6l3.4,5.5
			c0.3,0.5,0.9,0.8,1.5,0.8h9.3l-3.7,4c-0.7,0.7-0.7,1.9,0,2.6c0.3,0.4,0.8,0.5,1.2,0.5c0.4,0,0.9-0.2,1.2-0.5l6.7-7.2
			c0.7-0.7,0.7-1.9,0-2.6l-6.7-7.2C579.3,623.6,578.9,623.4,578.4,623.4L578.4,623.4z"/>
		<path id="XMLID_322_" class="st22" d="M578.4,602.7c-0.4,0-0.9,0.2-1.2,0.5c-0.7,0.7-0.7,1.9,0,2.6l3.7,4h-9.3
			c-0.6,0-1.2,0.3-1.5,0.9l-11.2,19.9h-11.4c-1,0-1.7,0.8-1.7,1.9c0,1,0.8,1.9,1.7,1.9h12.4c0.6,0,1.2-0.3,1.5-0.9l11.2-19.9h8.4
			l-3.8,4.1c-0.7,0.7-0.7,1.9,0,2.6c0.3,0.4,0.8,0.5,1.2,0.5c0.4,0,0.9-0.2,1.2-0.5l6.7-7.2c0.7-0.7,0.7-1.9,0-2.6l-6.7-7.2
			C579.3,602.9,578.9,602.7,578.4,602.7z M547.5,609.8c-1,0-1.7,0.8-1.7,1.9s0.8,1.9,1.7,1.9h11.4l2.7,4.8c0.3,0.6,0.9,0.9,1.5,0.9
			c0.3,0,0.6-0.1,0.9-0.3c0.8-0.5,1.1-1.7,0.6-2.5l-3.3-5.7c-0.3-0.6-0.9-0.9-1.5-0.9H547.5L547.5,609.8z M578.4,623.4
			c-0.4,0-0.9,0.2-1.2,0.5c-0.7,0.7-0.7,1.9,0,2.6l3.8,4.1h-8.4l-2.9-4.7c-0.5-0.9-1.6-1.1-2.4-0.5c-0.8,0.6-1,1.7-0.5,2.6l3.4,5.5
			c0.3,0.5,0.9,0.8,1.5,0.8h9.3l-3.7,4c-0.7,0.7-0.7,1.9,0,2.6c0.3,0.4,0.8,0.5,1.2,0.5c0.4,0,0.9-0.2,1.2-0.5l6.7-7.2
			c0.7-0.7,0.7-1.9,0-2.6l-6.7-7.2C579.3,623.6,578.9,623.4,578.4,623.4L578.4,623.4z"/>
	</g>
</g>
<g id="XMLID_259_">
	
		<image style="overflow:visible;opacity:0.75;" width="345" height="454" id="XMLID_405_" xlink:href="4D556DEDF04B9D65.png"  transform="matrix(0.24 0 0 0.24 500.1017 -5.1563)">
	</image>
	<g id="XMLID_346_">
		<g id="XMLID_393_">
			<path id="XMLID_396_" class="st24" d="M553.1,47.4L553.1,47.4l-13.9-4.1c-0.3-0.1-0.5-0.4-0.5-0.8V28.8c0-3.8-2.9-6.9-6.4-6.9
				c-3.6,0-6.4,3.1-6.4,6.9v27.7c0,0.3-0.1,0.4-0.2,0.6c-0.1,0.1-0.4,0.2-0.6,0.2c-0.2,0-0.3,0-0.5-0.2l-6.6-5.5l-0.7,1l0.7-1
				c-1-0.9-2.3-1.3-3.5-1.3c-1.5,0-2.9,0.6-4.1,1.8c-1.1,1.2-1.7,2.8-1.7,4.4c0,1.4,0.5,2.8,1.4,4l11.3,14.1c3.2,4.1,8,6.4,13,6.4
				h7.9c8.2,0,15.2-6.2,16.8-14.8l1.1-6.1c0.1-0.7,0.2-1.4,0.2-2.1C560.2,53.2,557.4,48.9,553.1,47.4z M557.7,59.6l-1.1,6.1
				c-1.4,7.4-7.4,12.8-14.5,12.8h-7.9c-4.3,0-8.4-2-11.2-5.5l-11.3-14.1c-0.5-0.7-0.8-1.5-0.8-2.4c0-0.9,0.3-1.9,1-2.6
				c0.7-0.7,1.5-1.1,2.4-1.1c0.7,0,1.5,0.2,2.1,0.8l0,0l6.6,5.5c0.6,0.5,1.2,0.7,1.9,0.7c0.8,0,1.6-0.3,2.2-0.9c0.6-0.6,1-1.5,1-2.4
				V28.8c0-1.2,0.5-2.3,1.2-3.1c0.7-0.8,1.8-1.3,2.9-1.3c1.1,0,2.2,0.5,2.9,1.3c0.7,0.8,1.2,1.9,1.2,3.1v13.7c0,1.4,0.9,2.7,2.1,3.2
				l0.1,0l13.9,4.1c3.3,1.2,5.5,4.5,5.5,8.2C557.9,58.5,557.8,59.1,557.7,59.6z"/>
			<path id="XMLID_395_" class="st24" d="M532.2,15.1c5.3,0,9.9,3.6,11.8,8.6c0.2,0.6,0.9,1,1.5,0.7c0.6-0.3,0.9-1,0.7-1.6
				c-2.2-6-7.6-10.2-14-10.2c-6.4,0-11.8,4.2-14,10.2c-0.2,0.6,0.1,1.4,0.7,1.6c0.6,0.3,1.3-0.1,1.5-0.7l0,0
				C522.2,18.6,526.8,15.1,532.2,15.1z"/>
			<path id="XMLID_394_" class="st24" d="M510.8,21c0.6,0.3,1.3-0.1,1.5-0.7l0,0c3.1-8.5,10.8-14.5,19.8-14.4c9,0,16.7,6,19.8,14.5
				c0.2,0.6,0.9,1,1.5,0.7c0.6-0.3,0.9-1,0.7-1.6c-3.5-9.4-12-16-22-16c-10,0-18.6,6.6-22,16C509.9,20,510.2,20.8,510.8,21z"/>
		</g>
	</g>
</g>
<image style="overflow:visible;opacity:0.75;" width="409" height="409" id="XMLID_384_" xlink:href="4D556DEDF04B9D66.png"  transform="matrix(0.24 0 0 0.24 749.824 29.2008)">
</image>
<g id="XMLID_334_">
	<g id="XMLID_369_">
		<path id="XMLID_373_" class="st6" d="M824.3,70.2C824.3,70.2,824.3,70.2,824.3,70.2h-30c-0.8,0-1.5-0.7-1.5-1.5v-30
			c0-0.8,0.7-1.5,1.5-1.5c8.4,0,16.3,3.3,22.3,9.2c5.9,5.9,9.2,13.7,9.2,22c0,0.1,0,0.2,0,0.3C825.8,69.5,825.2,70.2,824.3,70.2z
			 M795.8,67.2h27c-0.4-7-3.3-13.6-8.3-18.7c-5-5-11.6-7.9-18.7-8.3C795.8,40.2,795.8,67.2,795.8,67.2z"/>
		<path id="XMLID_370_" class="st6" d="M789.3,105.2c-17.4,0-31.5-14.1-31.5-31.5s14.1-31.5,31.5-31.5c0.8,0,1.5,0.7,1.5,1.5v28.5
			h28.5c0.8,0,1.5,0.7,1.5,1.5c0,8.4-3.3,16.3-9.2,22.3C805.6,101.9,797.7,105.2,789.3,105.2z M787.8,45.2c-15,0.8-27,13.2-27,28.5
			c0,15.7,12.8,28.5,28.5,28.5c7.6,0,14.8-3,20.2-8.3c5-5,7.9-11.6,8.3-18.7h-28.5c-0.8,0-1.5-0.7-1.5-1.5V45.2z"/>
	</g>
</g>
<g id="XMLID_272_">
	
		<image style="overflow:visible;opacity:0.75;" width="358" height="360" id="XMLID_414_" xlink:href="4D556DEDF04B9D63.png"  transform="matrix(0.24 0 0 0.24 141.943 251.0344)">
	</image>
	<g id="XMLID_337_">
		<g id="XMLID_391_">
			<path id="XMLID_403_" class="st25" d="M154,278.7c-2.4,2.4-3.5,5.5-3.5,8.6s1.2,6.2,3.5,8.6l2.9,2.9c0.8,0.8,2.1,0.8,2.9,0
				c0.8-0.8,0.8-2.1,0-2.9l-2.3-2.3h7.2l-0.7-0.3l-1.1-0.6v-1.2v-1.9h-8c-0.2-0.7-0.4-1.5-0.4-2.3s0.1-1.5,0.4-2.3h8v-4h-5.4
				l12.3-12.2c1.9-1.9,3.1-4.2,3.4-6.8c0.2-1.1-0.6-2.1-1.7-2.3c-1.1-0.2-2.1,0.6-2.3,1.7c-0.1,0.4-0.2,0.8-0.3,1.3l-12.6-0.1
				c-0.1-0.2-0.2-0.2-0.3-0.4c0.3-1.5-0.9-2.7-2.3-2.5c-1.1,0.2-1.9,1.2-1.7,2.3c0.4,2.6,1.6,5,3.4,6.8l1.4,1.4
				c0.8,0.8,2.1,0.8,2.9,0c0.8-0.8,0.8-2.1,0-2.9l-0.8-0.8l7.2,0.1L154,278.7z"/>
			<path id="XMLID_402_" class="st25" d="M169.7,305.8l-1.4-1.4c-0.8-0.8-2.1-0.8-2.9,0c-0.8,0.8-0.8,2.1,0,2.9l0.8,0.8h-7.4
				l11.6-11.6l-3.8-1.9l-1.2,1.2l-10,10c-1.9,1.9-3.1,4.2-3.4,6.8c-0.2,1.1,0.6,2.1,1.7,2.3c0.7,0.1,1.3-0.1,1.7-0.6
				c0.5-0.5,0.7-1.1,0.5-1.9c0.1-0.2,0.2-0.2,0.3-0.4h12.6c0.1,0.2,0.2,0.2,0.3,0.4c-0.3,1.5,0.9,2.6,2.3,2.5
				c0.5-0.1,0.8-0.3,1.1-0.6c0.4-0.4,0.7-1.1,0.6-1.7C172.7,310,171.6,307.6,169.7,305.8z"/>
			<path id="XMLID_392_" class="st25" d="M194.1,272.3L185,277l-9.1-4.7l-11.1,5.7v13.3l9.2,4.6v11.4l11,5.5l11-5.4V296l9.2-4.4
				v-13.8L194.1,272.3z M192.3,305.2l-7.3,3.7l-7.3-3.7v-9l7.3-3.8l7.3,3.8V305.2z M201.5,289.2l-7.3,3.7l-7.3-3.7v-9l7.3-3.8
				l7.3,3.8V289.2z"/>
		</g>
	</g>
</g>
<g id="XMLID_501_">
	<path id="XMLID_506_" class="st0" d="M1327.7,202.5c0,22.1-17.9,40-40,40h-113.2c-22.1,0-40-17.9-40-40v-12.8c0-22.1,17.9-40,40-40
		h113.2c22.1,0,40,17.9,40,40V202.5z"/>
	<g id="XMLID_502_">
		<text id="XMLID_505_" transform="matrix(1 0 0 1 1186.0679 182.6279)" class="st1 st2 st3">STEP 01</text>
		<rect id="XMLID_191_" x="1186.1" y="187.1" class="st4" width="141.6" height="35.9"/>
		<text id="XMLID_503_" transform="matrix(1 0 0 1 1186.0679 198.5586)" class="st5 st2 st3">Submit raw reads</text>
	</g>
</g>
<g id="XMLID_476_">
	
		<image style="overflow:visible;opacity:0.64;" width="386" height="2213" id="XMLID_301_" xlink:href="4D556DEDF04B9D48.png"  transform="matrix(0.24 0 0 0.24 1090.1923 94.0621)">
	</image>
	<g id="XMLID_294_">
		<path id="XMLID_300_" class="st26" d="M1136.5,604.4c-14.8,0-26.9-12-26.9-26.9V139c0-14.8,12-26.9,26.9-26.9l0,0
			c14.8,0,26.9,12,26.9,26.9v438.4C1163.3,592.3,1151.3,604.4,1136.5,604.4L1136.5,604.4z"/>
	</g>
</g>
<rect id="XMLID_475_" x="1124.2" y="252.1" class="st27" width="24.6" height="106.2"/>
<rect id="XMLID_474_" x="1124.2" y="358.3" class="st28" width="24.6" height="106.2"/>
<path id="XMLID_438_" class="st1" d="M1148.8,146v-4.2c0-6.8-5.5-12.3-12.3-12.3c-6.8,0-12.3,5.5-12.3,12.3v4.2v57.5v48.7h24.6V146z
	"/>
<path id="XMLID_437_" class="st29" d="M1148.8,574.8v-4.2V464.4h-24.6v65.1v41.1v4.2c0,6.8,5.5,12.3,12.3,12.3
	C1143.3,587.1,1148.8,581.6,1148.8,574.8z"/>
<g id="XMLID_407_">
	
		<image style="overflow:visible;opacity:0.64;" width="439" height="439" id="XMLID_477_" xlink:href="4D556DEDF04B9D51.png"  transform="matrix(0.24 0 0 0.24 1081.847 144.4445)">
	</image>
	<g id="XMLID_360_">
		<g id="XMLID_423_">
			<circle id="XMLID_428_" class="st26" cx="1134.5" cy="196.2" r="38.1"/>
			<circle id="XMLID_427_" class="st1" cx="1134.5" cy="196.2" r="32.3"/>
			<g id="XMLID_424_">
				<circle id="XMLID_426_" class="st26" cx="1134.5" cy="183.3" r="7.7"/>
				<path id="XMLID_425_" class="st26" d="M1149.8,211.2v-2.4c0-8.4-6.8-15.2-15.2-15.2c-8.4,0-15.2,6.8-15.2,15.2v2.4H1149.8z"/>
			</g>
		</g>
	</g>
</g>
<g id="XMLID_341_">
	
		<image style="overflow:visible;opacity:0.64;" width="439" height="439" id="XMLID_481_" xlink:href="4D556DEDF04B9D52.png"  transform="matrix(0.24 0 0 0.24 1083.807 253.4875)">
	</image>
	<g id="XMLID_390_">
		<g id="XMLID_439_">
			<circle id="XMLID_473_" class="st26" cx="1136.5" cy="305.2" r="38.1"/>
			<circle id="XMLID_472_" class="st27" cx="1136.5" cy="305.2" r="32.3"/>
			<g id="XMLID_440_">
				<path id="XMLID_441_" class="st26" d="M1145.4,292.9c-3.1-6.4-10.8-9-17.2-5.9c-6.4,3.1-9,10.8-5.9,17.2
					c2.6,5.4,8.5,8.1,14.1,6.9l5.8,11.8c0.8,1.6,2.7,2.2,4.3,1.5c1.6-0.8,2.2-2.7,1.5-4.3l-5.8-11.8
					C1146.5,304.6,1148,298.2,1145.4,292.9z M1137.5,306c-4.1,2-9.2,0.3-11.2-3.8c-2-4.1-0.3-9.2,3.8-11.2c4.1-2,9.2-0.3,11.2,3.8
					C1143.4,299,1141.7,304,1137.5,306z"/>
			</g>
		</g>
	</g>
</g>
<g id="XMLID_299_">
	
		<image style="overflow:visible;opacity:0.64;" width="439" height="439" id="XMLID_470_" xlink:href="4D556DEDF04B9D53.png"  transform="matrix(0.24 0 0 0.24 1081.9995 367.0846)">
	</image>
	<g id="XMLID_380_">
		<g id="XMLID_430_">
			<circle id="XMLID_436_" class="st26" cx="1134.7" cy="418.8" r="38.1"/>
			<circle id="XMLID_435_" class="st29" cx="1134.7" cy="418.8" r="32.3"/>
			<g id="XMLID_431_">
				<path id="XMLID_432_" class="st26" d="M1117.1,404.6l0.9,4l-1.4,0.3c-0.5,0.1-0.8,0.6-0.7,1.1c0.1,0.5,0.6,0.8,1.1,0.7l1.4-0.3
					l0.6,2.5l-1.4,0.3c-0.5,0.1-0.8,0.6-0.7,1.1c0.1,0.5,0.6,0.8,1.1,0.7l1.4-0.3l0.6,2.5l-1.4,0.3c-0.5,0.1-0.8,0.6-0.7,1.1
					c0.1,0.5,0.6,0.8,1.1,0.7l1.4-0.3l0.6,2.5l-1.4,0.3c-0.5,0.1-0.8,0.6-0.7,1.1c0.1,0.5,0.6,0.8,1.1,0.7l1.4-0.3l0.6,2.5l-1.4,0.3
					c-0.5,0.1-0.8,0.6-0.7,1.1c0.1,0.5,0.6,0.8,1.1,0.7l1.4-0.3l0.6,2.5l-1.4,0.3c-0.5,0.1-0.8,0.6-0.7,1.1c0.1,0.5,0.6,0.8,1.1,0.7
					l1.4-0.3l0.6,2.5l-1.4,0.3c-0.5,0.1-0.8,0.6-0.7,1.1c0.1,0.5,0.6,0.8,1.1,0.7l1.4-0.3l0.9,4l28-6.4l-8-34.9L1117.1,404.6z
					 M1150.3,431.3l-23.4,5.4l-0.4-1.7l1.4-0.3c0.5-0.1,0.8-0.6,0.7-1.1c-0.1-0.5-0.6-0.8-1.1-0.7l-1.4,0.3l-0.6-2.5l1.4-0.3
					c0.5-0.1,0.8-0.6,0.7-1.1c-0.1-0.5-0.6-0.8-1.1-0.7l-1.4,0.3l-0.6-2.5l1.4-0.3c0.5-0.1,0.8-0.6,0.7-1.1
					c-0.1-0.5-0.6-0.8-1.1-0.7l-1.4,0.3l-0.6-2.5l1.4-0.3c0.5-0.1,0.8-0.6,0.7-1.1c-0.1-0.5-0.6-0.8-1.1-0.7l-1.4,0.3l-0.6-2.5
					l1.4-0.3c0.5-0.1,0.8-0.6,0.7-1.1c-0.1-0.5-0.6-0.8-1.1-0.7l-1.4,0.3l-0.6-2.5l1.4-0.3c0.5-0.1,0.8-0.6,0.7-1.1
					c-0.1-0.5-0.6-0.8-1.1-0.7l-1.4,0.3l-0.6-2.5l1.4-0.3c0.5-0.1,0.8-0.6,0.7-1.1c-0.1-0.5-0.6-0.8-1.1-0.7l-1.4,0.3l-0.4-1.7
					l23.4-5.4L1150.3,431.3z"/>
			</g>
		</g>
	</g>
</g>
<g id="XMLID_223_">
	
		<image style="overflow:visible;opacity:0.64;" width="439" height="439" id="XMLID_364_" xlink:href="4D556DEDF04B9D54.png"  transform="matrix(0.24 0 0 0.24 1086.5382 469.4483)">
	</image>
	<g id="XMLID_323_">
		<g id="XMLID_355_">
			<circle id="XMLID_358_" class="st26" cx="1139.2" cy="521.2" r="38.1"/>
			<circle id="XMLID_357_" class="st28" cx="1139.2" cy="521.2" r="32.3"/>
			<path id="XMLID_356_" class="st26" d="M1154.8,503.5c-0.4,0.2-0.7,0.4-1.1,0.6c-0.4,0.2-0.7,0.4-1,0.7c-0.7,0.5-1.3,0.9-2,1.4
				c-0.6,0.5-1.2,1-1.9,1.5c-0.6,0.5-1.2,1-1.8,1.5c-1.2,1-2.3,2.1-3.3,3.2c-0.5,0.6-1.1,1.1-1.6,1.7c-0.5,0.6-1,1.1-1.5,1.7
				l-1.5,1.8l-1.4,1.8c-0.5,0.6-0.9,1.2-1.4,1.8c-0.4,0.6-0.9,1.2-1.3,1.9l-1.3,1.9l-1,1.5c0,0,0,0,0,0c-0.6-0.4-1.1-0.9-1.7-1.3
				c-0.6-0.4-1.1-0.8-1.7-1.2c-0.6-0.4-1.2-0.8-1.8-1.2c-0.6-0.4-1.3-0.7-1.9-1.1c-0.3-0.2-0.6-0.4-1-0.5c-0.3-0.2-0.7-0.3-1-0.5
				l-0.4,0.4c1.7,2.1,3.4,4.3,5.1,6.4l2.3,2.8c-0.1,0.2,0.5,0.6,0.5,0.6l2.4,3l0.4,0.5l0.4-0.5l2.3-3.2c0,0,0.5-0.3,0.3-0.5l2.7-3.8
				c0.9-1.2,1.7-2.5,2.6-3.7l2.6-3.7l5.2-7.5c1.8-2.5,3.4-5,5.1-7.5L1154.8,503.5z"/>
		</g>
	</g>
</g>
</svg>
