<?xml version="1.0" encoding="utf-8"?>
<!-- Generator: Adobe Illustrator 19.0.0, SVG Export Plug-In . SVG Version: 6.00 Build 0)  -->
<svg version="1.1" id="Layer_1" xmlns="http://www.w3.org/2000/svg" xmlns:xlink="http://www.w3.org/1999/xlink" x="0px" y="0px"
	 viewBox="0 0 3923.1 1991.7" style="enable-background:new 0 0 3923.1 1991.7;" xml:space="preserve">
<style type="text/css">
	.st0{font-family:'Arial-BoldMT';}
	.st1{font-size:48px;}
	.st2{fill:#FFFFFF;}
	.st3{font-family:'MyriadPro-Regular';}
	.st4{font-size:36px;}
</style>
<g id="tnQK8B.tif">
	
		<image style="overflow:visible;" width="1417" height="1574" id="Layer_0_1_" xlink:href="7754E1F305661B71.png"  transform="matrix(1 0 0 1 17 0)">
	</image>
</g>
<g id="qRDu4L.tif">
	
		<image style="overflow:visible;" width="1417" height="1574" id="Layer_0_3_" xlink:href="7754E1F305661B73.png"  transform="matrix(1 0 0 1 1007.6229 0)">
	</image>
</g>
<text transform="matrix(1 0 0 1 173.2327 1453.4343)" class="st0 st1">A) Permisive parameters</text>
<text transform="matrix(1 0 0 1 1126.8578 1452.4342)" class="st0 st1">B) Intermediate parameters</text>
<rect x="343.5" y="31.2" class="st2" width="176.1" height="78.6"/>
<rect x="1333.3" y="31.2" class="st2" width="176.1" height="78.6"/>
<rect x="2284.2" y="31.2" class="st2" width="176.1" height="78.6"/>
<rect x="601.9" y="372.1" class="st2" width="176.1" height="126.4"/>
<rect x="1593.8" y="383.3" class="st2" width="176.1" height="126.4"/>
<rect x="2533.8" y="383.3" class="st2" width="176.1" height="126.4"/>
<g id="_x32_riUqm.tif">
	
		<image style="overflow:visible;" width="1417" height="1574" id="Layer_0_4_" xlink:href="7754E1F305661B76.png"  transform="matrix(1 0 0 1 1961.5391 0)">
	</image>
</g>
<g id="PNQQ6l.tif">
	
		<image style="overflow:visible;" width="1417" height="1574" id="Layer_0_2_" xlink:href="7754E1F305661B77.png"  transform="matrix(1 0 0 1 2942.0432 0)">
	</image>
</g>
<text transform="matrix(1 0 0 1 2165.1401 1454.434)" class="st0 st1">C) Acceptable parameters</text>
<text transform="matrix(1 0 0 1 3057.9531 1454.4343)" class="st0 st1">D) Default parameters </text>
<rect x="2284.2" y="31.2" class="st2" width="176.1" height="78.6"/>
<rect x="3269" y="31.2" class="st2" width="176.1" height="78.6"/>
<text transform="matrix(1 0 0 1 173.2327 1574)"><tspan x="0" y="0" class="st3 st1">evalue  &lt;= 1e-5</tspan><tspan x="0" y="57.6" class="st3 st1">Bitscore &gt; 10 bits</tspan><tspan x="0" y="115.2" class="st3 st1">Coverage &gt; 10%</tspan></text>
<text transform="matrix(1 0 0 1 1126.8575 1574.0001)"><tspan x="0" y="0" class="st3 st1">evalue  &lt;= 1e-5</tspan><tspan x="0" y="57.6" class="st3 st1">Bitscore &gt; 50 bits</tspan><tspan x="0" y="115.2" class="st3 st1">Coverage &gt; 20%</tspan></text>
<text transform="matrix(1 0 0 1 2165.1396 1574.0002)"><tspan x="0" y="0" class="st3 st1">evalue  &lt;= 1e-5</tspan><tspan x="0" y="57.6" class="st3 st1">Bitscore &gt; 50 bits</tspan><tspan x="0" y="115.2" class="st3 st1">Coverage &gt; 40%</tspan></text>
<text transform="matrix(1 0 0 1 3057.9536 1573.9998)"><tspan x="0" y="0" class="st3 st1">evalue  &lt;= 1e-5</tspan><tspan x="0" y="57.6" class="st3 st1">Bitscore &gt; 50 bits</tspan><tspan x="0" y="115.2" class="st3 st1">Coverage &gt; 50%</tspan></text>
<text transform="matrix(1 0 0 1 104.9658 1339.0789)" class="st0 st4">Samples</text>
<text transform="matrix(1 0 0 1 590.3116 498.4932)" class="st0 st4">ARG categories</text>
</svg>
