
<svg  version="1.1" id="Content" xmlns="http://www.w3.org/2000/svg" 
	xmlns:xlink="http://www.w3.org/1999/xlink" x="0px" y="0px"
	viewBox="0 0 1134.3 540" style="enable-background:new 0 0 1134.3 540;" xml:space="preserve">

<style type="text/css">
	.st0{fill:#15A0C1;} 
	.st1{fill:#5159AC;}
	.st2{fill:#3B7036;}
	.st3{fill:#08AD4B;}
	.st4{fill:#DE1F2D;}
	.st5{fill:#FFFFFF;}
	.st6{font-family:'ShreeDev0714-Bold';}
	.st7{font-size:21px;}
	.st8{fill:#FFFFFF;stroke:#FFFFFF;stroke-width:3;stroke-miterlimit:10;}
	.st9{font-size:16px;}
</style>


<g>
	
	<image style="overflow:visible;opacity:0.75;" width="4343" height="651" xlink:href="51601926A7ACC614.png"  transform="matrix(0.24 0 0 0.24 65 203.5327)">
	</image>
	<g>
		<g>
			<path class="st0" d="M462.2,285.6c-21.9-21.9-51.1-34-82.1-34c-31,0-60.1,12.1-82.1,34l-28.3-28.3
				c29.5-29.5,68.7-45.7,110.4-45.7c41.7,0,80.9,16.2,110.4,45.7L462.2,285.6z"/>
			<path class="st1" d="M181.8,335.3c-41.1,0-79.7-16-108.8-45.1l25.1-25.1c46.1,46.1,121.2,46.1,167.4,0l25.1,25.1
				C261.5,319.3,222.8,335.3,181.8,335.3z"/>
			<path class="st2" d="M577.8,337.5c-41.7,0-80.9-16.2-110.4-45.7l28.3-28.3c45.3,45.3,118.9,45.3,164.2,0l28.3,28.3
				C658.6,321.3,619.4,337.5,577.8,337.5z"/>
			<path class="st3" d="M857.2,285.6c-21.9-21.9-51.1-34-82.1-34c-31,0-60.1,12.1-82.1,34l-28.3-28.3
				c29.5-29.5,68.7-45.7,110.4-45.7c41.7,0,80.9,16.2,110.4,45.7L857.2,285.6z"/>
			<path class="st4" d="M974.7,337.2c-41.7,0-80.9-16.2-110.4-45.7l28.3-28.3c45.3,45.3,118.9,45.3,164.2,0l28.3,28.3
				C1055.6,321,1016.4,337.2,974.7,337.2z"/>
		</g>
	</g>
</g>
<g>
	
		<image style="overflow:visible;opacity:0.75;" width="895" height="895" xlink:href="51601926A7ACC615.png"  transform="matrix(0.24 0 0 0.24 79.359 75.0181)">
	</image>
	<g>
		<circle class="st1" cx="179.7" cy="175.3" r="92.3"/>
	</g>
</g>
<g>
	
		<image style="overflow:visible;opacity:0.75;" width="895" height="895" xlink:href="51601926A7ACC613.png"  transform="matrix(0.24 0 0 0.24 476.1082 75.0181)">
	</image>
	<g>
		<circle class="st2" cx="576.4" cy="175.3" r="92.3"/>
	</g>
</g>
<g>
	
		<image style="overflow:visible;opacity:0.75;" width="895" height="895" xlink:href="51601926A7ACC61C.png"  transform="matrix(0.24 0 0 0.24 279.2636 279.4238)">
	</image>
	<g>
		<circle class="st0" cx="379.6" cy="379.7" r="92.3"/>
	</g>
</g>
<g>
	
		<image style="overflow:visible;opacity:0.75;" width="895" height="895" xlink:href="51601926A7ACC61F.png"  transform="matrix(0.24 0 0 0.24 675.617 279.4238)">
	</image>
	<g>
		<circle class="st3" cx="775.9" cy="379.7" r="92.3"/>
	</g>
</g>
<g>
	
		<image style="overflow:visible;opacity:0.75;" width="434" height="330" xlink:href="51601926A7ACC61D.png"  transform="matrix(0.24 0 0 0.24 531.376 120.1959)">
	</image>
	<g>
		<g>
			<rect x="542.9" y="174" class="st5" width="67.8" height="3.3"/>
			<polygon class="st5" points="605.6,130.1 606.8,131.8 583.9,147.5 570.3,128.2 539.4,149.7 539.4,153.2 569.6,132.1 583.3,151.3 
				608.4,134.1 609.5,135.7 613.5,128.7 			"/>
			<polygon class="st5" points="543.4,171.3 554.7,171.3 554.7,144.9 543.4,153 			"/>
			<polygon class="st5" points="607.8,137.8 597.7,145 597.7,171.3 609,171.3 609,139.5 			"/>
			<polygon class="st5" points="584.1,153.8 584.1,171.3 595.4,171.3 595.4,145.8 584.2,153.7 			"/>
			<polygon class="st5" points="557,144.1 557,171.3 568.3,171.3 568.3,136 			"/>
			<polygon class="st5" points="570.6,137.6 570.6,171.3 581.9,171.3 581.9,154 			"/>
		</g>
	</g>
</g>
<g>
	
		<image style="overflow:visible;opacity:0.75;" width="355" height="355" xlink:href="51601926A7ACC612.png"  transform="matrix(0.24 0 0 0.24 740.3329 319.9866)">
	</image>
	<g>
		<g>
			<polygon class="st5" points="754.9,376.6 754.9,328 752.7,328 752.7,332.8 748.3,332.8 748.3,335 752.7,335 752.7,341.5 
				748.3,341.5 748.3,343.7 752.7,343.7 752.7,350.3 748.3,350.3 748.3,352.5 752.7,352.5 752.7,359.1 748.3,359.1 748.3,361.3 
				752.7,361.3 752.7,367.8 748.3,367.8 748.3,370 752.7,370 752.7,376.6 748.3,376.6 748.3,378.8 752.7,378.8 752.7,383.2 
				754.9,383.2 754.9,378.8 761.5,378.8 761.5,383.2 763.7,383.2 763.7,378.8 770.2,378.8 770.2,383.2 772.5,383.2 772.5,378.8 
				779,378.8 779,383.2 781.2,383.2 781.2,378.8 787.8,378.8 787.8,383.2 790,383.2 790,378.8 796.5,378.8 796.5,383.2 798.8,383.2 
				798.8,378.8 803.5,378.8 803.5,376.6 			"/>
			<path class="st5" d="M798.2,362.2c-0.3-0.1-0.6-0.1-0.9-0.1c-1.8,0-3.3,1.5-3.3,3.3c0,0.4,0.1,0.7,0.2,1l-3.1,1.8
				c-0.6-0.7-1.5-1.1-2.5-1.1c-0.4,0-0.7,0.1-1,0.2L772.3,340c0.7-0.6,1.1-1.5,1.1-2.5c0-1.8-1.5-3.3-3.3-3.3
				c-1.8,0-3.3,1.5-3.3,3.3c0,0.4,0.1,0.7,0.2,1l-7.1,4.1l0.7,1.1l7.1-4.1c0.6,0.7,1.5,1.1,2.5,1.1c0.4,0,0.7-0.1,1-0.2l15.3,27.2
				c-0.7,0.6-1.2,1.5-1.2,2.5c0,1.8,1.5,3.3,3.3,3.3c1.8,0,3.3-1.5,3.3-3.3c0-0.4-0.1-0.7-0.2-1l3.1-1.8c0.6,0.7,1.5,1.1,2.5,1.1
				c1.8,0,3.3-1.5,3.3-3.3c0-1-0.5-2-1.2-2.6l2.5-4.8l-1.2-0.6L798.2,362.2z"/>
			<path class="st5" d="M790.4,343.8c0.4,0.2,0.9,0.3,1.5,0.3c1,0,1.9-0.5,2.5-1.2l5.9,3.2l0.6-1.2l-5.9-3.2c0.1-0.3,0.1-0.6,0.1-1
				c0-1.8-1.5-3.3-3.3-3.3c-1.8,0-3.3,1.5-3.3,3.3c0,0.8,0.3,1.6,0.8,2.2l-8,10.4l0.7,1.3L790.4,343.8z"/>
			<path class="st5" d="M776.3,359.8c-0.4-0.2-0.9-0.3-1.5-0.3c-0.7,0-1.4,0.2-2,0.7l-6.5-5.8c0.3-0.5,0.5-1.1,0.5-1.7
				c0-1.8-1.5-3.3-3.3-3.3c-1.8,0-3.3,1.5-3.3,3.3c0,0.8,0.3,1.5,0.7,2l-3.8,4.4l1,0.9l3.8-4.3c0.5,0.3,1,0.4,1.6,0.4
				c0.7,0,1.4-0.2,2-0.7l6.5,5.8c-0.3,0.5-0.5,1.1-0.5,1.7c0,1.8,1.5,3.3,3.3,3.3c1.8,0,3.3-1.5,3.3-3.3c0-0.8-0.3-1.6-0.8-2.2
				l2-2.6l-0.7-1.3L776.3,359.8z"/>
		</g>
	</g>
</g>
<g>
	
		<image style="overflow:visible;opacity:0.75;" width="549" height="247" xlink:href="51601926A7ACC616.png"  transform="matrix(0.24 0 0 0.24 123.1089 362.2881)">
	</image>
	<g >
		<text transform="matrix(1 0 0 1 131.109 388.7184)" class="st6 st7">MetaStorm</text>
	</g>
</g>
<g>
	
		<image style="overflow:visible;opacity:0.75;" width="501" height="247" xlink:href="51601926A7ACC617.png"  transform="matrix(0.24 0 0 0.24 316.2925 103.6777)">
	</image>
	<g>
		<text transform="matrix(1 0 0 1 324.2926 130.1085)" class="st6 st7">DeepARG</text>
	</g>
</g>
<g>
	
		<image style="overflow:visible;opacity:0.75;" width="511" height="247" xlink:href="C2E3A2963BF8A133.png"  transform="matrix(0.24 0 0 0.24 518.0781 362.2871)">
	</image>
	<g>
		<text transform="matrix(1 0 0 1 526.0782 388.7181)" class="st6 st7">ARGpedia</text>
	</g>
</g>
<g>
	
		<image style="overflow:visible;opacity:0.75;" width="474" height="247" xlink:href="C2E3A2963BF8A131.png"  transform="matrix(0.24 0 0 0.24 719.2646 103.6777)">
	</image>
	<g>
		<text transform="matrix(1 0 0 1 727.2646 130.1086)" class="st6 st7">ARG-fast</text>
	</g>
</g>
<g>
	
		<image style="overflow:visible;opacity:0.75;" width="512" height="247" xlink:href="C2E3A2963BF8A137.png"  transform="matrix(0.24 0 0 0.24 920.9238 362.2871)">
	</image>
	<g>
		<text transform="matrix(1 0 0 1 928.9236 388.7181)" class="st6 st7">Nanopore </text>
	</g>
</g>
<g>
	
		<image style="overflow:visible;opacity:0.75;" width="895" height="895" xlink:href="C2E3A2963BF8A132.png"  transform="matrix(0.24 0 0 0.24 872.5398 80.6985)">
	</image>
	<g>
		<circle class="st4" cx="972.9" cy="181" r="92.3"/>
	</g>
</g>
<g>
	
		<image style="overflow:visible;opacity:0.75;" width="456" height="456" xlink:href="C2E3A2963BF8A12D.png"  transform="matrix(0.24 0 0 0.24 131.995 96.2149)">
	</image>
	<g>
		<g>
			<g>
				<g>
					<path class="st5" d="M163.3,183.6L163.3,183.6c-2.2,0-3.9-1.7-4-3.9c0-1,0.4-2,1.1-2.8c0.7-0.8,1.7-1.2,2.8-1.2
						c5.8-0.1,9.7-1.4,11.9-4c3.9-4.7,2.9-13.7,1.1-24.3c-4.9-0.8-9.9-1.6-14.2-1.6c-4.7,0-8,0.9-10.1,2.7c-2.6,2.2-4,6.1-4,11.9
						c0,2.1-1.8,3.9-3.9,3.9c-1.1,0-2.1-0.4-2.8-1.2c-0.7-0.8-1.1-1.7-1.1-2.8c0.1-8.2,2.4-14.1,6.9-17.8c3.6-3,8.6-4.5,15.2-4.5
						c4.1,0,8.5,0.6,12.8,1.2c-1.6-10.5-2.4-21,3.2-27.9c3.7-4.5,9.4-6.8,17.5-7.1c0,0,0.1,0,0.1,0c2.1,0,3.9,1.7,3.9,3.8
						c0.1,2.2-1.6,4-3.8,4c-5.7,0.2-9.5,1.5-11.7,4.2c-3.9,4.7-2.8,14.2-1.1,24.3c4.8,0.8,9.8,1.5,14.1,1.5c4.7,0,8-0.9,10.2-2.7
						c2.7-2.2,4-6,4.2-11.7c0.1-2.1,1.8-3.8,3.9-3.8c1.1,0,2.1,0.5,2.8,1.2c0.7,0.8,1.1,1.8,1.1,2.8c-0.2,8.1-2.5,13.8-7.1,17.5
						c-3.6,3-8.6,4.4-15.2,4.4c0,0,0,0,0,0c-4.1,0-8.5-0.6-12.7-1.2c1.7,10.5,2.5,21.1-3.2,28C177.4,181.2,171.6,183.5,163.3,183.6
						C163.3,183.6,163.3,183.6,163.3,183.6z M162,143c4.8,0,10.4,0.9,15.7,1.8c0.6,0.1,1.1,0.6,1.2,1.2c2,11.7,3.2,21.9-1.5,27.6
						c-2.8,3.3-7.3,5-14,5.1c-0.3,0-0.6,0.1-0.8,0.3c-0.2,0.2-0.3,0.5-0.3,0.8c0,0.6,0.5,1.1,1.1,1.1l0,1.4l0-1.4
						c7.4-0.1,12.5-2,15.7-5.9c5.3-6.4,4-17.1,2.3-27.6c-0.1-0.4,0.1-0.9,0.4-1.2c0.3-0.3,0.8-0.5,1.2-0.4c4.7,0.8,9.7,1.5,14.2,1.5
						c5.9,0,10.3-1.2,13.4-3.8c3.8-3.1,5.8-8.2,6-15.4c0-0.3-0.1-0.6-0.3-0.8c-0.2-0.2-0.5-0.3-0.8-0.3c-0.6,0-1.1,0.5-1.1,1
						c-0.2,6.6-1.9,11.1-5.2,13.8c-2.7,2.2-6.7,3.3-12,3.3c-4.8,0-10.3-0.9-15.6-1.7c-0.6-0.1-1.1-0.6-1.2-1.2
						c-2-11.7-3.2-21.8,1.6-27.6c2.7-3.3,7.2-5,13.8-5.2c0.6,0,1.1-0.5,1.1-1.1c0-0.6-0.5-1.1-1.1-1.1c-7.3,0.2-12.3,2.2-15.4,6
						c-5.3,6.4-4,17.2-2.3,27.6c0.1,0.5-0.1,0.9-0.4,1.2c-0.3,0.3-0.8,0.5-1.2,0.4c-4.7-0.8-9.7-1.5-14.3-1.5
						c-5.9,0-10.3,1.2-13.3,3.8c-3.8,3.2-5.7,8.3-5.9,15.7c0,0.3,0.1,0.6,0.3,0.8c0.2,0.2,0.5,0.3,0.8,0.3c0.6,0,1.1-0.5,1.1-1.1
						c0.1-6.7,1.8-11.3,5.1-14C152.7,144.1,156.7,143,162,143z"/>
				</g>
			</g>
			<g>
				<g>
					<g>
						<path class="st5" d="M204.4,130.3c-0.5,0-1-0.2-1.4-0.6l-15.9-15.9c-0.8-0.8-0.8-2,0-2.8c0.8-0.8,2-0.8,2.8,0l15.9,15.9
							c0.8,0.8,0.8,2,0,2.8C205.4,130.1,204.9,130.3,204.4,130.3z"/>
					</g>
				</g>
				<g>
					<g>
						<path class="st5" d="M211,136.9c-0.5,0-1-0.2-1.4-0.6l-2.3-2.3c-0.8-0.8-0.8-2,0-2.8c0.8-0.8,2-0.8,2.8,0l2.3,2.3
							c0.8,0.8,0.8,2,0,2.8C212.1,136.8,211.5,136.9,211,136.9z"/>
					</g>
				</g>
			</g>
			<g>
				<g>
					<g>
						<path class="st5" d="M205.1,143.3c-0.5,0-1-0.2-1.4-0.6l-16-16c-0.8-0.8-0.8-2,0-2.8c0.8-0.8,2-0.8,2.8,0l16,16
							c0.8,0.8,0.8,2,0,2.8C206.1,143.1,205.6,143.3,205.1,143.3z"/>
					</g>
				</g>
				<g>
					<g>
						<path class="st5" d="M184.6,122.8c-0.5,0-1-0.2-1.4-0.6l-2.1-2.1c-0.8-0.8-0.8-2,0-2.8c0.8-0.8,2-0.8,2.8,0l2.1,2.1
							c0.8,0.8,0.8,2,0,2.8C185.6,122.6,185.1,122.8,184.6,122.8z"/>
					</g>
				</g>
			</g>
			<g>
				<g>
					<g>
						<path class="st5" d="M189.1,139.7c-0.5,0-1-0.2-1.4-0.6l-8.3-8.4c-0.8-0.8-0.8-2.1,0-2.8c0.8-0.8,0.9-2,1.6-1.2l9.5,9.6
							c0.8,0.8,0.8,2.1,0,2.8C190.2,139.5,189.6,139.7,189.1,139.7z"/>
					</g>
				</g>
				<g>
					<g>
						<path class="st5" d="M194,144.7c-0.6,0-1.2-0.3-1.6-0.8l-0.2-0.3c-0.7-0.9-0.5-2.1,0.4-2.8c0.9-0.7,2.1-0.5,2.8,0.4l1.7,2.1
							c0.7,0.9-1,0.3-1.8,1C194.9,144.5,194.5,144.7,194,144.7z"/>
					</g>
				</g>
			</g>
			<g>
				<g>
					<g>
						<path class="st5" d="M170.6,177.1c-0.5,0-1-0.2-1.4-0.6l-15.8-15.8c-0.8-0.8-0.8-2,0-2.8c0.8-0.8,2-0.8,2.8,0l15.8,15.8
							c0.8,0.8,0.8,2,0,2.8C171.6,176.9,171.1,177.1,170.6,177.1z"/>
					</g>
				</g>
				<g>
					<g>
						<path class="st5" d="M150.5,157c-0.5,0-1-0.2-1.4-0.6l-2.2-2.2c-0.8-0.8-0.8-2,0-2.8c0.8-0.8,2-0.8,2.8,0l2.2,2.2
							c0.8,0.8,0.8,2,0,2.8C151.5,156.8,151,157,150.5,157z"/>
					</g>
				</g>
			</g>
			<g>
				<g>
					<g>
						<path class="st5" d="M170.1,164.3c-0.5,0-1-0.2-1.4-0.6l-15.9-15.9c-0.8-0.8-0.8-2,0-2.8c0.8-0.8,2-0.8,2.8,0l15.9,15.9
							c0.8,0.8,0.8,2,0,2.8C171.1,164.1,170.6,164.3,170.1,164.3z"/>
					</g>
				</g>
				<g>
					<g>
						<path class="st5" d="M177.1,171.4c-0.5,0-1-0.2-1.4-0.6l-2.6-2.6c-0.8-0.8-0.8-2,0-2.8c0.8-0.8,2-0.8,2.8,0l2.6,2.6
							c0.8,0.8,0.8,2,0,2.8C178.2,171.2,177.7,171.4,177.1,171.4z"/>
					</g>
				</g>
			</g>
			<g>
				<g>
					<g>
						<path class="st5" d="M179.7,161.8c-0.5,0-1.5-1-1.9-1.4l-9.1-9.1c-0.8-0.8-0.8-2,0-2.8c0.8-0.8,2-0.8,2.8,0l8.2,8.2
							c0.8,0.8,0.8,2,0,2.8C179.3,159.9,180.2,161.8,179.7,161.8z"/>
					</g>
				</g>
				<g>
					<g>
						<path class="st5" d="M165.4,147.2c-0.5,0-1-0.2-1.4-0.6c-0.4-0.4-1.2-1.5-1.2-2c0-0.5,0.9-0.5,1.2-0.8c0.8-0.8,2.1-0.7,2.8,0
							c0.4,0.4,0.6,0.9,0.6,1.4c0,0.5-0.2,1-0.6,1.4C166.4,147,165.9,147.2,165.4,147.2z"/>
					</g>
				</g>
			</g>
		</g>
	</g>
</g>
<g>
	
		<image style="overflow:visible;opacity:0.75;" width="394" height="376" xlink:href="C2E3A2963BF8A12E.png"  transform="matrix(0.24 0 0 0.24 339.3253 317.5722)">
	</image>
	<g>
		<path class="st5" d="M378.1,335.7c0.5,0.1,0.9,0.2,1.5,0.2c3.1,0,5.6-2.3,5.6-5.2c0-2.9-2.5-5.2-5.6-5.2c-3.1,0-5.6,2.3-5.6,5.2
			c0,0.2,0,0.5,0.1,0.7l-17.3,8c-1-0.9-2.4-1.5-3.9-1.5c-3.1,0-5.6,2.3-5.6,5.2c0,2.9,2.5,5.2,5.6,5.2c0.5,0,1-0.1,1.5-0.2l5.3,7.4
			l-5.3,7.4c-0.5-0.1-0.9-0.2-1.5-0.2c-3.1,0-5.6,2.3-5.6,5.2c0,2.9,2.5,5.2,5.6,5.2c1.5,0,2.9-0.6,3.9-1.5l17.3,8
			c0,0.2-0.1,0.5-0.1,0.7c0,2.9,2.5,5.2,5.6,5.2c3.1,0,5.6-2.3,5.6-5.2c0-2.9-2.5-5.2-5.6-5.2c-0.5,0-1,0.1-1.5,0.2l-9.3-13l6.8-3.2
			c1,0.9,2.4,1.5,3.9,1.5c3.1,0,5.6-2.3,5.6-5.2c0-2.9-2.5-5.2-5.6-5.2c-1.5,0-2.9,0.6-3.9,1.5l-6.8-3.2L378.1,335.7z M379.6,328.8
			c1.1,0,2.1,0.9,2.1,1.9s-0.9,1.9-2.1,1.9c-1.1,0-2.1-0.9-2.1-1.9S378.4,328.8,379.6,328.8z M374.4,335l-8.8,12.3l-7.2-3.4
			c0-0.2,0.1-0.5,0.1-0.7s0-0.5-0.1-0.7L374.4,335z M350.8,343.2c0-1.1,0.9-1.9,2.1-1.9s2.1,0.9,2.1,1.9c0,1.1-0.9,1.9-2.1,1.9
			S350.8,344.2,350.8,343.2z M358,347.4l5.6,2.6l-1.9,2.6L358,347.4z M361.8,358.5l1.9,2.6l-5.6,2.6L361.8,358.5z M352.9,369.9
			c-1.1,0-2.1-0.9-2.1-1.9c0-1.1,0.9-1.9,2.1-1.9s2.1,0.9,2.1,1.9C354.9,369.1,354,369.9,352.9,369.9z M381.6,380.4
			c0,1.1-0.9,1.9-2.1,1.9c-1.1,0-2.1-0.9-2.1-1.9s0.9-1.9,2.1-1.9C380.7,378.5,381.6,379.4,381.6,380.4z M374.4,376.2l-16.1-7.5
			c0-0.2,0.1-0.5,0.1-0.7s0-0.5-0.1-0.7l7.2-3.4L374.4,376.2z M379.6,353.7c1.1,0,2.1,0.9,2.1,1.9s-0.9,1.9-2.1,1.9
			c-1.1,0-2.1-0.9-2.1-1.9S378.4,353.7,379.6,353.7z M374.1,354.9c0,0.2-0.1,0.5-0.1,0.7c0,0.2,0,0.5,0.1,0.7l-7.2,3.4l-2.9-4.1
			l2.9-4.1L374.1,354.9z M406.3,362.8c-3.1,0-5.6,2.3-5.6,5.2c0,2.9,2.5,5.2,5.6,5.2c3.1,0,5.6-2.3,5.6-5.2
			C411.8,365.1,409.3,362.8,406.3,362.8z M406.3,369.9c-1.1,0-2.1-0.9-2.1-1.9c0-1.1,0.9-1.9,2.1-1.9s2.1,0.9,2.1,1.9
			C408.3,369.1,407.4,369.9,406.3,369.9z M406.3,348.4c3.1,0,5.6-2.3,5.6-5.2c0-2.9-2.5-5.2-5.6-5.2c-3.1,0-5.6,2.3-5.6,5.2
			C400.7,346,403.2,348.4,406.3,348.4z M406.3,341.3c1.1,0,2.1,0.9,2.1,1.9c0,1.1-0.9,1.9-2.1,1.9s-2.1-0.9-2.1-1.9
			C404.2,342.1,405.1,341.3,406.3,341.3z"/>
	</g>
</g>
<g>
	
		<image style="overflow:visible;opacity:0.75;" width="402" height="421" xlink:href="C2E3A2963BF8A12F.png"  transform="matrix(0.24 0 0 0.24 931.6705 109.2382)">
	</image>
	<g>
		<g>
			<g>
				<path class="st8" d="M972.1,118.7c9.3,0,17,15.1,17.2,33.7c0.2,18.7-7.3,34.1-16.7,34.3l-0.2,0c-9.3,0-17-15.1-17.2-33.7
					c-0.2-18.7,7.3-34.1,16.7-34.3L972.1,118.7z M972.4,186.2l0.1,0c9.1-0.2,16.3-15.3,16.2-33.7c-0.2-18.3-7.6-33.1-16.6-33.1H972
					c-9.1,0.2-16.3,15.3-16.2,33.7C956,171.3,963.4,186.2,972.4,186.2z"/>
			</g>
			<g>
				<path class="st8" d="M970.9,135.9c17-2,31.2,3.8,32.4,13c1.2,9.3-11.8,18.6-28.9,20.8c-17.3,2.2-32-3.5-33.1-12.9
					c-0.6-4.5,2.2-9.2,7.7-13.2c5.5-3.9,13-6.6,21.3-7.7C970.4,135.9,970.7,135.9,970.9,135.9z M973.6,169.2c0.2,0,0.5-0.1,0.7-0.1
					c16.8-2.1,29.6-11.2,28.4-20.2c-1.1-8.8-15.3-14.4-31.8-12.5c-0.3,0-0.5,0.1-0.7,0.1c-8.2,1-15.6,3.7-21,7.6
					c-5.3,3.8-8,8.3-7.4,12.6C942.9,165.5,957.2,171.1,973.6,169.2z"/>
			</g>
			<g>
				<path class="st8" d="M952.2,129.7L952.2,129.7c0.5,0,0.9,0,1.4,0c12.8,0.1,31.7,10.5,42,23.1c5.7,6.9,7.9,13.4,6,17.8
					c-1.5,3.4-5.2,5.2-10.7,5.1c-12.8-0.1-31.7-10.5-42-23.1c-5.7-6.9-7.9-13.4-6-17.8C944.2,131.8,947.4,130,952.2,129.7z
					 M992.4,175.1c4.5-0.2,7.5-1.9,8.8-4.8c1.8-4.2-0.4-10.5-5.9-17.2c-10.2-12.5-28.9-22.7-41.6-22.9c-5.3-0.1-8.8,1.6-10.2,4.8
					c-1.8,4.2,0.4,10.5,5.9,17.2c10.2,12.5,28.9,22.7,41.6,22.9C991.4,175.2,991.9,175.2,992.4,175.1z"/>
			</g>
			<path class="st8" d="M945.8,167.7c1.1,1.5,3.2,1.9,4.6,0.8c1.5-1.1,1.8-3.2,0.8-4.7c-1.1-1.5-3.2-1.9-4.6-0.8
				C945,164.1,944.7,166.2,945.8,167.7z M947.9,166.4c0.5-0.3,1.1-0.2,1.5,0.2c0.3,0.5,0.2,1.1-0.2,1.5c-0.5,0.3-1.1,0.2-1.5-0.2
				C947.4,167.4,947.5,166.8,947.9,166.4z"/>
			<path class="st8" d="M964.7,135.4c1.8,0,3.3-1.6,3.3-3.4c0-1.9-1.5-3.3-3.4-3.3c-1.8,0-3.3,1.6-3.3,3.4
				C961.3,133.9,962.8,135.4,964.7,135.4z M963.6,132.8c0.5-0.3,1.1-0.1,1.4,0.4c0.3,0.5,0.1,1.2-0.4,1.4c-0.5,0.3-1.1,0.1-1.4-0.4
				C962.9,133.7,963.1,133.1,963.6,132.8z"/>
			<path class="st8" d="M1001.5,148.5c1.8-0.2,3.2-1.8,3-3.7c-0.2-1.9-1.8-3.2-3.6-3.1c-1.8,0.2-3.2,1.8-3,3.7
				C998.1,147.3,999.7,148.7,1001.5,148.5z M999.2,144.5c0.5-0.3,1.1-0.2,1.5,0.2c0.3,0.5,0.2,1.1-0.2,1.5c-0.5,0.3-1.1,0.2-1.5-0.2
				C998.6,145.5,998.7,144.8,999.2,144.5z"/>
			<path class="st8" d="M976.2,175.7c1.2,1.4,3.3,1.5,4.7,0.2c1.3-1.3,1.4-3.4,0.2-4.8c-1.2-1.4-3.3-1.5-4.7-0.2
				C975,172.2,974.9,174.3,976.2,175.7z M977.1,173.6c0.5-0.3,1.1-0.2,1.4,0.3c0.3,0.5,0.2,1.2-0.3,1.5c-0.5,0.3-1.1,0.2-1.4-0.3
				C976.4,174.6,976.6,173.9,977.1,173.6z"/>
			<g>
				<path class="st8" d="M978.6,152.7c0-3.5-2.9-6.4-6.4-6.3c-3.5,0-6.3,3-6.2,6.5c0,3.5,2.9,6.4,6.4,6.3
					C975.8,159.1,978.6,156.2,978.6,152.7z"/>
			</g>
		</g>
	</g>
</g>
<g>
	
		<image style="overflow:visible;opacity:0.75;" width="559" height="298" xlink:href="C2E3A2963BF8A151.png"  transform="matrix(0.24 0 0 0.24 119.6592 189.4907)">
	</image>
	<g>
		<text transform="matrix(1 0 0 1 127.6594 211.5326)"><tspan x="0" y="0" class="st5 st6 st9">Metagenomics</tspan><tspan x="13.7" y="19.2" class="st5 st6 st9">Annotation</tspan></text>
	</g>
</g>
<g>
	
		<image style="overflow:visible;opacity:0.75;" width="546" height="378" xlink:href="C2E3A2963BF8A153.png"  transform="matrix(0.24 0 0 0.24 321.1548 388.3467)">
	</image>
	<g>
		<text transform="matrix(1 0 0 1 329.1547 410.3888)"><tspan x="0" y="0" class="st5 st6 st9">Annotation of </tspan><tspan x="6.2" y="19.2" class="st5 st6 st9">ARGs using </tspan><tspan x="1.7" y="38.4" class="st5 st6 st9">deep learning</tspan></text>
	</g>
</g>
<g>
	
		<image style="overflow:visible;opacity:0.75;" width="552" height="298" xlink:href="C2E3A2963BF8A156.png"  transform="matrix(0.24 0 0 0.24 517.2529 189.4912)">
	</image>
	<g>
		<text transform="matrix(1 0 0 1 525.2533 211.533)"><tspan x="0" y="0" class="st5 st6 st9">Universal ARG</tspan><tspan x="19.4" y="19.2" class="st5 st6 st9">resource</tspan></text>
	</g>
</g>
<g>
	
		<image style="overflow:visible;opacity:0.75;" width="438" height="298" xlink:href="C2E3A2963BF8A14A.png"  transform="matrix(0.24 0 0 0.24 730.4268 399.1836)">
	</image>
	<g>
		<text transform="matrix(1 0 0 1 739.7587 421.2256)"><tspan x="0" y="0" class="st5 st6 st9">Fast ARG </tspan><tspan x="-1.3" y="19.2" class="st5 st6 st9">annotation</tspan></text>
	</g>
</g>
<g>
	
		<image style="overflow:visible;opacity:0.75;" width="518" height="458" xlink:href="C2E3A2963BF8A149.png"  transform="matrix(0.24 0 0 0.24 918.7988 185.4907)">
	</image>
	<g>
		<text transform="matrix(1 0 0 1 955.36 207.5328)"><tspan x="0" y="0" class="st5 st6 st9">ARG </tspan><tspan x="-28.6" y="19.2" class="st5 st6 st9">annotation of</tspan><tspan x="-18.4" y="38.4" class="st5 st6 st9"> nanopore </tspan><tspan x="-1.4" y="57.6" class="st5 st6 st9">reads</tspan></text>
	</g>
</g>
</svg>
