<?xml version="1.0" encoding="utf-8"?>
<!-- Generator: Adobe Illustrator 19.0.0, SVG Export Plug-In . SVG Version: 6.00 Build 0)  -->
<svg version="1.1" id="Layer_1" xmlns="http://www.w3.org/2000/svg" xmlns:xlink="http://www.w3.org/1999/xlink" x="0px" y="0px"
	 viewBox="270.8 -413.8 857.1 1098.3" style="enable-background:new 270.8 -413.8 857.1 1098.3;" xml:space="preserve">
<style type="text/css">
	.st0{fill:#666464;}
	.st1{font-family:'Montserrat-Medium';}
	.st2{font-size:29.4942px;}
	.st3{font-size:18.0894px;}
	.st4{fill:#FBAE28;}
	.st5{fill:#F15F54;}
	.st6{fill:#77C8A7;}
	.st7{fill:#0592B0;}
	.st8{fill:#41BA88;}
	.st9{fill:#8486C1;}
	.st10{fill:#46101A;}
	.st11{fill:#371117;}
	.st12{fill:#F3F3F3;}
	.st13{fill:#FFFFFF;}
	.st14{fill:#432A7C;}
	.st15{fill:#895623;}
	.st16{fill:#91732C;}
	.st17{font-family:'ArialRoundedMTBold';}
	.st18{font-size:53.985px;}
	.st19{font-size:20.2444px;}
	.st20{fill:#5ABA47;}
	.st21{fill:#FAA620;}
	.st22{fill:#A76CAD;}
	.st23{font-family:'ArialNarrow-Bold';}
	.st24{font-size:28px;}
	.st25{font-family:'ArialNarrow';}
	.st26{fill:#F8994C;}
	.st27{font-size:24px;}
</style>
<g>
	<g>
		<g>
			<text transform="matrix(0.9442 0 0 1 827.981 -349.3504)" class="st0 st1 st2">ARG database design</text>
		</g>
		<g>
			<text transform="matrix(0.9442 0 0 1 916.0352 -320.2367)" class="st0 st1 st3">Automatic annotation</text>
		</g>
		<g>
			<ellipse class="st4" cx="981.6" cy="-295.2" rx="5.9" ry="6.3"/>
			<ellipse class="st5" cx="1009.9" cy="-295.2" rx="5.9" ry="6.3"/>
			<ellipse class="st6" cx="1038.1" cy="-295.2" rx="5.9" ry="6.3"/>
			<ellipse class="st7" cx="1066.4" cy="-295.2" rx="5.9" ry="6.3"/>
		</g>
	</g>
	<g>
		<g>
			<g>
				<g>
					<rect x="1003.7" y="-227.8" class="st8" width="12" height="33.4"/>
					<rect x="1024.5" y="-240.8" class="st8" width="12" height="46.3"/>
					<rect x="1045.1" y="-253.3" class="st8" width="12" height="58.9"/>
					<polygon class="st8" points="1051.6,-261.9 1060.5,-275.6 1044.9,-276.9 1047.5,-271 1000.5,-244.4 1002,-241.4 1048.9,-267.9 
											"/>
				</g>
			</g>
			<g>
				<path class="st5" d="M711.2,0.4c0-0.1,0-0.1,0-0.2c-0.5-18.5-5.4-35.8-13.5-50.9c0,0,0,0,0,0c-17.9-33.3-51.7-55.8-90.6-55.8
					C549.6-106.5,503-57.1,503,3.8c0,0.4,0,0.9,0,1.3c0.5,40.6,21.6,75.9,52.7,94.6c14.6,8.8,31.3,13.9,49.2,14.3c0.7,0,1.4,0,2.2,0
					h0.1c0.7,0,1.4,0,2.1,0c17.9-0.4,34.6-5.5,49.2-14.3c-14.6-8.8-31.3-13.9-49.2-14.3c-0.7,0-1.4,0-2.1,0h-0.1c-0.7,0-1.4,0-2.2,0
					c-41.2-1.2-74.3-36.6-74.9-80.3c0-0.4,0-0.9,0-1.3c0-45.1,34.5-81.7,77.1-81.7c41.5,0,75.3,34.7,77,78.2c0,0,0,0.1,0,0.1
					c0.1,1.1,0.1,2.3,0.1,3.4c0,0.4,0,0.9,0,1.3h27c0-0.4,0-0.9,0-1.3C711.1,2.7,711.1,1.5,711.2,0.4z"/>
				<path class="st9" d="M658.5,99.7c-14.6-8.8-31.3-13.9-49.2-14.3c-0.7,0-1.4,0-2.1,0V114c0.7,0,1.4,0,2.1,0
					c41.6,1.2,74.9,37.3,74.9,81.6c0,45.1-34.5,81.6-77,81.7v0l0,0h-0.1c-41.7,0-75.6-35-77-78.8v0c0-0.9-0.1-1.9-0.1-2.9
					c0-0.9,0-1.9,0.1-2.8c0-0.2,0-0.4,0-0.6c-0.8-28.6-23.3-51.1-50.3-51.1c-30.8,0-120.1,0.1-180.4,0.1v26.9l181,0
					c12.7,0,23,11.1,22.7,24.6v0.3c0,0.8,0,1.7,0,2.5c0,0.9,0,1.7,0,2.6c0.4,18.8,5.3,36.5,13.5,51.8c17.9,33.4,51.8,55.9,90.6,55.9
					h0.1l0,0v0c57.5-0.1,104-49.4,104-110.3C711.3,154.6,690,118.7,658.5,99.7z"/>
				<g>
					<path class="st10" d="M684.1-188.1c0,41.1,21.3,77,52.8,95.9c0,0,0,0,0,0c3.4,2,6.9,3.9,10.5,5.5c11.9,5.4,25,8.5,38.7,8.8
						c0.7,0,1.4,0,2.1,0v-28.6c-0.7,0-1.4,0-2.1,0c0,0,0,0,0,0c-42.8-1.3-76.8-39.4-74.8-85.5c1.8-42.1,34.3-76.2,74-77.8
						c1,0,1.9,0,2.9,0v-28.6C730.7-298.3,684.1-248.9,684.1-188.1z"/>
					<path class="st11" d="M917.4-160.9c-14,0-25.1-12.1-25.1-26.9v-0.3c0-19.8-4.9-38.3-13.5-54.3c-17.9-33.4-51.7-55.9-90.5-56
						v28.6c42.6,0,77.1,36.6,77.1,81.6v0.1c0,3.8,0.2,7.6,0.5,11.3c2.3,24.3,21.7,42.8,44.8,42.8l185.3,0v-26.9H917.4z"/>
				</g>
				<path class="st6" d="M839.6-92.2C839.6-92.2,839.6-92.2,839.6-92.2c-9.7-5.8-20.3-10.1-31.6-12.4c-5.7-1.2-11.6-1.8-17.6-2
					c-0.7,0-1.4,0-2.1,0v28.6c0.7,0,1.4,0,2.1,0c0,0,0,0,0.1,0c41.6,1.3,74.9,37.3,74.9,81.6c0,0.4,0,0.9,0,1.3
					c-0.7,44.5-34.9,80.3-77.1,80.3c-41.5,0-75.3-34.7-77-78.1c0-0.1,0-0.1,0-0.2c0-0.7,0-1.3,0-2h-27c0,0.7,0,1.4,0,2.1
					c0,0,0,0,0,0.1c0.5,18.5,5.4,35.9,13.5,51c0,0,0,0,0,0c17.9,33.3,51.8,55.8,90.5,55.8c57.1,0,103.4-48.7,104.1-109h0
					c0-0.4,0-0.9,0-1.3C892.4-37.4,871.1-73.2,839.6-92.2z"/>
			</g>
		</g>
		<g>
			<g>
				<g>
					<path d="M1044.2,54.9H822.1V-47.4h222.1c15.9,0,28.7,12.9,28.7,28.7v44.9C1072.9,42.1,1060,54.9,1044.2,54.9z"/>
				</g>
				<g>
					<g>
						<path class="st12" d="M785.8-77.9c-40.5,1.2-73.2,35.4-74.9,78.1c-0.1,1.2-0.1,2.3-0.1,3.5s0,2.4,0.1,3.5
							c1.7,43.5,35.6,78.1,77,78.1c42.6,0,77.1-36.6,77.1-81.7c0-44.3-33.4-80.4-75-81.6c-0.7,0-1.4,0-2.2,0
							C787.2-77.9,786.5-77.9,785.8-77.9z M804.8-44.9c0.4,0.2,0.8,0.3,1.1,0.5c0.7,0.3,1.5,0.6,2.2,1c0.7,0.4,1.4,0.7,2.1,1.1
							c0.7,0.4,1.4,0.8,2.1,1.2c0.7,0.4,1.4,0.9,2,1.3c0.7,0.4,1.3,0.9,2,1.4c0.6,0.5,1.3,1,1.9,1.5c0.6,0.5,1.2,1,1.8,1.6
							c10.4,9.5,16.9,23.5,16.9,39.2c0,28.6-21.9,51.8-48.9,51.8c-27,0-48.9-23.2-48.9-51.8c0-15.6,6.5-29.7,16.9-39.2
							c0.6-0.6,1.2-1.1,1.8-1.6c0.6-0.5,1.2-1,1.9-1.5c0.6-0.5,1.3-1,2-1.4c0.3-0.2,0.7-0.4,1-0.7c1-0.6,2-1.3,3.1-1.8
							c0.7-0.4,1.4-0.7,2.1-1.1C774-46.4,780.8-48,788-48C793.9-48,799.5-46.9,804.8-44.9z"/>
						<g>
							
								<image style="overflow:visible;opacity:0.3;" width="124" height="130" xlink:href="C5292B7CFE1BFA66.png"  transform="matrix(1 0 0 1 730.7354 -56.7046)">
							</image>
							<g>
								<ellipse class="st13" cx="788.2" cy="3.8" rx="48.9" ry="51.8"/>
							</g>
						</g>
						<ellipse class="st13" cx="788.2" cy="3.8" rx="48.9" ry="51.8"/>
					</g>
				</g>
			</g>
			<g>
				<g>
					<path class="st14" d="M878.1,246.8H656V144.5h222.1c15.9,0,28.7,12.9,28.7,28.7v44.9C906.8,234,893.9,246.8,878.1,246.8z"/>
				</g>
				<g>
					<g>
						<path class="st12" d="M684.2,195.7c0-44.3-33.4-80.4-74.9-81.6c-0.7,0-1.4,0-2.2,0c-0.7,0-1.4,0-2.2,0
							c-41.6,1.2-74.9,37.3-74.9,81.6c0,45.1,34.5,81.7,77.1,81.7C649.7,277.4,684.2,240.8,684.2,195.7z M558.2,195.7
							c0-28.6,21.9-51.8,48.9-51.8s48.9,23.2,48.9,51.8c0,28.6-21.9,51.8-48.9,51.8S558.2,224.3,558.2,195.7z"/>
						<g>
							
								<image style="overflow:visible;opacity:0.3;" width="124" height="129" xlink:href="C5292B7CFE1BFA61.png"  transform="matrix(1 0 0 1 549.7354 135.2954)">
							</image>
							<g>
								<ellipse class="st13" cx="607.1" cy="195.7" rx="48.9" ry="51.8"/>
							</g>
						</g>
						<ellipse class="st13" cx="607.1" cy="195.7" rx="48.9" ry="51.8"/>
					</g>
				</g>
			</g>
			<g>
				<g>
					<path class="st15" d="M355.8-47.1h222.1V55.2H355.8c-15.9,0-28.7-12.9-28.7-28.7v-44.9C327.1-34.2,339.9-47.1,355.8-47.1z"/>
				</g>
				<g>
					<g>
						<path class="st12" d="M609.3,85.4c40.5-1.2,73.2-35.4,74.9-78.1c0-1.2,0.1-2.3,0.1-3.5s0-2.4-0.1-3.5
							c-1.7-43.5-35.6-78.2-77-78.2c-42.6,0-77.1,36.6-77.1,81.7c0,44.3,33.4,80.4,74.9,81.6c0.7,0,1.4,0,2.2,0
							C607.8,85.5,608.6,85.4,609.3,85.4z M558.2,3.8c0-28.6,21.9-51.8,48.9-51.8S656-24.8,656,3.8s-21.9,51.8-48.9,51.8
							S558.2,32.4,558.2,3.8z"/>
						<g>
							
								<image style="overflow:visible;opacity:0.3;" width="124" height="130" xlink:href="C5292B7CFE1BFA60.png"  transform="matrix(1 0 0 1 549.7354 -56.7046)">
							</image>
							<g>
								<ellipse class="st13" cx="607.1" cy="3.8" rx="48.9" ry="51.8"/>
							</g>
						</g>
						<ellipse class="st13" cx="607.1" cy="3.8" rx="48.9" ry="51.8"/>
					</g>
				</g>
			</g>
			<g>
				<g>
					<path class="st16" d="M541.5-236.4h222.1v102.3H541.5c-15.9,0-28.7-12.9-28.7-28.7v-44.9C512.7-223.5,525.6-236.4,541.5-236.4z
						"/>
				</g>
				<g>
					<g>
						<path class="st12" d="M711.6-187.5c0,44.3,33.4,80.4,74.9,81.6c0.7,0,1.4,0,2.2,0c0.7,0,1.4,0,2.2,0
							c41.6-1.2,74.9-37.3,75-81.6v0c0-45.1-34.5-81.7-77.1-81.7C746.1-269.2,711.6-232.6,711.6-187.5z M837.6-187.5
							c0,28.6-21.9,51.8-48.9,51.8c-27,0-48.9-23.2-48.9-51.8c0-28.6,21.9-51.8,48.9-51.8C815.7-239.3,837.6-216.1,837.6-187.5z"/>
						<g>
							
								<image style="overflow:visible;opacity:0.3;" width="124" height="129" xlink:href="C5292B7CFE1BFA6F.png"  transform="matrix(1 0 0 1 730.7354 -247.7046)">
							</image>
							<g>
								<ellipse class="st13" cx="788.7" cy="-187.5" rx="48.9" ry="51.8"/>
							</g>
						</g>
						<ellipse class="st13" cx="788.7" cy="-187.5" rx="48.9" ry="51.8"/>
					</g>
					<g>
						<text transform="matrix(0.9442 0 0 1 771.5674 -168.4603)" class="st17 st18">1</text>
						<g>
							<text transform="matrix(0.9442 0 0 1 774.6934 21.817)" class="st17 st18">2</text>
						</g>
						<g>
							<text transform="matrix(0.9442 0 0 1 589.7949 21.8161)" class="st17 st18">3</text>
						</g>
						<g>
							<text transform="matrix(0.9442 0 0 1 587.9385 216.2384)" class="st17 st18">4</text>
						</g>
					</g>
				</g>
			</g>
		</g>
	</g>
</g>
<g>
	<text transform="matrix(0.9442 0 0 1 551.3662 -245.515)" class="st17 st3">Duplicated ARGs</text>
</g>
<g>
	<text transform="matrix(0.9442 0 0 1 907.0703 -58.5814)" class="st17 st3">Text Mining</text>
</g>
<g>
	<text transform="matrix(0.9442 0 0 1 342.9028 72.5422)" class="st17 st3">Homology detection</text>
</g>
<g>
	<text transform="matrix(0.9442 0 0 1 737.1084 137.2804)" class="st17 st3">Annotation</text>
</g>
<g>
	<text transform="matrix(0.9442 0 0 1 531.8672 -213.8163)"><tspan x="0" y="0" class="st13 st17 st3">Cluster CARD, ARDB</tspan><tspan x="-0.5" y="21.7" class="st13 st17 st3"> and UNIPROT ARGs </tspan><tspan x="-11.1" y="43.4" class="st13 st17 st3">and remove all that are </tspan><tspan x="28.1" y="65.1" class="st13 st17 st3">100% identical</tspan></text>
</g>
<g>
	<text transform="matrix(0.9442 0 0 1 863.4038 -23.8607)"><tspan x="0" y="0" class="st13 st17 st3">Substract all ARG terms </tspan><tspan x="4.3" y="21.7" class="st13 st17 st3">(antibiotic names) from </tspan><tspan x="18.2" y="43.4" class="st13 st17 st3">the CARD and ARDB</tspan><tspan x="62.3" y="65.1" class="st13 st17 st3">databases</tspan></text>
</g>
<g>
	<text transform="matrix(0.9442 0 0 1 343.4956 -23.8617)"><tspan x="0" y="0" class="st13 st17 st3">Contrast ARGs from </tspan><tspan x="9.3" y="21.7" class="st13 st17 st3">UNIPROT with the </tspan><tspan x="9.3" y="43.4" class="st13 st17 st3">known ARGs from </tspan><tspan x="16.9" y="65.1" class="st13 st17 st3">CARD and ARDB</tspan></text>
</g>
<g>
	<text transform="matrix(0.9442 0 0 1 719.7476 172.0451)"><tspan x="0" y="0" class="st13 st17 st3">Categorize ARGs</tspan><tspan x="-5.1" y="21.7" class="st13 st17 st3">according to their </tspan><tspan x="-30.5" y="43.4" class="st13 st17 st3">evidence and homology </tspan><tspan x="5.5" y="65.1" class="st13 st17 st3">into four groups</tspan></text>
</g>
<g>
	<text transform="matrix(0.9442 0 0 1 961.3462 -169.4593)" class="st17 st19">~40,000 ARGs</text>
</g>
<g>
	<text transform="matrix(0.9442 0 0 1 299.4268 187.9064)" class="st17 st19">14,933 ARGs</text>
</g>
<g>
	<path class="st20" d="M601.5-322.6h26.2c0.4,0,0.7-0.3,0.7-0.7c0-0.4-0.3-0.7-0.7-0.7h-26.2c-0.4,0-0.7,0.3-0.7,0.7
		C600.7-323,601.1-322.6,601.5-322.6z"/>
	<path class="st20" d="M601.5-312.3h26.2c0.4,0,0.7-0.3,0.7-0.7c0-0.4-0.3-0.7-0.7-0.7h-26.2c-0.4,0-0.7,0.3-0.7,0.7
		C600.7-312.6,601.1-312.3,601.5-312.3z"/>
	<path class="st20" d="M601.5-303.4h26.2c0.4,0,0.7-0.3,0.7-0.7s-0.3-0.7-0.7-0.7h-26.2c-0.4,0-0.7,0.3-0.7,0.7
		S601.1-303.4,601.5-303.4z"/>
	<path class="st20" d="M627.7-293.8c0.4,0,0.7-0.3,0.7-0.7c0-0.4-0.3-0.7-0.7-0.7h-26.2c-0.4,0-0.7,0.3-0.7,0.7
		c0,0.4,0.3,0.7,0.7,0.7H627.7z"/>
	<path class="st20" d="M643.9-288.7c-2.1-2.1-4.8-3.3-7.5-3.6V-330c0-0.4-0.2-0.7-0.5-0.9c-0.1-0.1-0.2-0.2-0.3-0.3l-6.8-6.5
		c-0.3-0.2-0.6-0.3-0.9-0.3c-0.1,0-0.1,0-0.2,0h-33.9c-0.6,0-1.1,0.5-1.1,1.1v4.1h-4c-0.6,0-1.1,0.5-1.1,1.1v57.6
		c0,0.6,0.5,1.1,1.1,1.1h35.9c0.5,0.8,1.1,1.6,1.8,2.3c4.8,4.9,12.7,4.9,17.6,0C648.8-275.8,648.8-283.8,643.9-288.7z M594.9-335.9
		h32v5.5c0,0.6,0.5,1.1,1.1,1.1h6.2v36.9c-2.9,0.2-5.7,1.4-7.9,3.6c-2.2,2.3-3.4,5.2-3.6,8.2h-27.9V-335.9z M589.8-275.4v-55.4h2.9
		v51.3c0,0.6,0.5,1.1,1.1,1.1h29c0.1,1,0.4,2,0.7,3H589.8z M643.8-278.3h-16.9c-0.6,0-1.1-0.5-1.1-1.1s0.5-1.1,1.1-1.1h16.9
		c0.6,0,1.1,0.5,1.1,1.1S644.4-278.3,643.8-278.3z"/>
</g>
<path class="st21" d="M430.3-110.8c0,3.4-2.7,6.3-6,6.3c-3.2,0-6-2.9-6-6.3c0-3.4,2.7-6.3,6-6.3
	C427.6-117.1,430.3-114.4,430.3-110.8z M401.3-82.2c-3.2,0-6,2.9-6,6.3c0,3.4,2.7,6.3,6,6.3s6-2.9,6-6.3S404.8-82.2,401.3-82.2z
	 M441.4-81.3c-3.2,0-6,2.9-6,6.3c0,3.4,2.7,6.3,6,6.3c3.2,0,6-2.9,6-6.3C447.3-78.4,444.6-81.3,441.4-81.3z M432-74.1
	c-0.5,0-1.2,0-1.7,0c-9.4,0-17-8.1-17-17.9c0-4.7,1.7-8.8,4.4-12c-1.2-1.4-2.2-3-2.6-5c-4.3,4.3-7,10.4-7,17
	c0,12.9,9.9,23.3,22.1,23.3c1.2,0,2.4-0.2,3.6-0.4C432.9-70.6,432.2-72.3,432-74.1z M462.8-126.2c-1-1.1-2.6-1.1-3.6,0l-5.5,5.7
	c-6.3-5.7-14.5-9.1-23.5-9.1c-19.8,0-35.8,16.8-35.8,37.6c0,2.5,0.2,5.2,0.7,7.5c1.4-1.1,3.1-1.8,4.9-2.1c-0.3-1.6-0.5-3.6-0.5-5.4
	c0-17.7,13.8-32.2,30.7-32.2c7.5,0,14.5,2.9,19.8,7.7l-6,6.3c-3.2-2.7-7-4.5-11.4-4.8c0.7,1.3,1,2.7,1,4.3c0,0.4,0,0.9-0.2,1.3
	c2.6,0.5,4.8,1.6,6.8,3.2l-8.9,9.3c-0.3-0.4-0.7-0.4-1.2-0.4c-2.9,0-5.1,2.3-5.1,5.4s2.2,5.4,5.1,5.4c2.9,0,5.1-2.3,5.1-5.4
	c0-0.5,0-0.9-0.2-1.4l27.6-28.8C463.7-123.4,463.7-125.1,462.8-126.2z M430.3-59.8c-8.2,0-15.7-3.4-21.3-8.9c-1.2,1.4-2.7,2.5-4.3,3
	c6.5,7,15.5,11.3,25.5,11.3c9.9,0,18.7-4.3,25.2-11.1l-3.6-3.8C446.5-63.4,438.8-59.8,430.3-59.8z"/>
<g>
	<path class="st22" d="M972.4,173.4c-3.7,3.8-3.7,10.2,0,14.1l0,0c1.9,1.9,4.4,2.9,6.8,2.9c2.5,0,4.9-1,6.9-2.9
		c3.7-3.8,3.7-10.2,0-14.1C982.4,169.5,976.3,169.5,972.4,173.4z M982.2,183.4c-1.6,1.6-4.4,1.7-5.9,0c-1.6-1.7-1.6-4.4,0-6.1
		c1.6-1.7,4.3-1.7,5.9,0C983.9,179,983.9,181.7,982.2,183.4z"/>
	<path class="st22" d="M998.3,158.2l-28.6-1.6c-0.8-0.1-1.5,0.2-2.1,0.8L930,196.2c-1,0.9-1.4,2.2-1.4,3.6s0.5,2.6,1.4,3.6l27,27.9
		c1,1,2.2,1.5,3.5,1.5s2.5-0.4,3.5-1.5l37.5-38.9c0.5-0.6,0.9-1.3,0.8-2.1l-1.5-29.5C1000.8,159.4,999.6,158.2,998.3,158.2z
		 M960.5,226.8l-26.2-27l36.3-37.5l24.8,1.3l1.3,25.6L960.5,226.8z"/>
</g>
<g>
	<text transform="matrix(0.9744 0 0 1 337.723 449.1995)"><tspan x="0" y="0" class="st23 st24">1</tspan><tspan x="12.8" y="0" class="st25 st24">.</tspan><tspan x="19.2" y="0" class="st23 st24"> High Quality ARGs:</tspan><tspan x="238.6" y="0" class="st25 st24"> 90% identical to its best hit from CARD or ARDB</tspan><tspan x="-19.9" y="33.6" class="st23 st24">2</tspan><tspan x="-7.1" y="33.6" class="st25 st24">. </tspan><tspan x="5.7" y="33.6" class="st23 st24">Homologous ARGs</tspan><tspan x="216.1" y="33.6" class="st25 st24">: More than 50% identical and less than 1e-10 evalue</tspan><tspan x="-23.7" y="67.2" class="st23 st24">3.</tspan><tspan x="-4.6" y="67.2" class="st25 st24"> </tspan><tspan x="1.8" y="67.2" class="st23 st24">Potential ARGs:</tspan><tspan x="176.6" y="67.2" class="st25 st24"> Less than 50% identity and an evalue smaller than 1e-10</tspan><tspan x="-14.2" y="100.8" class="st23 st24">4</tspan><tspan x="-1.4" y="100.8" class="st25 st24">. </tspan><tspan x="11.4" y="100.8" class="st23 st24">Discarded ARGs</tspan><tspan x="192.6" y="100.8" class="st25 st24">: Less than 50% identity and evalue smaller than 1e-10</tspan></text>
</g>
<g>
	<line class="st13" x1="314.3" y1="215.2" x2="391" y2="402.4"/>
	<g>
		<g>
			<polygon points="391,402.4 361.5,390.1 362.8,387.2 387.2,397.4 378.6,376.3 312.8,215.8 315.7,214.6 381.5,375.1 390.2,396.2 
				400.4,371.7 403.4,373 			"/>
		</g>
	</g>
</g>
<g>
	<g transform="translate(-388.000000, -2461.000000)">
		<g transform="translate(388.000000, 2461.000000)">
			<path class="st26" d="M555.4,624.5c-4.2,0-8.3,2-11,5.5c-1.1,1.4-1,3.5,0.2,4.7c1.2,1.2,3,1.1,4.1-0.3c1.7-2.1,4-3.3,6.7-3.3
				c4.9,0,8.9,4.4,8.9,9.9s-4,9.9-8.9,9.9c-2.5,0-4.6-1.2-6.1-3.2l0.2,0.1c1.4,0.8,3.2,0.1,3.9-1.5c0.7-1.6,0.1-3.6-1.3-4.4
				l-6.9-3.9c-0.1,0-0.2,0-0.2-0.1c-0.2-0.1-0.4-0.1-0.6-0.2c-0.2,0-0.4-0.1-0.6,0c-0.1,0-0.2,0-0.3,0c-0.1,0-0.2,0.1-0.3,0.1
				c-0.2,0-0.4,0.1-0.5,0.2c-0.2,0.1-0.3,0.2-0.5,0.3c-0.1,0.1-0.3,0.3-0.4,0.4c-0.1,0.2-0.3,0.3-0.4,0.5c0,0.1-0.1,0.1-0.2,0.2
				l-3.4,7.9c-0.7,1.6-0.1,3.6,1.3,4.4c0.4,0.2,0.9,0.3,1.3,0.3c1.1,0,2.1-0.7,2.6-1.8l0.3-0.8c2.6,5,6.8,8,12,8
				c8.1,0,14.7-7.4,14.7-16.5S563.5,624.5,555.4,624.5"/>
			<path class="st26" d="M535.1,611.3c-17.1,0-25.8-4.8-26.2-6.6v-5.2c0,0,0.1,0,0.1,0.1c0.7,0.4,1.5,0.8,2.3,1.1
				c0.2,0.1,0.4,0.2,0.7,0.3c0.6,0.3,1.3,0.5,1.9,0.7c0.3,0.1,0.6,0.2,1,0.3c0.6,0.2,1.3,0.4,1.9,0.6c0.3,0.1,0.6,0.2,1,0.2
				c0.8,0.2,1.7,0.4,2.5,0.6c0.2,0,0.3,0.1,0.5,0.1c1,0.2,2.1,0.4,3.2,0.5c0.3,0,0.6,0.1,0.9,0.1c0.8,0.1,1.6,0.2,2.4,0.3
				c0.4,0,0.8,0.1,1.1,0.1c0.8,0.1,1.6,0.1,2.4,0.2c0.3,0,0.7,0,1,0.1c1.1,0,2.2,0.1,3.3,0.1c1.1,0,2.2,0,3.4-0.1c0.3,0,0.7,0,1-0.1
				c0.8,0,1.6-0.1,2.4-0.2c0.4,0,0.8-0.1,1.1-0.1c0.8-0.1,1.6-0.2,2.4-0.3c0.3,0,0.6-0.1,1-0.1c1.1-0.1,2.1-0.3,3.2-0.5
				c0.2,0,0.3-0.1,0.5-0.1c0.9-0.2,1.7-0.3,2.5-0.5c0.3-0.1,0.6-0.2,1-0.3c0.7-0.2,1.3-0.4,1.9-0.6c0.3-0.1,0.6-0.2,0.9-0.3
				c0.7-0.2,1.3-0.5,2-0.7c0.2-0.1,0.4-0.2,0.6-0.3c0.8-0.4,1.6-0.7,2.3-1.1c0,0,0.1,0,0.1-0.1l0,5.1
				C560.9,606.5,552.2,611.3,535.1,611.3 M535.1,624.5c-17.1,0-25.8-4.8-26.2-6.6v-5.2c0,0,0.1,0,0.1,0.1c0.7,0.4,1.5,0.8,2.3,1.1
				c0.2,0.1,0.4,0.2,0.7,0.3c0.6,0.3,1.3,0.5,1.9,0.7c0.3,0.1,0.6,0.2,1,0.3c0.6,0.2,1.3,0.4,1.9,0.6c0.3,0.1,0.6,0.2,1,0.2
				c0.8,0.2,1.7,0.4,2.5,0.6c0.2,0,0.3,0.1,0.5,0.1c1,0.2,2.1,0.4,3.2,0.5c0.3,0,0.6,0.1,0.9,0.1c0.8,0.1,1.6,0.2,2.4,0.3
				c0.4,0,0.8,0.1,1.1,0.1c0.8,0.1,1.6,0.1,2.4,0.2c0.3,0,0.7,0,1,0.1c1.1,0,2.2,0.1,3.3,0.1c15.4,0,32.1-4.1,32.1-13.2v-13.2
				c0-9.1-16.6-13.2-32.1-13.2s-32.1,4.1-32.1,13.2v13.2v13.2v13.2c0,9,15.7,12.7,29.1,13.2h0.1c1.6,0,2.9-1.4,2.9-3.2
				c0-1.8-1.2-3.3-2.8-3.4c-15.4-0.5-23-4.9-23.4-6.6V626c0,0,0.1,0,0.1,0.1c0.7,0.4,1.5,0.8,2.3,1.1c0.2,0.1,0.4,0.2,0.7,0.3
				c0.6,0.3,1.3,0.5,1.9,0.7c0.3,0.1,0.6,0.2,1,0.3c0.6,0.2,1.3,0.4,1.9,0.6c0.3,0.1,0.6,0.2,1,0.2c0.8,0.2,1.7,0.4,2.5,0.6
				c0.2,0,0.3,0.1,0.5,0.1c1,0.2,2.1,0.4,3.2,0.5c0.3,0,0.6,0.1,0.9,0.1c0.8,0.1,1.6,0.2,2.4,0.3c0.4,0,0.8,0.1,1.1,0.1
				c0.8,0.1,1.6,0.1,2.4,0.2c0.3,0,0.7,0,1,0.1c1.1,0,2.2,0.1,3.3,0.1c1.6,0,2.9-1.5,2.9-3.3C538,626,536.7,624.5,535.1,624.5"/>
		</g>
	</g>
</g>
<g>
	<text transform="matrix(0.9744 0 0 1 592.1935 624.5276)" class="st17 st27">DeepARG-DB-v1.1.0</text>
</g>
</svg>
