<?xml version="1.0" encoding="utf-8"?>
<!-- Generator: Adobe Illustrator 19.0.0, SVG Export Plug-In . SVG Version: 6.00 Build 0)  -->
<svg version="1.1" id="Layer_1" xmlns="http://www.w3.org/2000/svg" xmlns:xlink="http://www.w3.org/1999/xlink" x="0px" y="0px"
	 viewBox="91 -241.3 396 501" style="enable-background:new 91 -241.3 396 501;" xml:space="preserve">
<style type="text/css">
	.st0{opacity:0.8;fill:#FFFFFF;}
	.st1{fill:#EF3931;}
	.st2{font-family:'Arial-BoldMT';}
	.st3{font-size:16px;}
	.st4{fill:none;}
	.st5{fill:#606161;}
	.st6{fill:#BFD744;}
	.st7{fill:#78CED7;}
	.st8{fill:#289345;}
	.st9{fill:#85459A;}
	.st10{fill:#FFFFFF;}
	.st11{fill:#126232;}
</style>
<g id="XMLID_68_">
	<path id="XMLID_73_" class="st0" d="M348.7,186.4c0,22.1-17.9,40-40,40H195.5c-22.1,0-40-17.9-40-40v-12.8c0-22.1,17.9-40,40-40
		h113.2c22.1,0,40,17.9,40,40V186.4z"/>
	<g id="XMLID_69_">
		<text id="XMLID_72_" transform="matrix(1 0 0 1 208.0329 166.466)" class="st1 st2 st3">STEP 04</text>
		<rect id="XMLID_155_" x="207" y="170.9" class="st4" width="205.4" height="35.9"/>
		<text id="XMLID_70_" transform="matrix(1 0 0 1 207.0329 182.3967)"><tspan x="0" y="0" class="st5 st2 st3">Align kmers back to the </tspan><tspan x="0" y="19.2" class="st5 st2 st3">reference ARGs</tspan></text>
	</g>
</g>
<g id="XMLID_229_">
	<path id="XMLID_295_" class="st0" d="M350.6,76.9c0,22.1-17.9,40-40,40H197.4c-22.1,0-40-17.9-40-40V64.2c0-22.1,17.9-40,40-40
		h113.2c22.1,0,40,17.9,40,40V76.9z"/>
	<g id="XMLID_243_">
		<text id="XMLID_293_" transform="matrix(1 0 0 1 209.9953 57.0191)" class="st1 st2 st3">STEP 03</text>
		<rect id="XMLID_147_" x="209" y="61.5" class="st4" width="205.4" height="35.9"/>
		<text id="XMLID_244_" transform="matrix(1 0 0 1 208.9953 72.9498)"><tspan x="0" y="0" class="st5 st2 st3">Split hits into kmers of 33 </tspan><tspan x="0" y="19.2" class="st5 st2 st3">amino acids long (99 nt)</tspan></text>
	</g>
</g>
<g id="XMLID_146_">
	<path id="XMLID_224_" class="st0" d="M348.7-29.2c0,22.1-17.9,40-40,40H195.5c-22.1,0-40-17.9-40-40V-42c0-22.1,17.9-40,40-40
		h113.2c22.1,0,40,17.9,40,40V-29.2z"/>
	<g id="XMLID_150_">
		<text id="XMLID_220_" transform="matrix(1 0 0 1 208.0329 -49.1104)" class="st1 st2 st3">STEP 02</text>
		<rect id="XMLID_139_" x="207" y="-44.6" class="st4" width="205.4" height="35.9"/>
		<text id="XMLID_166_" transform="matrix(1 0 0 1 207.0329 -33.1798)"><tspan x="0" y="0" class="st5 st2 st3">Keep genes that are &gt;90% </tspan><tspan x="0" y="19.2" class="st5 st2 st3">identity and coverage</tspan></text>
	</g>
</g>
<g id="XMLID_501_">
	<path id="XMLID_506_" class="st0" d="M348.7-138.3c0,22.1-17.9,40-40,40H195.5c-22.1,0-40-17.9-40-40V-151c0-22.1,17.9-40,40-40
		h113.2c22.1,0,40,17.9,40,40V-138.3z"/>
	<g id="XMLID_502_">
		<text id="XMLID_505_" transform="matrix(1 0 0 1 207.0329 -158.1816)" class="st1 st2 st3">STEP 01</text>
		<rect id="XMLID_130_" x="207" y="-153.7" class="st4" width="205.4" height="35.9"/>
		<text id="XMLID_503_" transform="matrix(1 0 0 1 207.0329 -142.2509)"><tspan x="0" y="0" class="st5 st2 st3">Screen ARGs against full </tspan><tspan x="0" y="19.2" class="st5 st2 st3">genomes (PATRIC)</tspan></text>
	</g>
</g>
<rect id="XMLID_475_" x="145.1" y="-88.7" class="st6" width="24.6" height="106.2"/>
<rect id="XMLID_474_" x="145.1" y="17.5" class="st7" width="24.6" height="106.2"/>
<path id="XMLID_438_" class="st8" d="M169.7-194.9v-4.2c0-6.8-5.5-12.3-12.3-12.3c-6.8,0-12.3,5.5-12.3,12.3v4.2v57.5v48.7h24.6
	V-194.9z"/>
<path id="XMLID_437_" class="st9" d="M169.7,234v-4.2V123.6h-24.6v65.1v41.1v4.2c0,6.8,5.5,12.3,12.3,12.3
	C164.2,246.3,169.7,240.8,169.7,234z"/>
<g id="XMLID_341_">
	
		<image style="overflow:visible;opacity:0.64;" width="107" height="107" xlink:href="E6A650AA6248C2E.png"  transform="matrix(1 0 0 1 104.4225 -87.512)">
	</image>
	<g>
		<g>
			<circle id="XMLID_85_" class="st10" cx="157.4" cy="-35.6" r="38.1"/>
			<circle id="XMLID_84_" class="st6" cx="157.4" cy="-35.6" r="32.3"/>
			<g id="XMLID_80_">
				<path id="XMLID_81_" class="st10" d="M166.3-47.9c-3.1-6.4-10.8-9-17.2-5.9c-6.4,3.1-9,10.8-5.9,17.2c2.6,5.4,8.5,8.1,14.1,6.9
					l5.8,11.8c0.8,1.6,2.7,2.2,4.3,1.5c1.6-0.8,2.2-2.7,1.5-4.3l-5.8-11.8C167.5-36.2,169-42.6,166.3-47.9z M158.5-34.8
					c-4.1,2-9.2,0.3-11.2-3.8c-2-4.1-0.3-9.2,3.8-11.2c4.1-2,9.2-0.3,11.2,3.8C164.4-41.8,162.6-36.8,158.5-34.8z"/>
			</g>
		</g>
	</g>
</g>
<g id="XMLID_299_">
	
		<image style="overflow:visible;opacity:0.64;" width="107" height="108" xlink:href="E6A650AA6248C2D.png"  transform="matrix(1 0 0 1 102.4225 25.488)">
	</image>
	<g>
		<g>
			<circle id="XMLID_79_" class="st10" cx="155.6" cy="78" r="38.1"/>
			<circle id="XMLID_78_" class="st9" cx="155.6" cy="78" r="32.3"/>
			<g id="XMLID_74_">
				<path id="XMLID_75_" class="st10" d="M138.1,63.8l0.9,4l-1.4,0.3c-0.5,0.1-0.8,0.6-0.7,1.1c0.1,0.5,0.6,0.8,1.1,0.7l1.4-0.3
					L140,72l-1.4,0.3c-0.5,0.1-0.8,0.6-0.7,1.1c0.1,0.5,0.6,0.8,1.1,0.7l1.4-0.3l0.6,2.5l-1.4,0.3c-0.5,0.1-0.8,0.6-0.7,1.1
					c0.1,0.5,0.6,0.8,1.1,0.7l1.4-0.3l0.6,2.5l-1.4,0.3c-0.5,0.1-0.8,0.6-0.7,1.1c0.1,0.5,0.6,0.8,1.1,0.7l1.4-0.3l0.6,2.5l-1.4,0.3
					c-0.5,0.1-0.8,0.6-0.7,1.1c0.1,0.5,0.6,0.8,1.1,0.7l1.4-0.3l0.6,2.5l-1.4,0.3c-0.5,0.1-0.8,0.6-0.7,1.1c0.1,0.5,0.6,0.8,1.1,0.7
					l1.4-0.3l0.6,2.5l-1.4,0.3c-0.5,0.1-0.8,0.6-0.7,1.1c0.1,0.5,0.6,0.8,1.1,0.7l1.4-0.3l0.9,4l28-6.4l-8-34.9L138.1,63.8z
					 M171.3,90.5l-23.4,5.4l-0.4-1.7l1.4-0.3c0.5-0.1,0.8-0.6,0.7-1.1s-0.6-0.8-1.1-0.7l-1.4,0.3l-0.6-2.5l1.4-0.3
					c0.5-0.1,0.8-0.6,0.7-1.1c-0.1-0.5-0.6-0.8-1.1-0.7l-1.4,0.3l-0.6-2.5l1.4-0.3c0.5-0.1,0.8-0.6,0.7-1.1
					c-0.1-0.5-0.6-0.8-1.1-0.7l-1.4,0.3l-0.6-2.5l1.4-0.3c0.5-0.1,0.8-0.6,0.7-1.1c-0.1-0.5-0.6-0.8-1.1-0.7l-1.4,0.3l-0.6-2.5
					l1.4-0.3c0.5-0.1,0.8-0.6,0.7-1.1c-0.1-0.5-0.6-0.8-1.1-0.7l-1.4,0.3l-0.6-2.5l1.4-0.3c0.5-0.1,0.8-0.6,0.7-1.1
					c-0.1-0.5-0.6-0.8-1.1-0.7l-1.4,0.3l-0.6-2.5l1.4-0.3c0.5-0.1,0.8-0.6,0.7-1.1c-0.1-0.5-0.6-0.8-1.1-0.7l-1.4,0.3l-0.4-1.7
					l23.4-5.4L171.3,90.5z"/>
			</g>
		</g>
	</g>
</g>
<g id="XMLID_223_">
	
		<image style="overflow:visible;opacity:0.64;" width="107" height="107" xlink:href="E6A650AA6248C2B.png"  transform="matrix(1 0 0 1 107.4225 128.4881)">
	</image>
	<g>
		<g>
			<circle id="XMLID_37_" class="st10" cx="160.2" cy="180.3" r="38.1"/>
			<circle id="XMLID_36_" class="st7" cx="160.2" cy="180.3" r="32.3"/>
			<path id="XMLID_35_" class="st10" d="M175.7,162.7c-0.4,0.2-0.7,0.4-1.1,0.6c-0.4,0.2-0.7,0.4-1,0.7c-0.7,0.5-1.3,0.9-2,1.4
				c-0.6,0.5-1.2,1-1.9,1.5c-0.6,0.5-1.2,1-1.8,1.5c-1.2,1-2.3,2.1-3.3,3.2c-0.5,0.6-1.1,1.1-1.6,1.7c-0.5,0.6-1,1.1-1.5,1.7
				l-1.5,1.8l-1.4,1.8c-0.5,0.6-0.9,1.2-1.4,1.8c-0.4,0.6-0.9,1.2-1.3,1.9l-1.3,1.9l-1,1.5c0,0,0,0,0,0c-0.6-0.4-1.1-0.9-1.7-1.3
				c-0.6-0.4-1.1-0.8-1.7-1.2c-0.6-0.4-1.2-0.8-1.8-1.2c-0.6-0.4-1.3-0.7-1.9-1.1c-0.3-0.2-0.6-0.4-1-0.5c-0.3-0.2-0.7-0.3-1-0.5
				l-0.4,0.4c1.7,2.1,3.4,4.3,5.1,6.4l2.3,2.8c-0.1,0.2,0.5,0.6,0.5,0.6l2.4,3l0.4,0.5l0.4-0.5l2.3-3.2c0,0,0.5-0.3,0.3-0.5l2.7-3.8
				c0.9-1.2,1.7-2.5,2.6-3.7l2.6-3.7l5.2-7.5c1.8-2.5,3.4-5,5.1-7.5L175.7,162.7z"/>
		</g>
	</g>
</g>
<g id="XMLID_1_">
	
		<image style="overflow:visible;opacity:0.64;" width="107" height="107" xlink:href="E6A650AA6248C2C.png"  transform="matrix(1 0 0 1 101.4575 -205.9825)">
	</image>
	<g>
		<g>
			<circle id="XMLID_100_" class="st10" cx="154.8" cy="-153.7" r="38.1"/>
			<circle id="XMLID_99_" class="st11" cx="154.8" cy="-153.7" r="32.3"/>
			<g id="XMLID_95_">
				<path id="XMLID_96_" class="st10" d="M137.2-167.9l0.9,4l-1.4,0.3c-0.5,0.1-0.8,0.6-0.7,1.1c0.1,0.5,0.6,0.8,1.1,0.7l1.4-0.3
					l0.6,2.5l-1.4,0.3c-0.5,0.1-0.8,0.6-0.7,1.1c0.1,0.5,0.6,0.8,1.1,0.7l1.4-0.3l0.6,2.5l-1.4,0.3c-0.5,0.1-0.8,0.6-0.7,1.1
					c0.1,0.5,0.6,0.8,1.1,0.7l1.4-0.3l0.6,2.5l-1.4,0.3c-0.5,0.1-0.8,0.6-0.7,1.1c0.1,0.5,0.6,0.8,1.1,0.7l1.4-0.3l0.6,2.5l-1.4,0.3
					c-0.5,0.1-0.8,0.6-0.7,1.1c0.1,0.5,0.6,0.8,1.1,0.7l1.4-0.3l0.6,2.5l-1.4,0.3c-0.5,0.1-0.8,0.6-0.7,1.1c0.1,0.5,0.6,0.8,1.1,0.7
					l1.4-0.3l0.6,2.5l-1.4,0.3c-0.5,0.1-0.8,0.6-0.7,1.1c0.1,0.5,0.6,0.8,1.1,0.7l1.4-0.3l0.9,4l28-6.4l-8-34.9L137.2-167.9z
					 M170.5-141.2l-23.4,5.4l-0.4-1.7l1.4-0.3c0.5-0.1,0.8-0.6,0.7-1.1c-0.1-0.5-0.6-0.8-1.1-0.7l-1.4,0.3l-0.6-2.5l1.4-0.3
					c0.5-0.1,0.8-0.6,0.7-1.1c-0.1-0.5-0.6-0.8-1.1-0.7l-1.4,0.3l-0.6-2.5l1.4-0.3c0.5-0.1,0.8-0.6,0.7-1.1
					c-0.1-0.5-0.6-0.8-1.1-0.7l-1.4,0.3l-0.6-2.5l1.4-0.3c0.5-0.1,0.8-0.6,0.7-1.1c-0.1-0.5-0.6-0.8-1.1-0.7l-1.4,0.3l-0.6-2.5
					l1.4-0.3c0.5-0.1,0.8-0.6,0.7-1.1c-0.1-0.5-0.6-0.8-1.1-0.7l-1.4,0.3l-0.6-2.5l1.4-0.3c0.5-0.1,0.8-0.6,0.7-1.1
					c-0.1-0.5-0.6-0.8-1.1-0.7l-1.4,0.3l-0.6-2.5l1.4-0.3c0.5-0.1,0.8-0.6,0.7-1.1c-0.1-0.5-0.6-0.8-1.1-0.7l-1.4,0.3l-0.4-1.7
					l23.4-5.4L170.5-141.2z"/>
			</g>
		</g>
	</g>
</g>
</svg>
