<?xml version="1.0" encoding="utf-8"?>
<!-- Generator: Adobe Illustrator 19.0.0, SVG Export Plug-In . SVG Version: 6.00 Build 0)  -->
<svg version="1.1" id="Layer_1" xmlns="http://www.w3.org/2000/svg" xmlns:xlink="http://www.w3.org/1999/xlink" x="0px" y="0px"
	 viewBox="270.8 -360 857.1 1081.6" style="enable-background:new 270.8 -360 857.1 1081.6;" xml:space="preserve">
<style type="text/css">
	.st0{fill:#45C3F1;}
	.st1{fill:none;stroke:#000000;stroke-miterlimit:10;}
	.st2{font-family:'ArialRoundedMTBold';}
	.st3{font-size:26.0765px;}
	.st4{font-size:22.817px;}
	.st5{font-family:'Arial-BoldMT';}
	.st6{fill:#FFFFFF;}
	.st7{fill:#4A63AE;}
	.st8{font-size:18px;}
	.st9{fill:url(#SVGID_1_);stroke:#010101;stroke-miterlimit:10;}
	.st10{fill:#130D1C;stroke:#FFFFFF;stroke-miterlimit:10;}
	.st11{fill:#010101;}
	.st12{font-family:'ArialMT';}
	.st13{fill:url(#SVGID_2_);stroke:#FFFFFF;stroke-miterlimit:10;}
	.st14{fill:none;stroke:#F58120;stroke-miterlimit:10;}
	.st15{fill:#F58120;}
	.st16{fill:none;stroke:#231F20;stroke-miterlimit:10;}
	.st17{fill:none;stroke:#FFFFFF;stroke-miterlimit:10;}
	.st18{fill:none;stroke:#010101;stroke-width:2;stroke-miterlimit:10;}
	.st19{fill:none;}
	.st20{fill:#3C70B7;}
	.st21{fill:#2D2F8A;}
	.st22{fill:#0E8B44;}
	.st23{fill:#651E5E;}
	.st24{font-family:'ArialNarrow';}
	.st25{font-size:23.5622px;}
	.st26{fill:#F8994C;}
	.st27{font-size:21px;}
	.st28{font-family:'ArialNarrow-Bold';}
</style>
<g>
	
		<image style="overflow:visible;opacity:0.75;" width="158" height="163" xlink:href="8E7DCE13BB2AE552.png"  transform="matrix(1 0 0 1 764.9461 -27.9903)">
	</image>
	<g>
		<path class="st0" d="M889.4,53.2c-1.2,0-2.3,0.3-3.4,0.6l-5.3-7.3l5.3-7.3c1.1,0.4,2.2,0.6,3.4,0.6c6,0,10.9-5.1,10.9-11.3
			s-4.9-11.3-10.9-11.3c-2.5,0-4.8,0.9-6.6,2.4l-35-24.2c0.3-0.9,0.4-1.9,0.4-2.9c0-6.2-4.9-11.3-10.9-11.3c-6,0-10.9,5.1-10.9,11.3
			c0,0,0,0,0,0L793.9,3.8c-2-2.7-5.1-4.5-8.7-4.5c-6,0-10.9,5.1-10.9,11.3s4.9,11.3,10.9,11.3c0.8,0,1.6-0.1,2.4-0.3l6.3,10.9
			l-3.9,4c-1.5-0.8-3.1-1.2-4.8-1.2c-6,0-10.9,5.1-10.9,11.3s4.9,11.3,10.9,11.3c1.7,0,3.4-0.5,4.8-1.2l3.9,4l-6.3,10.9
			c-0.8-0.2-1.5-0.3-2.4-0.3c-6,0-10.9,5.1-10.9,11.3s4.9,11.3,10.9,11.3c3.5,0,6.7-1.8,8.7-4.5l32.6,11.2c0,0,0,0,0,0
			c0,6.2,4.9,11.3,10.9,11.3c6,0,10.9-5.1,10.9-11.3c0-1-0.2-2-0.4-2.9l35-24.2c1.8,1.5,4.1,2.4,6.6,2.4c6,0,10.9-5.1,10.9-11.3
			S895.4,53.2,889.4,53.2z M796.1,46.5l5-1.7l1,1.7l-1,1.7L796.1,46.5C796.1,46.5,796.1,46.5,796.1,46.5
			C796.1,46.5,796.1,46.5,796.1,46.5z M867.1,39.6l-3.8,2.6l-14.7-10.2h13L867.1,39.6z M870.2,32.1h7.8l-5.2,3.6L870.2,32.1z
			 M843.9,55.6c-1.8-1.5-4.1-2.4-6.6-2.4c-1.7,0-3.4,0.5-4.8,1.2l-7.7-7.9l7.7-7.9c1.5,0.8,3.1,1.2,4.8,1.2c2.5,0,4.8-0.9,6.6-2.4
			l13.2,9.1L843.9,55.6z M811.9,43.3l3.1,3.3l-3.1,3.3l-1.9-3.3L811.9,43.3z M817.6,39.1l7-2.4l-4.6,4.8L817.6,39.1z M819.9,51.5
			l4.7,4.8l-7-2.4L819.9,51.5z M837.3,32.7c-2.2,0-4-1.9-4-4.2s1.8-4.2,4-4.2c2.2,0,4,1.9,4,4.2S839.5,32.7,837.3,32.7z M826.4,28.5
			l-7.4,2.6l2.5-4.3L826.4,28.5C826.4,28.5,826.4,28.5,826.4,28.5C826.4,28.5,826.4,28.5,826.4,28.5z M826.4,64.5
			C826.4,64.5,826.4,64.5,826.4,64.5C826.4,64.5,826.4,64.5,826.4,64.5l-5,1.7l-2.5-4.3L826.4,64.5z M833.3,64.5
			c0-2.3,1.8-4.2,4-4.2c2.2,0,4,1.9,4,4.2c0,2.3-1.8,4.2-4,4.2C835.1,68.6,833.3,66.8,833.3,64.5z M863.3,50.8l3.8,2.6l-5.5,7.6h-13
			L863.3,50.8z M872.8,57.3l5.2,3.6h-7.8L872.8,57.3z M871.2,47.7l-1.7-1.2l1.7-1.2l0.8,1.2L871.2,47.7z M865,25L852.1,7L878,25H865
			z M840.7,3.2L856.5,25h-8.9c-1.4-4.5-5.5-7.7-10.3-7.7c-3.5,0-6.7,1.8-8.7,4.5l-3.6-1.2l9.9-17c0.8,0.2,1.5,0.3,2.4,0.3
			C838.5,3.8,839.6,3.6,840.7,3.2z M818.4,18.3l-0.8-0.3l2.4-2.5L818.4,18.3z M814.8,24.5l-4.2,7.3l-3.1-3.3l4.8-4.9L814.8,24.5z
			 M802.6,23.5l-4.7-4.8l7,2.4L802.6,23.5z M802.6,33.6l2.3,2.4l-0.8,0.3L802.6,33.6L802.6,33.6z M804.1,56.8l0.8,0.3l-2.3,2.4l0,0
			L804.1,56.8z M802.6,69.5l2.3,2.4l-7,2.4L802.6,69.5z M807.4,64.5l3.1-3.3l4.2,7.3l-2.6,0.9L807.4,64.5z M818.4,74.8l1.6,2.8
			l-2.4-2.5L818.4,74.8z M834.9,89.5l-9.9-17l3.6-1.2c2,2.7,5.1,4.5,8.7,4.5c4.8,0,8.8-3.2,10.3-7.7h8.9l-15.8,21.8
			c-1.1-0.4-2.2-0.6-3.4-0.6C836.5,89.2,835.7,89.3,834.9,89.5z M865,68.1h13l-26,17.9L865,68.1z M893.4,28.5c0,2.3-1.8,4.2-4,4.2
			s-4-1.9-4-4.2s1.8-4.2,4-4.2S893.4,26.2,893.4,28.5z M837.3-11.6c2.2,0,4,1.9,4,4.2s-1.8,4.2-4,4.2c-2.2,0-4-1.9-4-4.2
			S835.1-11.6,837.3-11.6z M824.6,0.7l-14.3,14.8l-14.2-4.9c0,0,0,0,0,0s0,0,0,0L824.6,0.7z M781.2,10.5c0-2.3,1.8-4.2,4-4.2
			s4,1.9,4,4.2c0,1.1-0.4,2.2-1.2,2.9c0,0,0,0,0,0c0,0,0,0,0,0c-0.7,0.7-1.7,1.2-2.8,1.2C783,14.7,781.2,12.8,781.2,10.5z
			 M781.2,46.5c0-2.3,1.8-4.2,4-4.2s4,1.9,4,4.2c0,1.1-0.4,2.2-1.2,2.9c0,0,0,0,0,0c0,0,0,0,0,0c-0.7,0.7-1.7,1.2-2.8,1.2
			C783,50.7,781.2,48.8,781.2,46.5z M785.2,86.6c-2.2,0-4-1.9-4-4.2c0-2.3,1.8-4.2,4-4.2s4,1.9,4,4.2
			C789.2,84.8,787.4,86.6,785.2,86.6z M796.1,82.5l14.2-4.9l14.3,14.8L796.1,82.5C796.1,82.5,796.1,82.5,796.1,82.5
			C796.1,82.5,796.1,82.5,796.1,82.5z M837.3,104.6c-2.2,0-4-1.9-4-4.2c0-1.1,0.4-2.2,1.2-2.9c0,0,0,0,0,0c0,0,0,0,0,0
			c0.7-0.7,1.7-1.2,2.8-1.2c2.2,0,4,1.9,4,4.2S839.5,104.6,837.3,104.6z M889.4,68.6c-2.2,0-4-1.9-4-4.2c0-2.3,1.8-4.2,4-4.2
			s4,1.9,4,4.2C893.4,66.8,891.6,68.6,889.4,68.6z"/>
		<path class="st1" d="M889.4,53.2c-1.2,0-2.3,0.3-3.4,0.6l-5.3-7.3l5.3-7.3c1.1,0.4,2.2,0.6,3.4,0.6c6,0,10.9-5.1,10.9-11.3
			s-4.9-11.3-10.9-11.3c-2.5,0-4.8,0.9-6.6,2.4l-35-24.2c0.3-0.9,0.4-1.9,0.4-2.9c0-6.2-4.9-11.3-10.9-11.3c-6,0-10.9,5.1-10.9,11.3
			c0,0,0,0,0,0L793.9,3.8c-2-2.7-5.1-4.5-8.7-4.5c-6,0-10.9,5.1-10.9,11.3s4.9,11.3,10.9,11.3c0.8,0,1.6-0.1,2.4-0.3l6.3,10.9
			l-3.9,4c-1.5-0.8-3.1-1.2-4.8-1.2c-6,0-10.9,5.1-10.9,11.3s4.9,11.3,10.9,11.3c1.7,0,3.4-0.5,4.8-1.2l3.9,4l-6.3,10.9
			c-0.8-0.2-1.5-0.3-2.4-0.3c-6,0-10.9,5.1-10.9,11.3s4.9,11.3,10.9,11.3c3.5,0,6.7-1.8,8.7-4.5l32.6,11.2c0,0,0,0,0,0
			c0,6.2,4.9,11.3,10.9,11.3c6,0,10.9-5.1,10.9-11.3c0-1-0.2-2-0.4-2.9l35-24.2c1.8,1.5,4.1,2.4,6.6,2.4c6,0,10.9-5.1,10.9-11.3
			S895.4,53.2,889.4,53.2z M796.1,46.5l5-1.7l1,1.7l-1,1.7L796.1,46.5C796.1,46.5,796.1,46.5,796.1,46.5
			C796.1,46.5,796.1,46.5,796.1,46.5z M867.1,39.6l-3.8,2.6l-14.7-10.2h13L867.1,39.6z M870.2,32.1h7.8l-5.2,3.6L870.2,32.1z
			 M843.9,55.6c-1.8-1.5-4.1-2.4-6.6-2.4c-1.7,0-3.4,0.5-4.8,1.2l-7.7-7.9l7.7-7.9c1.5,0.8,3.1,1.2,4.8,1.2c2.5,0,4.8-0.9,6.6-2.4
			l13.2,9.1L843.9,55.6z M811.9,43.3l3.1,3.3l-3.1,3.3l-1.9-3.3L811.9,43.3z M817.6,39.1l7-2.4l-4.6,4.8L817.6,39.1z M819.9,51.5
			l4.7,4.8l-7-2.4L819.9,51.5z M837.3,32.7c-2.2,0-4-1.9-4-4.2s1.8-4.2,4-4.2c2.2,0,4,1.9,4,4.2S839.5,32.7,837.3,32.7z M826.4,28.5
			l-7.4,2.6l2.5-4.3L826.4,28.5C826.4,28.5,826.4,28.5,826.4,28.5C826.4,28.5,826.4,28.5,826.4,28.5z M826.4,64.5
			C826.4,64.5,826.4,64.5,826.4,64.5C826.4,64.5,826.4,64.5,826.4,64.5l-5,1.7l-2.5-4.3L826.4,64.5z M833.3,64.5
			c0-2.3,1.8-4.2,4-4.2c2.2,0,4,1.9,4,4.2c0,2.3-1.8,4.2-4,4.2C835.1,68.6,833.3,66.8,833.3,64.5z M863.3,50.8l3.8,2.6l-5.5,7.6h-13
			L863.3,50.8z M872.8,57.3l5.2,3.6h-7.8L872.8,57.3z M871.2,47.7l-1.7-1.2l1.7-1.2l0.8,1.2L871.2,47.7z M865,25L852.1,7L878,25H865
			z M840.7,3.2L856.5,25h-8.9c-1.4-4.5-5.5-7.7-10.3-7.7c-3.5,0-6.7,1.8-8.7,4.5l-3.6-1.2l9.9-17c0.8,0.2,1.5,0.3,2.4,0.3
			C838.5,3.8,839.6,3.6,840.7,3.2z M818.4,18.3l-0.8-0.3l2.4-2.5L818.4,18.3z M814.8,24.5l-4.2,7.3l-3.1-3.3l4.8-4.9L814.8,24.5z
			 M802.6,23.5l-4.7-4.8l7,2.4L802.6,23.5z M802.6,33.6l2.3,2.4l-0.8,0.3L802.6,33.6L802.6,33.6z M804.1,56.8l0.8,0.3l-2.3,2.4l0,0
			L804.1,56.8z M802.6,69.5l2.3,2.4l-7,2.4L802.6,69.5z M807.4,64.5l3.1-3.3l4.2,7.3l-2.6,0.9L807.4,64.5z M818.4,74.8l1.6,2.8
			l-2.4-2.5L818.4,74.8z M834.9,89.5l-9.9-17l3.6-1.2c2,2.7,5.1,4.5,8.7,4.5c4.8,0,8.8-3.2,10.3-7.7h8.9l-15.8,21.8
			c-1.1-0.4-2.2-0.6-3.4-0.6C836.5,89.2,835.7,89.3,834.9,89.5z M865,68.1h13l-26,17.9L865,68.1z M893.4,28.5c0,2.3-1.8,4.2-4,4.2
			s-4-1.9-4-4.2s1.8-4.2,4-4.2S893.4,26.2,893.4,28.5z M837.3-11.6c2.2,0,4,1.9,4,4.2s-1.8,4.2-4,4.2c-2.2,0-4-1.9-4-4.2
			S835.1-11.6,837.3-11.6z M824.6,0.7l-14.3,14.8l-14.2-4.9c0,0,0,0,0,0s0,0,0,0L824.6,0.7z M781.2,10.5c0-2.3,1.8-4.2,4-4.2
			s4,1.9,4,4.2c0,1.1-0.4,2.2-1.2,2.9c0,0,0,0,0,0c0,0,0,0,0,0c-0.7,0.7-1.7,1.2-2.8,1.2C783,14.7,781.2,12.8,781.2,10.5z
			 M781.2,46.5c0-2.3,1.8-4.2,4-4.2s4,1.9,4,4.2c0,1.1-0.4,2.2-1.2,2.9c0,0,0,0,0,0c0,0,0,0,0,0c-0.7,0.7-1.7,1.2-2.8,1.2
			C783,50.7,781.2,48.8,781.2,46.5z M785.2,86.6c-2.2,0-4-1.9-4-4.2c0-2.3,1.8-4.2,4-4.2s4,1.9,4,4.2
			C789.2,84.8,787.4,86.6,785.2,86.6z M796.1,82.5l14.2-4.9l14.3,14.8L796.1,82.5C796.1,82.5,796.1,82.5,796.1,82.5
			C796.1,82.5,796.1,82.5,796.1,82.5z M837.3,104.6c-2.2,0-4-1.9-4-4.2c0-1.1,0.4-2.2,1.2-2.9c0,0,0,0,0,0c0,0,0,0,0,0
			c0.7-0.7,1.7-1.2,2.8-1.2c2.2,0,4,1.9,4,4.2S839.5,104.6,837.3,104.6z M889.4,68.6c-2.2,0-4-1.9-4-4.2c0-2.3,1.8-4.2,4-4.2
			s4,1.9,4,4.2C893.4,66.8,891.6,68.6,889.4,68.6z"/>
	</g>
</g>
<g>
	<text transform="matrix(0.9693 0 0 1 317.4409 -315.0669)" class="st2 st3">DeepARG-DB-v1.1.0</text>
</g>
<g>
	<text transform="matrix(0.9693 0 0 1 456.1567 -261.834)" class="st2 st4">CARD+ARDB</text>
</g>
<g>
	<text transform="matrix(0.9693 0 0 1 306.0078 -94.9029)" class="st5 st4">UNIPROT</text>
</g>
<g>
	<text transform="matrix(0.9693 0 0 1 497.9712 -75.1431)" class="st2 st4">Train</text>
</g>
<g>
	<text transform="matrix(0.9693 0 0 1 327.396 150.2138)" class="st2 st4">Test</text>
</g>
<g>
	<path class="st6" d="M644.2-101.9"/>
	<path class="st1" d="M644.2-101.9"/>
</g>
<g>
	<path class="st6" d="M414.6-101.9"/>
	<path class="st1" d="M414.6-101.9"/>
</g>
<g>
	<text transform="matrix(0.9693 0 0 1 747.4619 -282.2012)" class="st2 st4">Sequence Alignment</text>
</g>
<g>
	
		<image style="overflow:visible;opacity:0.75;" width="432" height="228" xlink:href="8E7DCE13BB2AE555.png"  transform="matrix(1 0 0 1 641.9461 -285.9903)">
	</image>
	<g>
		<rect x="650.3" y="-277.9" class="st6" width="401.5" height="197.8"/>
	</g>
</g>
<g>
	<text transform="matrix(1.0154 0 0 1 807.7061 -237.8189)" class="st7 st2 st8">ARGs DB</text>
	<text transform="matrix(4.431735e-03 -0.9848 1 4.360000e-03 782.6042 -145.9095)" class="st7 st2 st8">UNIPROT</text>
	<linearGradient id="SVGID_1_" gradientUnits="userSpaceOnUse" x1="789.3915" y1="-199.989" x2="899.7814" y2="-199.989">
		<stop  offset="5.508610e-02" style="stop-color:#2B2728"/>
		<stop  offset="8.859101e-02" style="stop-color:#2E2A2A"/>
		<stop  offset="0.1209" style="stop-color:#363132"/>
		<stop  offset="0.1527" style="stop-color:#433E3E"/>
		<stop  offset="0.1842" style="stop-color:#565151"/>
		<stop  offset="0.2155" style="stop-color:#736E6E"/>
		<stop  offset="0.2462" style="stop-color:#9A9797"/>
		<stop  offset="0.2666" style="stop-color:#BEBDBD"/>
		<stop  offset="0.2771" style="stop-color:#A9A7A7"/>
		<stop  offset="0.2975" style="stop-color:#7D7A7A"/>
		<stop  offset="0.3096" style="stop-color:#656262"/>
		<stop  offset="0.3166" style="stop-color:#6B6969"/>
		<stop  offset="0.3266" style="stop-color:#7E7B7B"/>
		<stop  offset="0.3383" style="stop-color:#9B9999"/>
		<stop  offset="0.3514" style="stop-color:#C5C4C4"/>
		<stop  offset="0.3654" style="stop-color:#F9F9F9"/>
		<stop  offset="0.3668" style="stop-color:#FFFFFF"/>
		<stop  offset="0.4039" style="stop-color:#CCCBCB"/>
		<stop  offset="0.4703" style="stop-color:#767374"/>
		<stop  offset="0.5171" style="stop-color:#403C3D"/>
		<stop  offset="0.5396" style="stop-color:#2B2728"/>
		<stop  offset="0.6595" style="stop-color:#2C2829"/>
		<stop  offset="0.661" style="stop-color:#2C2829"/>
		<stop  offset="0.6688" style="stop-color:#2F2B2C"/>
		<stop  offset="0.6773" style="stop-color:#373333"/>
		<stop  offset="0.686" style="stop-color:#444040"/>
		<stop  offset="0.6949" style="stop-color:#585454"/>
		<stop  offset="0.704" style="stop-color:#757171"/>
		<stop  offset="0.7131" style="stop-color:#9B9999"/>
		<stop  offset="0.7158" style="stop-color:#ABAAAA"/>
		<stop  offset="0.7666" style="stop-color:#908E8F"/>
		<stop  offset="0.8076" style="stop-color:#818081"/>
		<stop  offset="0.8115" style="stop-color:#7B797A"/>
		<stop  offset="0.8321" style="stop-color:#5E5C5C"/>
		<stop  offset="0.8504" style="stop-color:#4A4748"/>
		<stop  offset="0.8656" style="stop-color:#3F3C3D"/>
		<stop  offset="0.8756" style="stop-color:#3B3839"/>
		<stop  offset="0.8849" style="stop-color:#2F2D2E"/>
		<stop  offset="0.9093" style="stop-color:#151415"/>
		<stop  offset="0.9313" style="stop-color:#060505"/>
		<stop  offset="0.9486" style="stop-color:#000000"/>
		<stop  offset="0.9798" style="stop-color:#8F8D8D"/>
	</linearGradient>
	<rect x="789.4" y="-208.1" class="st9" width="110.4" height="16.3"/>
	<rect x="789.4" y="-175.7" class="st10" width="110.4" height="16.3"/>
	<text transform="matrix(1.0154 0 0 1 758.7471 -117.7139)"><tspan x="0" y="0" class="st11 st12 st8">Matrix representation</tspan><tspan x="31" y="21.6" class="st11 st12 st8">of alignments</tspan></text>
	<linearGradient id="SVGID_2_" gradientUnits="userSpaceOnUse" x1="789.3915" y1="-183.8077" x2="899.7814" y2="-183.8077">
		<stop  offset="0" style="stop-color:#FFFFFF"/>
		<stop  offset="0" style="stop-color:#423F40"/>
		<stop  offset="0" style="stop-color:#5C5859"/>
		<stop  offset="0" style="stop-color:#787575"/>
		<stop  offset="0" style="stop-color:#8E8C8C"/>
		<stop  offset="0" style="stop-color:#9D9B9C"/>
		<stop  offset="0" style="stop-color:#A3A2A3"/>
		<stop  offset="0" style="stop-color:#615C5C"/>
		<stop  offset="0" style="stop-color:#3A3536"/>
		<stop  offset="0" style="stop-color:#2B2728"/>
		<stop  offset="0.1468" style="stop-color:#2B2728"/>
		<stop  offset="0.1721" style="stop-color:#2B2728"/>
		<stop  offset="0.3015" style="stop-color:#2D2829"/>
		<stop  offset="0.3481" style="stop-color:#312D2D"/>
		<stop  offset="0.3814" style="stop-color:#393535"/>
		<stop  offset="0.4083" style="stop-color:#454040"/>
		<stop  offset="0.4313" style="stop-color:#555050"/>
		<stop  offset="0.4516" style="stop-color:#6B6666"/>
		<stop  offset="0.4701" style="stop-color:#898484"/>
		<stop  offset="0.4865" style="stop-color:#ADABAB"/>
		<stop  offset="0.4931" style="stop-color:#C2C1C1"/>
		<stop  offset="0.5522" style="stop-color:#444444"/>
		<stop  offset="0.5865" style="stop-color:#000000"/>
	</linearGradient>
	<rect x="789.4" y="-192" class="st13" width="110.4" height="16.3"/>
	<g>
		<g>
			<path class="st14" d="M-554.4,740.4c-2.3,5-7.6,13.9-19.6,22.1c-5.3,3.6-21.3,14.3-46.2,15.6c-18.5,1-32.7-3.7-38.5-5.7
				c-5.2-1.8-9.5-3.7-12.9-5.5"/>
			<g>
				<path class="st15" d="M-676.8,763.9c3,0.5,6.9,0.6,9.8,0l-3.8,3.3l-0.8,5C-672.7,769.5-674.9,766.2-676.8,763.9z"/>
			</g>
		</g>
	</g>
	<rect x="789.4" y="-233.8" class="st16" width="110.4" height="100.1"/>
	<rect x="837" y="-192" class="st17" width="15.2" height="16.3"/>
	<text transform="matrix(1.0154 0 0 1 904.6934 -195.854)" class="st11 st12 st8">Multiple good hits</text>
	<text transform="matrix(1.0154 0 0 1 903.8291 -178.9942)" class="st11 st12 st8">One prominent hit</text>
	<text transform="matrix(1.0154 0 0 1 904.7617 -162.1333)" class="st11 st12 st8">No ARG hits</text>
</g>
<text transform="matrix(0.9947 0 0 1 685.8447 -183.8082)"><tspan x="0" y="0" class="st11 st12 st8">BitScore </tspan><tspan x="-7" y="21.6" class="st11 st12 st8">distribution</tspan></text>
<g>
	
		<image style="overflow:visible;opacity:0.75;" width="51" height="93" xlink:href="8E7DCE13BB2AE554.png"  transform="matrix(1 0 0 1 818.9461 -88.9903)">
	</image>
	<g>
		<g>
			<line class="st18" x1="837" y1="-80.1" x2="837.2" y2="-27.6"/>
			<g>
				<path class="st11" d="M847.3-29.3c-4.2,2.5-7.5,6.4-10.1,10.6c-2.6-4.2-6-7.9-10.2-10.5l0-2.5c4,2.6,7.5,5.7,10.2,9.6
					c2.6-3.9,6.1-7.2,10.1-9.8L847.3-29.3z"/>
				<path class="st11" d="M847.3-35.3c-4.2,2.5-7.5,6.4-10.1,10.6c-2.6-4.2-6-7.9-10.2-10.5l0-2.5c4,2.6,7.5,5.7,10.2,9.6
					c2.6-3.9,6.1-7.2,10.1-9.8L847.3-35.3z"/>
			</g>
		</g>
	</g>
</g>
<g>
	<path class="st19" d="M-624.7,1042.7"/>
</g>
<g>
	
		<image style="overflow:visible;opacity:0.75;" width="89" height="33" xlink:href="8E7DCE13BB2AE55B.png"  transform="matrix(1 0 0 1 908.9461 38.0097)">
	</image>
	<g>
		<line class="st18" x1="917.9" y1="47.7" x2="975.6" y2="47.7"/>
	</g>
</g>
<g>
	
		<image style="overflow:visible;opacity:0.75;" width="101" height="51" xlink:href="8E7DCE13BB2AE55C.png"  transform="matrix(1 0 0 1 690.9461 25.0097)">
	</image>
	<g>
		<g>
			<line class="st18" x1="699.4" y1="43.6" x2="760.1" y2="43.3"/>
			<g>
				<path class="st11" d="M758.5,33.2c2.5,4.2,6.4,7.5,10.6,10.1c-4.2,2.6-7.9,6-10.5,10.2l-2.5,0c2.6-4,5.7-7.5,9.6-10.2
					c-3.9-2.6-7.2-6.1-9.8-10.1L758.5,33.2z"/>
				<path class="st11" d="M752.4,33.2c2.5,4.2,6.4,7.5,10.6,10.1c-4.2,2.6-7.9,6-10.5,10.2l-2.5,0c2.6-4,5.7-7.5,9.6-10.2
					c-3.9-2.6-7.2-6.1-9.8-10.1L752.4,33.2z"/>
			</g>
		</g>
	</g>
</g>
<g>
	
		<image style="overflow:visible;opacity:0.75;" width="33" height="141" xlink:href="8E7DCE13BB2AE55D.png"  transform="matrix(1 0 0 1 966.9461 38.0097)">
	</image>
	<g>
		<line class="st18" x1="976.4" y1="46.5" x2="976.4" y2="156.7"/>
	</g>
</g>
<g>
	
		<image style="overflow:visible;opacity:0.75;" width="33" height="142" xlink:href="8E7DCE13BB2AE55E.png"  transform="matrix(1 0 0 1 688.9461 36.0097)">
	</image>
	<g>
		<line class="st18" x1="698.8" y1="44.9" x2="698.8" y2="155.5"/>
	</g>
</g>
<g>
	
		<image style="overflow:visible;opacity:0.75;" width="309" height="33" xlink:href="8E7DCE13BB2AE55F.png"  transform="matrix(1 0 0 1 689.9461 146.0097)">
	</image>
	<g>
		<line class="st18" x1="698.8" y1="155.5" x2="976.4" y2="155.9"/>
	</g>
</g>
<g>
	<text transform="matrix(0.9693 0 0 1 734.2305 184.1689)" class="st2 st4">Update parameters</text>
</g>
<g>
	
		<image style="overflow:visible;opacity:0.75;" width="51" height="93" xlink:href="8E7DCE13BB2AE548.png"  transform="matrix(1 0 0 1 818.9461 189.0097)">
	</image>
	<g>
		<g>
			<line class="st18" x1="837.1" y1="198" x2="837.4" y2="250.4"/>
			<g>
				<path class="st11" d="M847.5,248.7c-4.2,2.5-7.5,6.4-10.1,10.6c-2.6-4.2-6-7.9-10.2-10.5l0-2.5c4,2.6,7.5,5.7,10.2,9.6
					c2.6-3.9,6.1-7.2,10.1-9.8L847.5,248.7z"/>
				<path class="st11" d="M847.5,242.7c-4.2,2.5-7.5,6.4-10.1,10.6c-2.6-4.2-6-7.9-10.2-10.5l0-2.5c4,2.6,7.5,5.7,10.2,9.6
					c2.6-3.9,6.1-7.2,10.1-9.8L847.5,242.7z"/>
			</g>
		</g>
	</g>
</g>
<g>
	
		<image style="overflow:visible;opacity:0.75;" width="243" height="51" xlink:href="982EC8DA0D3324CA.png"  transform="matrix(1 0 0 1 406.9461 -260.9903)">
	</image>
	<g>
		<g>
			<line class="st18" x1="415.2" y1="-242.2" x2="618.7" y2="-242.2"/>
			<g>
				<path class="st11" d="M617.1-252.3c2.5,4.2,6.4,7.5,10.5,10.1c-4.2,2.5-7.9,6-10.5,10.1h-2.5c2.6-4,5.8-7.5,9.7-10.1
					c-3.9-2.7-7.2-6.2-9.7-10.1H617.1z"/>
				<path class="st11" d="M611.1-252.3c2.5,4.2,6.4,7.5,10.5,10.1c-4.2,2.5-7.9,6-10.5,10.1h-2.5c2.6-4,5.8-7.5,9.7-10.1
					c-3.9-2.7-7.2-6.2-9.7-10.1H611.1z"/>
			</g>
		</g>
	</g>
</g>
<g>
	
		<image style="overflow:visible;opacity:0.75;" width="243" height="51" xlink:href="982EC8DA0D3324CD.png"  transform="matrix(1 0 0 1 407.9461 -119.9903)">
	</image>
	<g>
		<g>
			<line class="st18" x1="416.4" y1="-101.9" x2="619.9" y2="-101.9"/>
			<g>
				<path class="st11" d="M618.3-112c2.5,4.2,6.4,7.5,10.5,10.1c-4.2,2.5-7.9,6-10.5,10.1h-2.5c2.6-4,5.8-7.5,9.7-10.1
					c-3.9-2.7-7.2-6.2-9.7-10.1H618.3z"/>
				<path class="st11" d="M612.3-112c2.5,4.2,6.4,7.5,10.5,10.1c-4.2,2.5-7.9,6-10.5,10.1h-2.5c2.6-4,5.8-7.5,9.7-10.1
					c-3.9-2.7-7.2-6.2-9.7-10.1H612.3z"/>
			</g>
		</g>
	</g>
</g>
<g>
	
		<image style="overflow:visible;opacity:0.75;" width="51" height="122" xlink:href="982EC8DA0D3324CE.png"  transform="matrix(1 0 0 1 330.9461 -219.9903)">
	</image>
	<g>
		<g>
			<line class="st18" x1="349.4" y1="-211.5" x2="349.4" y2="-129.5"/>
			<g>
				<path class="st11" d="M359.5-131.1c-4.2,2.5-7.5,6.4-10.1,10.5c-2.5-4.2-6-7.9-10.1-10.5v-2.5c4,2.6,7.5,5.8,10.1,9.7
					c2.7-3.9,6.2-7.2,10.1-9.7V-131.1z"/>
				<path class="st11" d="M359.5-137.1c-4.2,2.5-7.5,6.4-10.1,10.5c-2.5-4.2-6-7.9-10.1-10.5v-2.5c4,2.6,7.5,5.8,10.1,9.7
					c2.7-3.9,6.2-7.2,10.1-9.7V-137.1z"/>
			</g>
		</g>
	</g>
</g>
<g>
	
		<image style="overflow:visible;opacity:0.75;" width="51" height="244" xlink:href="982EC8DA0D3324CC.png"  transform="matrix(1 0 0 1 330.9461 -95.9903)">
	</image>
	<g>
		<g>
			<line class="st18" x1="349.4" y1="-87.8" x2="349.4" y2="116.7"/>
			<g>
				<path class="st11" d="M359.5,115.1c-4.2,2.5-7.5,6.4-10.1,10.5c-2.5-4.2-6-7.9-10.1-10.5v-2.5c4,2.6,7.5,5.8,10.1,9.7
					c2.7-3.9,6.2-7.2,10.1-9.7V115.1z"/>
				<path class="st11" d="M359.5,109.1c-4.2,2.5-7.5,6.4-10.1,10.5c-2.5-4.2-6-7.9-10.1-10.5v-2.5c4,2.6,7.5,5.8,10.1,9.7
					c2.7-3.9,6.2-7.2,10.1-9.7V109.1z"/>
			</g>
		</g>
	</g>
</g>
<g>
	
		<image style="overflow:visible;opacity:0.75;" width="33" height="495" xlink:href="982EC8DA0D3324CB.png"  transform="matrix(1 0 0 1 339.9461 152.0097)">
	</image>
	<g>
		<line class="st18" x1="349.4" y1="160.7" x2="349.4" y2="624.6"/>
	</g>
</g>
<g>
	
		<image style="overflow:visible;opacity:0.75;" width="451" height="51" xlink:href="982EC8DA0D3324D5.png"  transform="matrix(1 0 0 1 340.9461 606.0097)">
	</image>
	<g>
		<g>
			<line class="st18" x1="349.4" y1="624.6" x2="760.9" y2="624.6"/>
			<g>
				<path class="st11" d="M759.3,614.5c2.5,4.2,6.4,7.5,10.5,10.1c-4.2,2.5-7.9,6-10.5,10.1h-2.5c2.6-4,5.8-7.5,9.7-10.1
					c-3.9-2.7-7.2-6.2-9.7-10.1H759.3z"/>
				<path class="st11" d="M753.3,614.5c2.5,4.2,6.4,7.5,10.5,10.1c-4.2,2.5-7.9,6-10.5,10.1h-2.5c2.6-4,5.8-7.5,9.7-10.1
					c-3.9-2.7-7.2-6.2-9.7-10.1H753.3z"/>
			</g>
		</g>
	</g>
</g>
<g>
	<text transform="matrix(0.9693 0 0 1 801.4375 698.3066)" class="st20 st2 st4">Predict</text>
</g>
<g>
	<path class="st21" d="M804.4,388.6c-2.5,0-4.5-2.2-4.5-4.9c0-2.7,2-4.9,4.5-4.9s4.5,2.2,4.5,4.9
		C808.9,386.4,806.9,388.6,804.4,388.6z M804.4,380.4c-1.7,0-3,1.5-3,3.3c0,1.8,1.3,3.3,3,3.3s3-1.5,3-3.3
		C807.4,381.8,806.1,380.4,804.4,380.4z"/>
	<path class="st21" d="M820.9,393.5c-2.5,0-4.5-2.2-4.5-4.9s2-4.9,4.5-4.9s4.5,2.2,4.5,4.9S823.4,393.5,820.9,393.5z M820.9,385.3
		c-1.7,0-3,1.5-3,3.3s1.3,3.3,3,3.3s3-1.5,3-3.3S822.6,385.3,820.9,385.3z"/>
	<path class="st21" d="M823.9,368.8c-2.5,0-4.5-2.2-4.5-4.9c0-2.7,2-4.9,4.5-4.9s4.5,2.2,4.5,4.9
		C828.4,366.6,826.4,368.8,823.9,368.8z M823.9,360.6c-1.7,0-3,1.5-3,3.3c0,1.8,1.3,3.3,3,3.3s3-1.5,3-3.3
		C826.9,362.1,825.5,360.6,823.9,360.6z"/>
	<path class="st21" d="M837.4,360.6c-2.5,0-4.5-2.2-4.5-4.9c0-2.7,2-4.9,4.5-4.9s4.5,2.2,4.5,4.9
		C841.9,358.4,839.8,360.6,837.4,360.6z M837.4,352.4c-1.7,0-3,1.5-3,3.3c0,1.8,1.3,3.3,3,3.3s3-1.5,3-3.3
		C840.4,353.8,839,352.4,837.4,352.4z"/>
	<ellipse class="st21" cx="858.3" cy="309.5" rx="4.5" ry="4.9"/>
	<ellipse class="st21" cx="858.3" cy="309.5" rx="3" ry="3.3"/>
	<path class="st21" d="M841.9,382c-2.5,0-4.5-2.2-4.5-4.9c0-2.7,2-4.9,4.5-4.9s4.5,2.2,4.5,4.9C846.3,379.8,844.3,382,841.9,382z
		 M841.9,373.8c-1.7,0-3,1.5-3,3.3s1.3,3.3,3,3.3s3-1.5,3-3.3S843.5,373.8,841.9,373.8z"/>
	<path class="st21" d="M874.8,382c-2.5,0-4.5-2.2-4.5-4.9c0-2.7,2-4.9,4.5-4.9s4.5,2.2,4.5,4.9C879.3,379.8,877.3,382,874.8,382z
		 M874.8,373.8c-1.7,0-3,1.5-3,3.3s1.3,3.3,3,3.3s3-1.5,3-3.3S876.4,373.8,874.8,373.8z"/>
	<path class="st21" d="M888.3,382c-2.5,0-4.5-2.2-4.5-4.9c0-2.7,2-4.9,4.5-4.9c2.5,0,4.5,2.2,4.5,4.9
		C892.8,379.8,890.7,382,888.3,382z M888.3,373.8c-1.7,0-3,1.5-3,3.3s1.3,3.3,3,3.3c1.7,0,3-1.5,3-3.3S889.9,373.8,888.3,373.8z"/>
	<path class="st21" d="M856.8,367.2c-2.5,0-4.5-2.2-4.5-4.9c0-2.7,2-4.9,4.5-4.9s4.5,2.2,4.5,4.9C861.3,365,859.3,367.2,856.8,367.2
		z M856.8,358.9c-1.7,0-3,1.5-3,3.3c0,1.8,1.3,3.3,3,3.3s3-1.5,3-3.3C859.8,360.4,858.5,358.9,856.8,358.9z"/>
	<ellipse class="st21" cx="841.9" cy="411.7" rx="4.5" ry="4.9"/>
	<path class="st21" d="M894.2,370.5c-2.5,0-4.5-2.2-4.5-4.9c0-2.7,2-4.9,4.5-4.9s4.5,2.2,4.5,4.9
		C898.7,368.3,896.7,370.5,894.2,370.5L894.2,370.5z M894.2,362.2c-1.7,0-3,1.5-3,3.3c0,1.8,1.3,3.3,3,3.3s3-1.5,3-3.3
		C897.2,363.7,895.9,362.2,894.2,362.2z"/>
	<path class="st21" d="M888.3,347.4c-2.5,0-4.5-2.2-4.5-4.9c0-2.7,2-4.9,4.5-4.9c2.5,0,4.5,2.2,4.5,4.9
		C892.8,345.2,890.7,347.4,888.3,347.4z M888.3,339.2c-1.7,0-3,1.5-3,3.3s1.3,3.3,3,3.3c1.7,0,3-1.5,3-3.3S889.9,339.2,888.3,339.2z
		"/>
	<path class="st21" d="M907.7,337.5c-2.5,0-4.5-2.2-4.5-4.9c0-2.7,2-4.9,4.5-4.9c2.5,0,4.5,2.2,4.5,4.9
		C912.2,335.3,910.2,337.5,907.7,337.5z M907.7,329.3c-1.7,0-3,1.5-3,3.3s1.3,3.3,3,3.3s3-1.5,3-3.3S909.4,329.3,907.7,329.3z"/>
	<path class="st21" d="M805.9,414.9c-2.5,0-4.5-2.2-4.5-4.9c0-2.7,2-4.9,4.5-4.9s4.5,2.2,4.5,4.9
		C810.4,412.7,808.4,414.9,805.9,414.9z M805.9,406.7c-1.7,0-3,1.5-3,3.3c0,1.8,1.3,3.3,3,3.3s3-1.5,3-3.3
		C808.9,408.2,807.6,406.7,805.9,406.7z"/>
	<path class="st21" d="M906.2,424.8H786.5V299.7c0-0.9,0.7-1.6,1.5-1.6s1.5,0.7,1.5,1.6v121.9h116.8c0.8,0,1.5,0.7,1.5,1.6
		S907,424.8,906.2,424.8z"/>
	<path class="st21" d="M794.9,412c-0.6,1.5-0.9,2.4-0.9,2.4l-0.5,1.5l2.8,1.1l0.5-1.5c0,0,0.3-0.8,0.8-2.2l0.6-1.5l-2.8-1.3
		L794.9,412z"/>
	<path class="st21" d="M831.8,368.8c-1.5,0.5-3,1.1-4.5,1.8l-1.4,0.7l1.2,3l1.3-0.6c1.4-0.6,2.8-1.2,4.2-1.6l1.5-0.5l-0.9-3.2
		L831.8,368.8z"/>
	<path class="st21" d="M838.1,367.4l-1.5,0.2l0.3,3.3l1.5-0.2c1.2-0.2,2.5-0.2,3.7-0.2h2.2v-3.3h-2.2
		C840.8,367.2,839.4,367.3,838.1,367.4z"/>
	<path class="st21" d="M821.6,374.1c-1.3,0.9-2.6,1.9-3.9,3.1l-1.2,1l1.9,2.6l1.2-1c1.2-1,2.4-2,3.7-2.9l1.3-0.9l-1.6-2.8
		L821.6,374.1z"/>
	<path class="st21" d="M799.8,401.2c-0.8,1.5-1.5,3-2.2,4.6l-0.7,1.5l2.7,1.5l0.7-1.5c0.7-1.5,1.4-3,2.2-4.4l0.7-1.4l-2.6-1.6
		L799.8,401.2z"/>
	<path class="st21" d="M805.7,391c-0.9,1.4-1.8,2.8-2.7,4.3l-0.8,1.4l2.5,1.8l0.8-1.4c0.8-1.4,1.7-2.8,2.6-4.1l0.9-1.3l-2.4-2
		L805.7,391z"/>
	<path class="st21" d="M849.1,367.2h-1.5v3.3h1.5h4.7h1.5v-3.3h-1.5H849.1z"/>
	<path class="st21" d="M813,381.7c-1.1,1.2-2.2,2.5-3.2,3.8l-1,1.2l2.3,2.2l1-1.2c1-1.3,2.1-2.5,3.1-3.6l1.1-1.2l-2.1-2.3L813,381.7
		z"/>
	<path class="st21" d="M864.4,367c-1.4,0.1-2.9,0.2-4.6,0.2h-1.5l0.1,3.3h1.5c1.7,0,3.2-0.1,4.7-0.2l1.5-0.1l-0.2-3.3L864.4,367z"/>
	<path class="st21" d="M897.5,330.5c-0.2,1.6-0.5,3.3-0.8,4.9l-0.3,1.6l3,0.7l0.3-1.6c0.3-1.6,0.6-3.3,0.8-5.1l0.2-1.6l-3-0.5
		L897.5,330.5z"/>
	<path class="st21" d="M891.1,352.4c-0.8,1.4-1.7,2.7-2.6,3.9l-1,1.2l2.2,2.1l1-1.2c1.1-1.4,2.1-2.8,2.9-4.3l0.8-1.4l-2.5-1.7
		L891.1,352.4z"/>
	<path class="st21" d="M895.3,341.8c-0.5,1.6-1,3.2-1.5,4.7l-0.6,1.5l2.8,1.3l0.6-1.5c0.6-1.5,1.1-3.3,1.6-4.9l0.4-1.6l-2.9-0.9
		L895.3,341.8z"/>
	<path class="st21" d="M884.1,360.5c-1.2,0.9-2.5,1.7-3.8,2.4l-1.3,0.7l1.3,3l1.3-0.7c1.5-0.8,2.9-1.7,4.2-2.7l1.2-1l-1.7-2.7
		L884.1,360.5z"/>
	<path class="st21" d="M874.8,365.2c-1.4,0.4-2.9,0.8-4.4,1l-1.5,0.3l0.5,3.3l1.5-0.3c1.6-0.3,3.1-0.6,4.7-1.1l1.5-0.4l-0.9-3.2
		L874.8,365.2z"/>
	<path class="st21" d="M907.2,324.1l-6.9-14.6l-8,13.9l6,0.3l-0.1,1.6l3,0.3l0.1-1.6v-0.1L907.2,324.1z"/>
</g>
<g>
	<text transform="matrix(0.9693 0 0 1 456.1577 0.5136)" class="st2 st4">Deep Learning</text>
</g>
<g>
	
		<image style="overflow:visible;opacity:0.75;" width="51" height="92" xlink:href="982EC8DA0D3324D6.png"  transform="matrix(1 0 0 1 821.9461 461.0097)">
	</image>
	<g>
		<g>
			<line class="st18" x1="840.2" y1="469.1" x2="840.5" y2="521.5"/>
			<g>
				<path class="st11" d="M850.6,519.8c-4.2,2.5-7.5,6.4-10.1,10.6c-2.6-4.2-6-7.9-10.2-10.5l0-2.5c4,2.6,7.5,5.7,10.2,9.6
					c2.6-3.9,6.1-7.2,10.1-9.8L850.6,519.8z"/>
				<path class="st11" d="M850.5,513.8c-4.2,2.5-7.5,6.4-10.1,10.6c-2.6-4.2-6-7.9-10.2-10.5l0-2.5c4,2.6,7.5,5.7,10.2,9.6
					c2.6-3.9,6.1-7.2,10.1-9.8L850.5,513.8z"/>
			</g>
		</g>
	</g>
</g>
<g>
	<path class="st22" d="M797.3,646.5c0.6-0.1,1.1-0.8,1.5-1.3l8.9-12.6l0.1-0.3l7.5,25.7l0.5,0.4c0.1,0.1,8.7,6.9,21,7.3
		c0.4,0,0.8,0,1.2,0c0.3,0,0.7,0,1,0c6.2-0.2,13.3-2.1,20.7-7.2l0.6-0.4l7.8-26.7c0.1-0.3,0.2-0.6,0.3-1c0-0.1,0.1-0.3,0.1-0.5
		c0,0.5,0.1,0.9,0.4,1.3l9.8,13.6c0.3,0.5,0.9,1.7,1.5,1.7l1.6-0.5l20.2-18.1c0.9-0.8,1.1-2.5,0.4-3.5l-7.7-11.4
		c-0.3-0.4-0.7-0.8-1.3-0.9l-26.9-6.7c-4.9-10.7-15-18.2-26.7-19c-0.4,0-0.7,0-1.1-0.1c-0.3,0-0.7,0-1,0c-0.4,0-0.8,0-1.2,0
		c-0.8,0-1.5,0.1-2.3,0.2c-11.3,1.3-20.9,8.9-25.5,19.4l-24.9,6.2c-0.5,0.1-1,0.4-1.3,0.9l-7.7,11.4c-0.7,1-0.5,2.3,0.4,3.1
		l20.2,18.6L797.3,646.5z M796.7,640.1l-17-14.8l6.1-9l21.3-5.3l4.9-1.2l2.3-0.6l-0.3,1.4l-2.7,1.2l-4.9,2.2l-7.9,3.6
		c-0.6,0.3-1.1,0.8-1.3,1.5c-0.2,0.7,0,1.4,0.4,2l6.5,8.7L796.7,640.1z M802.8,620.6l3.1-1.4c0,0.4,0,0.7,0,1.1c0,1.7,0.1,3.4,0.3,5
		L802.8,620.6z M856.8,655.1c-18.6,12.5-34.6,2.3-37.8,0l-2.9-9.8l-4.6-15.7l-0.3-1.2c-0.7-2.6-1.1-5.3-1.1-8.2c0-1,0.1-2.1,0.1-3.1
		l6.4-2.9c0.6-0.3,1.1-0.9,1.3-1.6l1.4-6.2c0.2-0.8,0-1.6-0.6-2.2c-0.5-0.6-1.3-0.8-2-0.6l-2.2,0.6c4.9-8.2,13.6-13.6,23.4-13.6
		c9.6,0,18.1,5.2,23,13.1l-0.1,0c-0.7-0.2-1.5,0-2,0.6c-0.5,0.6-0.7,1.4-0.6,2.2l1.4,6.2c0.2,0.7,0.6,1.3,1.3,1.6l4.5,2
		c0.2,1.3,0.2,2.6,0.2,3.9c0,2.6-0.3,5-0.9,7.4l-0.1,0.3c-0.2,0.7-0.4,1.3-0.6,2l-4.5,15.4L856.8,655.1z M869.1,628.5l0.1-0.3l0,0
		c0.6-2.5,0.9-5.2,0.9-7.9c0-0.6,0-1.3-0.1-1.9l5,2.2L869.1,628.5C869.2,628.4,869.1,628.4,869.1,628.5z M881,640.1l-7.4-10.2
		l6.5-8.7c0.4-0.6,0.6-1.3,0.4-2c-0.2-0.7-0.6-1.3-1.3-1.5l-9.9-4.5l-5.1-2.3l-0.5-0.2l-0.3-1.4l0.3,0.1l5,1.3l23.2,5.8l6.1,9
		L881,640.1z"/>
	<path class="st22" d="M830.3,626c-6.8,2.1-10.5-2.3-10.6-2.5c-0.5-0.6-1.4-0.7-2-0.2c-0.6,0.5-0.7,1.5-0.2,2.1
		c0.2,0.2,3.3,4.1,9.2,4.1c1.3,0,2.8-0.2,4.4-0.7c0.8-0.2,1.2-1.1,1-1.9C831.9,626.2,831.1,625.7,830.3,626z"/>
	<path class="st22" d="M855.6,623.5c0,0-3.7,4.6-10.6,2.5c-0.8-0.2-1.6,0.2-1.8,1c-0.2,0.8,0.2,1.7,1,1.9c1.6,0.5,3.1,0.7,4.4,0.7
		c5.9,0,9.1-3.9,9.2-4.1c0.5-0.6,0.4-1.6-0.2-2.1S856.1,622.9,855.6,623.5z"/>
	<path class="st22" d="M838,644.9c-0.8,0-1.4-0.7-1.4-1.5v-13c0-0.8,0.6-1.5,1.4-1.5c0.8,0,1.4,0.7,1.4,1.5v13
		C839.4,644.2,838.7,644.9,838,644.9z"/>
	<path class="st22" d="M827.9,575.7c-0.4,0-0.9-0.2-1.3-0.5c-0.9-0.7-1-2.1-0.3-3c2.9-3.7,7.1-5.8,11.6-5.8c4.5,0,8.7,2.1,11.6,5.8
		c0.7,0.9,0.6,2.3-0.3,3c-0.9,0.7-2.1,0.6-2.8-0.3c-2.1-2.7-5.2-4.3-8.4-4.3s-6.4,1.6-8.5,4.3C829.1,575.5,828.5,575.7,827.9,575.7z
		"/>
	<path class="st22" d="M841.3,580.9c-0.6,0-1.2-0.3-1.6-0.8c-0.9-1.1-2.7-1.1-3.6,0c-0.7,0.9-2,1-2.8,0.3c-0.9-0.7-1-2.1-0.3-3
		c1.2-1.6,3-2.5,4.9-2.5c1.9,0,3.7,0.9,4.9,2.5c0.7,0.9,0.6,2.3-0.3,3C842.2,580.8,841.7,580.9,841.3,580.9z"/>
	<path class="st22" d="M818.9,572.6c-0.3,0-0.7-0.1-1-0.3c-1-0.6-1.3-1.9-0.7-2.9c4.3-7.9,12.3-12.8,20.8-12.8s16.6,4.9,20.8,12.8
		c0.6,1,0.2,2.3-0.7,2.9c-1,0.6-2.2,0.2-2.7-0.8c-3.6-6.6-10.2-10.7-17.4-10.7c-7.1,0-13.8,4.1-17.4,10.7
		C820.2,572.2,819.6,572.6,818.9,572.6z"/>
</g>
<g>
	<text transform="matrix(0.9693 0 0 1 806.1729 445.5771)" class="st20 st2 st4">Model</text>
</g>
<text transform="matrix(1.0727 0 0 1 418.125 46.3447)"><tspan x="0" y="0" class="st23 st24 st25">Distribution of bitscores is</tspan><tspan x="31.1" y="28.3" class="st23 st24 st25">used as input of a </tspan><tspan x="-7.5" y="56.5" class="st23 st24 st25">feedforward netowrk of four</tspan><tspan x="-33.4" y="84.8" class="st23 st24 st25">hidden layers of 2000, 1000, 500 </tspan><tspan x="-33.9" y="113.1" class="st23 st24 st25">and 100 units that propagates the</tspan><tspan x="-23.6" y="141.4" class="st23 st24 st25">bitscore distribution to abstract </tspan><tspan x="43.5" y="169.6" class="st23 st24 st25">representations</tspan><tspan x="5.9" y="226.2" class="st23 st24 st25">Dropout is used to avoid</tspan><tspan x="34.9" y="254.5" class="st23 st24 st25">classification bias</tspan><tspan x="-32.8" y="311" class="st23 st24 st25">Output is connected to a SoftMax</tspan><tspan x="41.9" y="339.3" class="st23 st24 st25">layer of 30 units</tspan><tspan x="29.5" y="367.6" class="st23 st24 st25">that represents the</tspan><tspan x="-12.9" y="395.8" class="st23 st24 st25">total number of ARG classes</tspan><tspan x="10.7" y="452.4" class="st23 st24 st25">Subtypes are predicted</tspan><tspan x="17.7" y="480.7" class="st23 st24 st25">based on the best hit </tspan><tspan x="-4.8" y="508.9" class="st23 st24 st25">of the predicted ARG class</tspan></text>
<g>
	<path class="st11" d="M982,606.3l21.2,8.3c0.1,0,0.2,0.1,0.3,0.1c0.3,0,0.6-0.2,0.8-0.5c0.2-0.4,0-0.9-0.5-1.1l-21.2-8.3
		c-0.4-0.2-0.9,0-1.1,0.5C981.3,605.7,981.6,606.2,982,606.3z"/>
	<path class="st11" d="M1041.7,641.8c0-0.2,0-0.4,0-0.7c0-7.8-6.2-14.1-13.8-14.1h-12.6c1.3-1.6,2-3.2,2-5v-12.4
		c0-7-10.7-12.4-24.4-12.4s-24.4,5.5-24.4,12.4v12.4c0,4.3,4.1,8.1,11.1,10.4c-1.8,2.4-2.9,5.4-2.9,8.6c0,7.8,6.2,14.1,13.8,14.1
		h18.7h18.7c0.2,0,0.4,0,0.6,0c0.1,0,0.1,0,0.2,0c0.1,0,0.2,0,0.3-0.1c6.8-0.5,12.2-6,12.7-12.9
		C1041.7,642.1,1041.7,642,1041.7,641.8z M1020.9,653.6l17.8-18.1c0.3,0.6,0.6,1.2,0.8,1.8l-16,16.3H1020.9z M1037.9,634l-19.3,19.6
		h-2.6l20.7-21C1037.1,633,1037.5,633.5,1037.9,634z M1011.1,653.6l22.8-23.2c0.5,0.3,1.1,0.7,1.5,1.1l-21.8,22.1H1011.1z
		 M1013.3,628.8h0.4l-3.7,3.8v-3.8H1013.3z M1018.6,628.8l-8.6,8.8v-2.6l6-6.1H1018.6z M1023.5,628.8l-13.5,13.7v-2.6l10.9-11.1
		H1023.5z M1010,649.8l20.4-20.8c0.7,0.1,1.3,0.4,2,0.6l-22.4,22.8V649.8z M1028.3,628.8l-18.4,18.7v-2.6l15.8-16.1h2.1
		C1028,628.8,1028.2,628.8,1028.3,628.8z M1015.7,614.3v7.9c0,1.7-0.9,3.4-2.7,5h-3.9h-18.7c-0.5,0-0.9,0-1.4,0.1
		c-0.1,0-0.1,0-0.2,0c-0.4,0-0.8,0.1-1.2,0.2c0,0,0,0,0,0c-1.3,0.3-2.6,0.7-3.8,1.4c-0.1,0-0.1,0.1-0.2,0.1
		c-0.3,0.2-0.6,0.4-0.9,0.6c-0.3,0.2-0.5,0.4-0.8,0.6c-0.1,0.1-0.2,0.1-0.2,0.2c-0.4,0.3-0.7,0.6-1,0.9c-1.9-0.6-3.5-1.3-5-2
		l0.6-0.6c0.3-0.3,0.3-0.8,0-1.2s-0.8-0.3-1.2,0l-0.8,0.8c0,0-0.1,0.1-0.1,0.1c-0.6-0.4-1.1-0.7-1.5-1.1l3.6-3.6
		c0.3-0.3,0.3-0.8,0-1.2s-0.8-0.3-1.2,0l-3.6,3.6c-0.4-0.5-0.8-1-1-1.6c0,0,0,0,0,0l5.5-5.6c0,0,0,0,0,0c0.4,0.2,0.8,0.4,1.2,0.5
		c0.1,0,0.1,0,0.2,0.1c0.4,0.2,0.8,0.3,1.1,0.4c0.1,0,0.2,0.1,0.3,0.1c0.4,0.2,0.9,0.3,1.3,0.4c0.1,0,0.2,0,0.3,0.1
		c0.4,0.1,0.8,0.2,1.3,0.3c0.1,0,0.2,0,0.3,0.1c0.5,0.1,1,0.2,1.5,0.3c0.1,0,0.2,0,0.3,0.1c0.5,0.1,0.9,0.2,1.4,0.2
		c0.1,0,0.2,0,0.2,0c0.5,0.1,1,0.2,1.6,0.2c0.1,0,0.2,0,0.4,0c0.5,0.1,1,0.1,1.5,0.1c0.1,0,0.1,0,0.2,0c0.6,0,1.1,0.1,1.7,0.1
		c0.1,0,0.3,0,0.4,0c0.6,0,1.2,0,1.7,0s1.2,0,1.7,0c0.1,0,0.3,0,0.4,0c0.6,0,1.1-0.1,1.7-0.1c0.1,0,0.1,0,0.2,0c0.5,0,1-0.1,1.5-0.1
		c0.1,0,0.2,0,0.4,0c0.5-0.1,1.1-0.1,1.6-0.2c0.1,0,0.2,0,0.2,0c0.5-0.1,0.9-0.2,1.4-0.2c0.1,0,0.2,0,0.3-0.1c0.5-0.1,1-0.2,1.5-0.3
		c0.1,0,0.2,0,0.3-0.1c0.4-0.1,0.8-0.2,1.3-0.3c0.1,0,0.2,0,0.3-0.1c0.5-0.1,0.9-0.3,1.3-0.4c0.1,0,0.2-0.1,0.3-0.1
		c0.4-0.1,0.8-0.3,1.1-0.4c0.1,0,0.1,0,0.2-0.1c0.4-0.2,0.8-0.3,1.2-0.5c0.1,0,0.2-0.1,0.2-0.1c0.4-0.2,0.7-0.4,1-0.5
		c0,0,0.1,0,0.1-0.1c0.4-0.2,0.7-0.4,1-0.6c0.1,0,0.1-0.1,0.2-0.1c0.3-0.2,0.6-0.4,0.9-0.7c0,0,0,0,0,0c0.3-0.2,0.6-0.5,0.8-0.7
		c0.1-0.1,0.1-0.1,0.2-0.2c0.3-0.2,0.5-0.5,0.7-0.7c0,0,0,0,0-0.1C1015.2,614.8,1015.4,614.6,1015.7,614.3
		C1015.6,614.3,1015.6,614.3,1015.7,614.3z M970.1,622.1V620l2.9-3c0.2,0.1,0.3,0.2,0.5,0.4c0.1,0,0.1,0.1,0.2,0.1
		c0.3,0.2,0.6,0.3,0.8,0.5l-4.5,4.6C970.1,622.4,970.1,622.3,970.1,622.1z M992.9,598.9c12.4,0,22.8,4.9,22.8,10.8
		c0,5.8-10.4,10.8-22.8,10.8s-22.8-4.9-22.8-10.8C970.1,603.9,980.5,598.9,992.9,598.9z M970.7,615.1
		C970.8,615.1,970.8,615.1,970.7,615.1c0.3,0.3,0.5,0.5,0.8,0.8c0.1,0,0.1,0.1,0.2,0.1l-1.6,1.7v-3.4c0,0,0.1,0.1,0.1,0.1
		C970.3,614.6,970.5,614.8,970.7,615.1z M978.2,641.2c0-3.3,1.3-6.3,3.4-8.5c0.2-0.3,0.5-0.5,0.7-0.7c0.1-0.1,0.1-0.1,0.2-0.2
		c0.2-0.2,0.5-0.4,0.7-0.6c0.1-0.1,0.2-0.2,0.3-0.2c0.2-0.1,0.4-0.2,0.6-0.4c0.2-0.1,0.3-0.2,0.5-0.3c0.1-0.1,0.2-0.1,0.4-0.2
		c0.2-0.1,0.5-0.3,0.7-0.4c0,0,0.1,0,0.1,0c1.4-0.6,3-0.9,4.6-0.9h17.9v24.8h-17.9C983.7,653.6,978.2,648,978.2,641.2z
		 M1025.8,653.6l14.2-14.4c0.1,0.6,0.2,1.3,0.2,2c0,0.2,0,0.3,0,0.5l-11.7,11.9c-0.2,0-0.3,0-0.5,0H1025.8z M1031.1,653.1l8.5-8.7
		C1038.5,648.7,1035.3,652,1031.1,653.1z"/>
</g>
<g>
	<text transform="matrix(0.9693 0 0 1 960.7227 683.3661)" class="st2 st4">Subtype</text>
</g>
<g>
	<text transform="matrix(0.9693 0 0 1 979.1133 584.7411)" class="st2 st4">Type</text>
</g>
<g>
	
		<image style="overflow:visible;opacity:0.75;" width="70" height="51" xlink:href="982EC8DA0D3324D4.png"  transform="matrix(1 0 0 1 903.9461 605.0097)">
	</image>
	<g>
		<g>
			<line class="st18" x1="912.9" y1="623.4" x2="942.6" y2="623.4"/>
			<g>
				<path class="st11" d="M940.9,613.3c2.5,4.2,6.4,7.5,10.5,10.1c-4.2,2.5-7.9,6-10.5,10.1h-2.5c2.6-4,5.8-7.5,9.7-10.1
					c-3.9-2.7-7.2-6.2-9.7-10.1H940.9z"/>
				<path class="st11" d="M934.9,613.3c2.5,4.2,6.4,7.5,10.5,10.1c-4.2,2.5-7.9,6-10.5,10.1h-2.5c2.6-4,5.8-7.5,9.7-10.1
					c-3.9-2.7-7.2-6.2-9.7-10.1H934.9z"/>
			</g>
		</g>
	</g>
</g>
<g>
	<g transform="translate(-388.000000, -2461.000000)">
		<g transform="translate(388.000000, 2461.000000)">
			<path class="st26" d="M374-242.1c-4.6,0-8.9,2.2-11.9,6c-1.2,1.5-1,3.8,0.3,5.1c1.3,1.3,3.3,1.2,4.4-0.3c1.8-2.3,4.4-3.6,7.2-3.6
				c5.3,0,9.6,4.8,9.6,10.8s-4.3,10.8-9.6,10.8c-2.7,0-5-1.3-6.6-3.5l0.2,0.1c1.6,0.9,3.4,0.2,4.2-1.6c0.8-1.8,0.1-3.9-1.4-4.8
				l-7.5-4.2c-0.1-0.1-0.2,0-0.3-0.1c-0.2-0.1-0.4-0.2-0.6-0.2c-0.2,0-0.4-0.1-0.6,0c-0.1,0-0.2,0-0.3,0c-0.1,0-0.2,0.1-0.3,0.1
				c-0.2,0.1-0.4,0.1-0.6,0.2c-0.2,0.1-0.4,0.2-0.5,0.3c-0.2,0.1-0.3,0.3-0.4,0.4c-0.2,0.2-0.3,0.4-0.4,0.6
				c-0.1,0.1-0.1,0.2-0.2,0.3l-3.7,8.6c-0.8,1.8-0.1,3.9,1.4,4.8c0.4,0.3,0.9,0.4,1.4,0.4c1.2,0,2.3-0.7,2.8-2l0.4-0.8
				c2.8,5.4,7.4,8.6,13,8.6c8.8,0,15.9-8.1,15.9-18C389.9-234.1,382.8-242.1,374-242.1"/>
			<path class="st26" d="M352.1-256.5c-18.4,0-27.9-5.2-28.4-7.2v-5.6c0,0,0.1,0,0.1,0.1c0.8,0.4,1.6,0.8,2.4,1.2
				c0.2,0.1,0.5,0.2,0.7,0.3c0.7,0.3,1.4,0.5,2.1,0.8c0.3,0.1,0.7,0.2,1,0.3c0.7,0.2,1.4,0.4,2.1,0.6c0.3,0.1,0.7,0.2,1,0.3
				c0.9,0.2,1.8,0.4,2.8,0.6c0.2,0,0.3,0.1,0.5,0.1c1.1,0.2,2.3,0.4,3.4,0.5c0.3,0,0.7,0.1,1,0.1c0.9,0.1,1.7,0.2,2.6,0.3
				c0.4,0,0.8,0.1,1.2,0.1c0.8,0.1,1.7,0.1,2.6,0.2c0.4,0,0.7,0,1.1,0.1c1.2,0,2.4,0.1,3.6,0.1c1.2,0,2.4,0,3.6-0.1
				c0.4,0,0.7,0,1.1-0.1c0.9,0,1.7-0.1,2.6-0.2c0.4,0,0.8-0.1,1.2-0.1c0.9-0.1,1.7-0.2,2.6-0.3c0.3,0,0.7-0.1,1-0.1
				c1.2-0.2,2.3-0.3,3.4-0.5c0.2,0,0.4-0.1,0.6-0.1c0.9-0.2,1.8-0.4,2.7-0.6c0.4-0.1,0.7-0.2,1-0.3c0.7-0.2,1.4-0.4,2.1-0.6
				c0.3-0.1,0.7-0.2,1-0.3c0.7-0.3,1.4-0.5,2.1-0.8c0.2-0.1,0.5-0.2,0.7-0.3c0.9-0.4,1.7-0.8,2.5-1.2c0,0,0.1,0,0.1-0.1l0,5.6
				C380-261.7,370.5-256.5,352.1-256.5 M352.1-242.1c-18.4,0-27.9-5.2-28.4-7.2v-5.6c0,0,0.1,0,0.1,0.1c0.8,0.4,1.6,0.8,2.4,1.2
				c0.2,0.1,0.5,0.2,0.7,0.3c0.7,0.3,1.4,0.5,2.1,0.8c0.3,0.1,0.7,0.2,1,0.3c0.7,0.2,1.4,0.4,2.1,0.6c0.3,0.1,0.7,0.2,1,0.3
				c0.9,0.2,1.8,0.4,2.8,0.6c0.2,0,0.3,0.1,0.5,0.1c1.1,0.2,2.3,0.4,3.4,0.5c0.3,0,0.7,0.1,1,0.1c0.9,0.1,1.7,0.2,2.6,0.3
				c0.4,0,0.8,0.1,1.2,0.1c0.8,0.1,1.7,0.1,2.6,0.2c0.4,0,0.7,0,1.1,0.1c1.2,0,2.4,0.1,3.6,0.1c16.7,0,34.7-4.5,34.7-14.4V-278
				c0-9.9-18-14.4-34.7-14.4c-16.7,0-34.7,4.5-34.7,14.4v14.4v14.4v14.4c0,9.8,16.9,13.8,31.4,14.3h0.1c1.7,0,3.1-1.5,3.1-3.5
				c0.1-2-1.3-3.6-3.1-3.7c-16.7-0.6-24.9-5.4-25.3-7.1v-5.6c0,0,0.1,0,0.1,0.1c0.8,0.4,1.6,0.8,2.4,1.2c0.2,0.1,0.5,0.2,0.7,0.3
				c0.7,0.3,1.4,0.5,2.1,0.8c0.3,0.1,0.7,0.2,1,0.3c0.7,0.2,1.4,0.4,2.1,0.6c0.3,0.1,0.7,0.2,1,0.3c0.9,0.2,1.8,0.4,2.8,0.6
				c0.2,0,0.3,0.1,0.5,0.1c1.1,0.2,2.3,0.4,3.4,0.5c0.3,0,0.7,0.1,1,0.1c0.9,0.1,1.7,0.2,2.6,0.3c0.4,0,0.8,0.1,1.2,0.1
				c0.8,0.1,1.7,0.1,2.6,0.2c0.4,0,0.7,0,1.1,0.1c1.2,0,2.4,0.1,3.6,0.1c1.7,0,3.2-1.6,3.2-3.6C355.2-240.5,353.8-242.1,352.1-242.1
				"/>
		</g>
	</g>
</g>
<text transform="matrix(1.0727 0 0 1 393.6755 -199.989)"><tspan x="0" y="0" class="st23 st24 st27">100nt reads for </tspan><tspan x="120.6" y="0" class="st23 st28 st27">deepARG-SS</tspan><tspan x="6.2" y="25.2" class="st23 st24 st27">Full genes for </tspan><tspan x="115.4" y="25.2" class="st23 st28 st27">deepARG-LS</tspan></text>
</svg>
